<mxfile host="app.diagrams.net" modified="2023-05-05T17:55:57.032Z" agent="Mozilla/5.0 (Windows NT 10.0; Win64; x64) AppleWebKit/537.36 (KHTML, like Gecko) Chrome/113.0.0.0 Safari/537.36" etag="cLmh0spftUvquDTxG26S" version="21.2.9" type="google">
  <diagram name="Page-1" id="JjpO6PkBQ2WrfjfWvOiA">
    <mxGraphModel grid="1" page="1" gridSize="10" guides="1" tooltips="1" connect="1" arrows="1" fold="1" pageScale="1" pageWidth="850" pageHeight="1100" math="0" shadow="0">
      <root>
        <mxCell id="0" />
        <mxCell id="1" parent="0" />
        <mxCell id="PeEAsRIEW-1K7SLR4IVB-1" value="" style="shape=image;verticalLabelPosition=bottom;labelBackgroundColor=default;verticalAlign=top;aspect=fixed;imageAspect=0;image=data:image/jpeg,/9j/4QAYRXhpZgAASUkqAAgAAAAAAAAAAAAAAP/sABFEdWNreQABAAQAAABkAAD/4QMxaHR0cDovL25zLmFkb2JlLmNvbS94YXAvMS4wLwA8P3hwYWNrZXQgYmVnaW49Iu+7vyIgaWQ9Ilc1TTBNcENlaGlIenJlU3pOVGN6a2M5ZCI/PiA8eDp4bXBtZXRhIHhtbG5zOng9ImFkb2JlOm5zOm1ldGEvIiB4OnhtcHRrPSJBZG9iZSBYTVAgQ29yZSA1LjYtYzE0NSA3OS4xNjM0OTksIDIwMTgvMDgvMTMtMTY6NDA6MjIgICAgICAgICI+IDxyZGY6UkRGIHhtbG5zOnJkZj0iaHR0cDovL3d3dy53My5vcmcvMTk5OS8wMi8yMi1yZGYtc3ludGF4LW5zIyI+IDxyZGY6RGVzY3JpcHRpb24gcmRmOmFib3V0PSIiIHhtbG5zOnhtcD0iaHR0cDovL25zLmFkb2JlLmNvbS94YXAvMS4wLyIgeG1sbnM6eG1wTU09Imh0dHA6Ly9ucy5hZG9iZS5jb20veGFwLzEuMC9tbS8iIHhtbG5zOnN0UmVmPSJodHRwOi8vbnMuYWRvYmUuY29tL3hhcC8xLjAvc1R5cGUvUmVzb3VyY2VSZWYjIiB4bXA6Q3JlYXRvclRvb2w9IkFkb2JlIFBob3Rvc2hvcCBDQyAyMDE5IChNYWNpbnRvc2gpIiB4bXBNTTpJbnN0YW5jZUlEPSJ4bXAuaWlkOjYxN0FDMUFGNEQ1RjExRTlCRkJEQzAyMDBFRjU5MDU2IiB4bXBNTTpEb2N1bWVudElEPSJ4bXAuZGlkOjYxN0FDMUIwNEQ1RjExRTlCRkJEQzAyMDBFRjU5MDU2Ij4gPHhtcE1NOkRlcml2ZWRGcm9tIHN0UmVmOmluc3RhbmNlSUQ9InhtcC5paWQ6NjE3QUMxQUQ0RDVGMTFFOUJGQkRDMDIwMEVGNTkwNTYiIHN0UmVmOmRvY3VtZW50SUQ9InhtcC5kaWQ6NjE3QUMxQUU0RDVGMTFFOUJGQkRDMDIwMEVGNTkwNTYiLz4gPC9yZGY6RGVzY3JpcHRpb24+IDwvcmRmOlJERj4gPC94OnhtcG1ldGE+IDw/eHBhY2tldCBlbmQ9InIiPz7/7gAOQWRvYmUAZMAAAAAB/9sAhAABAQEBAQEBAQEBAQEBAQEBAQEBAQEBAQEBAQEBAQEBAQEBAQEBAQEBAQEBAgICAgICAgICAgIDAwMDAwMDAwMDAQEBAQEBAQIBAQICAgECAgMDAwMDAwMDAwMDAwMDAwMDAwMDAwMDAwMDAwMDAwMDAwMDAwMDAwMDAwMDAwMDAwP/wAARCAE5AjoDAREAAhEBAxEB/8QBBwABAAEEAwEBAQAAAAAAAAAAAAEDCQoLAgQIBwYFAQEAAQUBAQEAAAAAAAAAAAAABwEDBQYIAgQJEAAAAwYEAgQFCwkQCwsJCQAAAQURIQIEBgcxQQMIUQlhcYESkaGxFBXwwdHhIhMWF5dYCvEyQiQm1lcYGVJiIzQlNUU2lic3R9c4ORqCokRVRlZmtndIeMIzQ1RldWeHaNgpcpKFlXantyiY0pNkhKW11YbHEQACAAMEBAcJCwkECQQCAwAAARECAyEEBQYxQVES8GFxobETB4GRwdEiMlLSFEJykqKyU6PTFRYX4WKCIzM0VFU28cJzCENjk7PjJHSkNeLyRCXD1GRFN//aAAwDAQACEQMRAD8AzvRmD4AAAAAAAAAAAAAAAAAAAAAAAAAAAAAAAAAAAAAAAAAAAAAAAAAAAAAAAAAAAAAAAAAAAAAAAAAAAAAAAAAAAAAAAAAAAAAAAAAAAAAAAAAAAAAAAAAAAAAAAAAAAAAAAAAAAAAAAAAAAAAAAAAAAAAAAAAAAAAAAAAAAAAAAAAAAAAAAAAAAAAAAAAAAAAAAAAAAAAAAAAAAAAAAAAAAAAAAAAAAAAAAAAAAAAAAAAAAAAAAAAAAAAAAAAAAAAAAAAAAAAAAAAAAAAAAAAAAAAAAAAAAAAAAAAAAAAAAAAAAAAAAAAAAAAAAAAAAAAAAAAAAAAAAAAAAAAAAAAAAAAAAAAAAAAAAAAAAAAAAAAAAAAAAAAAAAAAAAAAAAAAAAAAAAAAAAAAAAAAAAAAAAAAAAAAAAAAAAAAAAAAAAAAAAAAAAAAAAAAAAAAAAAAAAAAAAAAAAAAAAAAAAAAAAAAAAAAAAAAAAAAAAAAAAAAAAAAAAAAAAAAAAAAAAAAAAAAAAAAAAAAAAAAAAAAAAAAAAAAAAAAAAAAAAAAAAAAAAAAAAAAAAAAAAAAAAAAAAAAAAAAAAAAAAAAAAAAAAAAAAAAAAAAAAAAAAAAAAAAAAAAAAAAAAAAAAAAAAAAAAAAAAAAAAAAAAAAAAAAAAAAAAAAAAAAAAAAAAAAAAAAAAAAAAAAAAAAAAAAAAAAAAAAAAAAAAAAAAAAAAAAAAAAAAAAAAAAAAAAAAAAAAAAAAAAAAAAAAAAAAAAAAAAAAA+XXQuCh2qtlcK6NSe+R07bmhavr5a8zMvOTp6kENRqJQOSLA4vRqebOMRjzc6LvuJyXG9PdlnnUsdOlq2Cg7NMIqOgtXm8fZ91c6UYRcOPvMwVbqc+/mIVvW62uW/ubT1m6RUdcvg7Q1P22tvVOiiyZN73pGo7kW+WVZRUzZ9aXuW5DrjD+xXIV3wSlfr5PGpNJK7VeLXZp3a27Fu2KlS4kiKLzmrrL3NK7INqHCTnPwH5crmifOk1vkY2+s/+FbcRkfwqyJ/Lvp7x9cY378Zi9HnpfVlI+eTzSS/1otU8f4ktvjGE/K1R4h+FWRP5d9PePrh9+Mxejz0vqyr+XK5oh/60es3h8TG33+SpofhVkT+XfT3j64ffjMXo89L6s4/lyeaM7/5odU8/wCBLb63/wCFQfhVkT+XfT3j64ffjMXo89L6safPI5oj+7ud7pk8m2S29m0nv/gqPMXaPYpkS80HUuU0ZoWWXjT+lXR7mzjWozpQio7V6hlZ8oXmC1Nv4sjU6vcZMS0i7Vq6gkqYrbWp0vNqeqOWX5CFTQKoTE+Ivcw6+kRkeRM6RzV2kZZ+6l8dO5Nui5oKyxQs91NO7dMG42OD2SRlzGamJUk2rIcXqovEjSDYwAAAAAAAAAAAAAAAAAAAAAAAAAAAAAAAAAAAAAAAAAAAAAAAAAAAAAAAAAAAAAAAAAAAAAAAAAAAAAAAAAAAAAAAAAAAAAAAAAAAAAAAAD5zcCj6fuRQ1X27quSJTpSv6WqOi6lke8ZekKdq6QUKfX5A4mGZQxJs8ZGeLBW4XiVzLEJlDcmT2qK0Jw2who4w7tLiN2mlmfkzJrhajAW5iHKGvDsIRZ+6M5W9H19ZFRraSpCllvS1lCUrUvSCfUSmnyFY0/3YTMvRdPsbJT088dYdmmdstZuoy4TfXCaSTR+tfmpP3MklidlrjxQIZxnLPsd9b9y23w8ttFoooj7Op+Z8BLvXXn+I+IjAb9/4bo7zw6+9fxHxEN+/8N0jvHl2YeI2G8OuvX8R8RDfxDhuklEfl4OZl09gp196/iPiIb9/4bp6S2p7WLm7xLwpFjLRx09p1guJSwsaOtVCkoICDLyVPSHpFQKfn0tJXjOIzYwieYw2ZMy5Xyndm7u/KhH/AE3c0yTl/CcPo4jVWu3Rb40Z4fK85e0ly/bIq9HqdRyNZ3LuAtydS3JqdNlZyUSY5uQkiTkFDp/Tih70KYjQEcBYH7o2lgONs8ZxlzJiDnpJ7krcFHS29Pmy6koRUbXEmzA7pRwygpZFq43Z3W+MunjVDJAAAAAAAAAAAAAAAAAAAAAAAAAAAAAAAAAAAAAAAAAAAAAAAAAAAAAAAAAAAAAAAAAAAAAAAAAAAFDTYZEZQMJv5o3Z9otTUqU8yvE9tVa7f7OY8U6s1ZNzWI8h7n96223Z3S2nU9+bnItHlOaPv6LS2i1VrWpDhjjhi+D9JJnviqpMMmHNERSRGWIy2CZaxbNtT2WWkppIrzp0pdNlqam0qEEnpi4I+a8Xy6XK2pNDuTeBMx471/SZPtiYk9ue2/T1E2EmaNV3lqgm4Pbb2iIWRe64VSWOAm3AuwpUqVSnVqT06i3W9xS2NpxUZqsycNTSl40adeM8b9CZypRa4e4P5uy/nw7udye6yyNjaxt3t5RaPuXWktTCzO0rS9x5OqZSVia2NPn1O6a2jxRte8j9n4MwdjtC4ZOvGIVqs7Ukm8k/N8movRqN6Fpt5HoLGA5onrVmlbFpdz4Jl0lDCZl0dYgle1tQn0dwkSpSVSZTTajHq5vvNP3D7ALsWqoWzlJ2gqFNrq3s5Vynr3LpytagmpOaT1ueTO7AdNV9RX6HGcJRPabT6iKWOzfs6wzNe919SelUTac0qi7EnZGbdg465Y6eI07NmYVg1Fb1qs27eKVloo/pKe+sv4sNqH7hbv8AD/TzkJI/Am4/xVfvSesax9+8X9BfE9Qj+sqb6/wY7T8v4vrv59V+8A/Ai4/xVfvSesPv3jHoLvyeoZE/KU3u3Z33bcqxvDeBHt8h1Eg3jqG3ejJW1Sl5Jp6FJTaGt7UenF5hUVT1orRKeop1eZRNjYyEiInm2FO0PLLyVmSXCXM5p1TlcXCLUyWmE0y1tWbNCN4y1jCxei2lBLpWnVLoiXZO5DEUR5RFg82GRuzabyGlqgqd59oWl+I2BfqZuIwdy+kpb7M7XbTsWftAvB4239cOnfwDwD+NvHwF4yJPxCr+gu//AMMqf1lLfO4/iu2oP/yCvA4s/wCPrIw/APAP428fAXrD8Qq+jcXf/wCGP6ylvn/BftQcwz+4G8De1l+g/APAP46v8BeMfiFX9Fd//hj+so753fvX7UMDwoG8GWRF8fQfgHgH8bePgL1h+IVb0V3/APhlL+spb7Mfiu2ms/8AYC8PRg2/uAfgHgGj228fAXjH4hV9G4o8v/DOZ/SUt9mVrdqBv/xIvAeTfw95h+AeAa77ePgLxj8Qq/orv/8ADJ/rKe+b8GG0/wDcBeD+XvgH4BYB/G3j4K8ZX8Qa/oLv/wDDOH9ZS32fgu2ndlAXhw+X1+HaH4B4B/HV/gL1in4hV/RXfX1Zz/rKW+fK2G1BzMKAvAx/R8fTWDxduwnCLxdJk73X5N2WHTHnL11zy5rJpUu7/wCg8hb0Ob3uX302flbLXdoyxdP0vJ1ekV7LKVvKVuKkL8CtTyfUKYRQT9RXSrRJIiJfdizybT2d9l+X8r4o7xeKtSdqWZJNTQUYNvyZm4xlWlw02bMdiOaZ7w96RQ4ccvGWoewjzYXgY3MyMxKfQa0HtYWTm+x4A5QR62PH3PkYAJe3izE+l2LC6AB6k2jbsbi7LL1Jd9rVItFrdXpCLUKDLSleyC2roGvK1BIknKBkm07VVFqjSMiN86Y1LNWXpM40Hd3M5YpKKSbUGmmlM5Vp2pn2YNjda7Tre71mj4Jd0P6Snvqey1205hF/iBeEv/8AfWMEZydgNBTdZUvVZN/myeu+g2+fOkskkEtHL6hVg+kpb5fwVbUzN3+BF438f46DHqXsKlmVt4q96n65apZ4a1Lv/wDoPRloPpM1ZaU9pyt+Ns6AoJDCh1V20NVT1Pzcs5n7Ta4gWyiYX5pbkn8RgsR7Cd+K62eaOtqWPNWl77iffJnppWqD4f6syBNpPMO2q71U/VjsncjR1amkpGGYW7a1SRoFwEUzMm6kSAZx+lE4oYP04jzk9IfnniH8WyhiOFW1pN1Rasaa7rU73e75NvnN2G43TErnfPMfyvEj3tE4vrWl1swGApSKn5zg4mSqTz015CsKo9nsAClgUJ5Pb4SFtzqlTjqPE8rc6fGeT9x+8TbjtBR6bXtxNxNK3KNWCrNJFPT0zTtWL5KStIQHPz+l3aLpldigjhgYcTYSI28WsyOF5bvWZ3u3Wn1k6ejelljbtc0vPZZpLGI4rTuVPynauXRZxM8nflteWJ86WQ+Se+mf/VaNq/DbPv8AKv8Aubv9aY77wYB6XNV9UflteWH86ZP+Se+n8lrA/DbPv8q/7m7/AFo+8GAelzVfVJ/La8sP50yf8k99H/8AutHj8M89/wAp/wC5u/1p6+8GAen8Wr6o/LacsP500h8k99P5LXB+Gme/5T/3N3+tH3gwD0/i1fVH5bXlh/OmkPknvp2/xWh+Gme/5T/3N3+tH3hwD0/i1fVO8ic53ln1BNeaSG62lymDL9lKNurT8oeTfSFSUEiphf8AnA+zPPb/AP6m3/qrvDnqh5gy/wCl8WrDvbvhLh1vrj0DdCmJarra1tS1f0oowtkqootfRahSpsixihUUw402I+gjMabXwy9YM3SryzStbUlaoRg4tOHEzMSTXa9Lepu2GyY+hakTCcTS4NFmn1d6lhN4fyFitUnu6W5o4cpXFw+gAAAAAAAAAAAAAAAAAAAAAAAAAAAAAAAAAAAAAAAAAAAAAAAALF/Nb5tFM7HEHWtZaok2r9zNTpha8tJTEXnSBbNInzjhkarrKE4O8Sh3np6U1sZ/nWNkPIPZve86Ygr3Sh7NJMoqxxSsemrI4d96bLIvA45mClcabUmnu+GV90wcroXRuTeitl25N1axXLgVzUWt5wt1BUU6U0qzOLISY0ktLMjYnyciOv7phGE5cuFPD7tLu15JUrHPCyGpuZJcScCF8Svl8xqp+rfkx/N4tqlPnULDPg438XvPraL9atXo36rSWyXZ6K8Z4cknUxhqRcE5U/8ASH7S2fhjp9vSRwRewNO7TOto9m9eefzZlB6PnUlzwM3lWemq26tO+tu2U2SzSJx59fqzHD9L2xeVV1avJ8BN1SqqcylelmNrzq+W9uh3u3gs7WNhUCmFlJou289TK3rLlYSVKTUurKFUzylD3TiMu+XcY0yaTWli0Td2VZ6wfLLqK/Pym5nbv2RlSgt2nPHzeLkNNzZl9YzQTemzh50pZd/q/nMkwKgralw/fZpT1OEn/jXgXF9J/wDrmnfcbGNr71P6w4/1frmTs/aFbfJ3xr0n4jI8hT8bMC4vpP8A9cfcbGNr71P6wyauS/tCvRsv2vV1ay+6UjpNYLt+asr2SlkSoZFflIadUKHtzTsgfpFNPu941Kj5hzCNggrtMx+nnHMv2vK4ydVJLr1Sr82TTshqJDy1g32RQcsq4OEfdTF4TvQkURZQEZnj19gjnrlVvXULSvyGwL9dNDSmamPHPDh7GDR+i3sty4b3jOef+T4bw64uPg9gPZblw3vGIXPhvEYlj4C6MWFm8PZblw3vGIXPhvEtexuXAsGFmwsg9luXDe8Yhc+G8Q48yxPAvFkHsty4b3jELnw3hnj1u8bG4GQeyXLhveMf8nw3g1+ODMusiLpD2S5cN7xj/k9nyiciNriZ0M9nEPZLlo9bxiFz4bxxfxbjgxj8OjAxbmvmGXKZUU7H7/i4mW5rrSo2LT3fGSZsY13HHg5nUKT3bDq8vW03p99xbWE7vP5y6Smzs44m7NzXC8UBH0ZlmxuGBkwjADN7XG/MmdGOAA7LOjAy8TOLvaAFE2G0mE1+bX9ebW9YtXalUuysdr4cZen9npqCVvdJYTPZPDPAVvNzv98X6p2Lil8LR8dTq6j4u6S9xYG12DSM8DMmsPpFFe7xGL0dzxH0+ySbenxkGwmmbjc0vARG3qzIepZq9bT4Dz1NOV7u9zM/SUnVVTUNUaFWNFVEsUnVlOzsmr07UVOqk+k1CiLCfjPpyim/qumsYPmv2HYbmm7uSWWNjWmbRoeuTaW5Kt9wGqqkzsjsl4nD3Rmh8o3nHaG5n0Nty3NT8ijX90tA5ehK10GSiBd+TbCTYScSZXEMJPkmPxJ+PKPaF2c1MKrTVbtBUVa0oKCSi2l1j2WrvW2OXsrZqo36lLJV86HH3vMRkfCKTcAAKHvhd0j4+z1Czd1193UdDj0lZITzOGoxg/pOP8Ce2E8vjSq/x0gfb9iJ07BVIsXqyVLU5H0Ts0HPLnpUpXI4OHhRhvF2sZnmRl1EOnXXo8IkXdVhz4TE59p+ufgDr6OrwjqcO4bxxZD9RuPBnEjMXuso8IlzqsO9LmmJ7pGXYb29rnh1lHhEdXh3pc0xDIC9nwPN7SY0Oso8IjqsO9LmmBFD24Zkw3FwdkHWUeER1eHbeaY9LbZN2F/NoleS9eWMr1TpSd9/k/TdOkZTNK1VKYlJVegERJSinFiRkbSMa3jmSsLzVdmpJLdVs9j22zyW8atR9OGY7e8Kqp1JopcUvF+bMZ53Lh5jNueYHa/UV0iDSpO7FI6MnLXPttr60XnSLNRe9lIraE8jU6LWShPuR4PMje+LjrP2Trzle9z06dsm9Y7I8j8uazY9a0watmfAsdpYjSXWK3u+qreGiJdBGrmaAAAAAAAAAAAAAAAAAAAAAAAAAAAAAAAAAAAAAAAAAAAAAOucUEJQmT2tZiXWLdKmqtX2hcNR7lXXK3QW+uYxvXpfYltyqi7c5pSCnXCv3qStTS+sZfdFXKnpwwJ0Mfdihjhp9HfNz5kRsghY0jMhn8j5Zq5uzIlCNBNNuNsJZbdM0j0K3ijC1IwmJYtTweybT3fFNDxmuXuDX1YXPreq7j18vT1VVpWi1NLtT1DOF3ZlaVlCeZCUMOREx3gHcWE4UrmpZZUpaUiSSSSSSSSSSdiUIJKxIgu2Zxek/HE9j+1vA8m4m4ZO9NSy8OIOwcO3Ht9geLv+1q/o9Beu3/k3yf3S4VypT/8AET2kEZ43ep5vgafQ8xovaCo9nl6/w38syGT/AOqpnsibJkihMujt4ji3zidG+s5A4iZlx7eA8veUN1R7pVbsitKfdi/Nf2pD5+pk+a+MXorYO7F+a/tSDqZPmvjCK2AoiIoTY1rR9Kbfkz2TFiglNTs0D3siKLpZ0YH1ixLSVGbrF3RSjJNBmpezLj5GuJ7iY8fouc7EMd4up5kzIjMgiCcPGTTNzfrnu4hpAxyLDLieL+JgCHZ+XJx4Y4gCWMY8z8bPAb3gA5p5O8ZdbmkAIz4njhmwje8icADGYMI8MceOHTxCIJz49eLDAEMax5+I+vrP1gAeXFmBe10n4gAY3q+p2EEYAPw9TDeZ9LABOOXDDA+OTmkAB4PMsD8LPV4QAc3tw6y4dZACDyNuTWs4dfWAGbOnP1zceOAdAP66OqKlPqqatok/PI6wjzsmsJSsla8/KKyKrp0/6STp9OUEv9bVRGIOkqbBXlFcwPT3xbedHUrCdkYL5WqOQpi6EiUfd9IF5jDAg11BCZERadYQEcfWRjijP2S62BXtVHKlQmme7B6HphBTTQl3VvJ++ThYTZlnF5MRu/Ve7SS736K1l3aEoTKJhsKIn4ueNC3+vl6t+dAzUtJXedzrQ+HGcYIWMI8sOvHLpFmb2WSTdpWN6NPhPc8alRTQsRYe5wqny3a/TrcWt3v7hK9tgu0kpzNWUtTFndP4Q1tNSq/JxpepP1An/FZc+KQSmEwj7sDcWmRkRSb2b0c5Xer12CS01PNrn6uFlisbi9PEtDjAweZbvh95odXWb07JuJ6VAsW/Ez9Ho+eDvi/c1I/928TL1/b/APwVL4dx+tNC9lyX/FfR1yPia+jx/O53w/uZkf8Au3k8U6//ADAfwVH4dx+tHsuSv4r6OuT8TP0eU/8AW63wcXUxI/8AdwHv2v8AzAfwVH4dy+tL3smVn/8AMf8AsqpPxL/R7cPxud8H7mZHrz22h7X/AJgNPsVH4dx+tKK6ZX0e2fRVh8TH0er53G+X9y8j/wB3APa/8wH8FR+HcvrSvsuVn/8AMf8Asqpz+Jj6PT87jfD+5eR6vm4YB7X/AJgP4Kj8O4/Wj2TKuq+OP+FVKPxMfR7z/wBbne7+5iS7vRjtsI8RY9n7Z7nXU3sV2U/+Jd4f70sfZmVpGmr44/4VXxn33bHWfJF2jXepm9Fnt5O8uUqpE0JyXmJJapeV1qWqBIUHzyJV6el2BRIlJPV4yIyZFCZGTSMjIYnMWC9r2Y7u6d8uFGooQW5Vu0lsU0/Kq6nbY4xtTRnLpPlahBK+Q5aVbijoT08Zek0+fRyzYTIoby1URsaZfFBdczw/9kjbiImo9mPaBUSmrUlu8c128FV8mg2J5nulZwWj9L1Ue+7B7t9t+6dImFzb5eWkLkaSYbVSRSpydlV9FNhFDDUFIKkKJVaUcTiLz2ShMzGs4pgGL4RU6u+yNVOWRrvyzNdyMT77rfrvXlU6enifi4z08bMWeUY2lW6zydcD7HSTcSfcsN7j6D4hLTlotznuLlhE5i4UAAAAAAAAAAAAAAAAAAAAAAAAAAAAAAAAAAAAAADrRQwQwl3nlC1hPJrWtw6xZkjQoKmrJrekpvqhI29Br9edzvD1tzu8WpqMRljUmrXbc5metjR+hDD3ZOfqzvH8Z9UEXejIjV6mTykzPORQ9A2E1g7B7Kcs0ct5blzDUS9oqSxenRNNu6d6ZWRh5u164kM5zvM97qQl0Rs4QRZqYZtNj3Zlgws8GmJWd6lkXDxGtRJJp4Ow8LC6Q/a+9Bybh4eOR+AW7v8Atav6PQXrtbic3J/dLhHKp/pFNojfwuU8Z9fdPsGi9oLh2e3p/wCrfyzI5P8A6pqe9m6GbJcnQs4mf1BxHeK3s86hoZOV38zumNTzr+Y9ul2T3js5SFgKqpinUitLcTtSregt0giVXNTCrIVUoJpFB6TfBCcBE1ju808ROHZrkqhm+lPLXljuzPTHRuyuyE8jScsFYajmbF5ri4S2aOHmsssfl9+ZMf8AGRQzc/3p6EYTvE8St+EGVdPsn0tb681P72vh/wCwg+fvzJvwkUNn/FNQvDrMPwgyr/CfS1vrx97Xq4fEMnjkw7u70b0dr1dXRvwsJizWCHfapKFkplJp2Sp2U+DqbQ1uagT2JqcXdKKJSqSZeZtNg527TsCkyninsdKRKXclmWn3VkPOn0QVsYuNpveVMSmvlBtuLt5+4tUS8QTe75PCNGU6rUVOtfjNinsmitJqWvaZgTezDtyH6KnOgaWXtcPacAJ6vU4mNwII7QQTTLLFjs/bAE9PAsHZeHAUAM8m59PE2+BgqgHcW5E1mJl5HAAeJeTE2l0doagRxdnizqcZm8mgCcPY6OljWtAEeJpvLM8z6yYAJ4mxjCdw48CwABpcGvZgRdRZZBbpALxH48XB0gdnV0Oa9/QAHW1z8GswJvSwAQbepzXn2dhgBj2tb4GOMvUYAYdDCM+hrCx6w0gl2TOlpet0YhyguE8sTd7N7NN31vLnTqhq6FvKi1yt3d7Q/uXXoar1Bs/PnEwjP4GqvmyufQ4aB2m4XRxvCZqih1itleyaXQ9K12OzRFazMZdv9TCb9LTjY3w1M2R2hHpTEEOroxQamlql77o6umbSMjI2m3NxjinqpqF9mknUJlq4ycqk/X3VVJW7ZUzsQxEbDhfiR+oxYlluNO8KSWytH87+wrJOq1HeWtGta5n1QrFS8wfd9PLajHPzcpfCt0DR19Zvdlkijp0qcp+SJjCOFGS0+XYO4eyqWtd8Bu9ehL51GTWtcsu2JBmYqGJXm/z05JoSxeqT8h4KbwL6ueWY3eND534rML1i/jPojty0vOTeqcvKS+rNahf8DoaJzfh9sI0PnbfesdYl/wDM+iO98HKlxJBV+xJnfAfumNFnrKPzvxGe/ZLl/CfSzeM4/BmpmfrCtPyJKnn4dJYsIOso/O/EY9kuX8J9LN4zkVN1F/eFZx/vbPt8rcg6yl878Rj2S5/wn0k3jHwcqV7UBWIy/wCSp1/gMOso/O/EY9kuX8J9LN4x8HqiL9gFcjPD9SZ4uv7IKFLBcRurrKro/Nqfk2HmlRuVSMbpZ/izHCZTVSVhKOcS5+V0eM9Iz8oRNaY+XCa2CUby6bq6H6FTT3tp8t5ulzSj7Lb/AIs3Fxn8k3kTcs8HOGcu2LY9Rsvcvk8tPuaEz3Uud8oPeTt/R8Z9RsxeW5lgbj0xdi0lVKdFV9SM7Jz6YpyWq0jLBRT1JPeSklrP6TUZOdGGxbA8Kx6Vq+0095QabmatVqgppUzI3TEL3Q8nesULYLv6OI2N2wTd7Se9vbRQl60ApGQXJrRKn7j0zoRxRxUpcRB7kNRIRnERn6P75lOSDTNshM6BtxHDWeMDq5axSek03Jvvde1ads1qtTi7bHZGBOlwv3tELfKa8HIj28cPuYmZs8rRgZ59+hv7fGfdVjMuMrC4AAAAAAAAAAAAAAAAAAAAAAAAAAAAAAAAAAAAAAA8Zb7786e2HaLuAvhoahaa3RVBTstSBlCR96uKjjgo63sERGURd067X5UjGXy/hn2pmC6UYR3akWnCDWtOLSg9D06T5L9XVDDZ5Hp3X34p+BGsxmZjX15mZnZyPVmZmb1zmNeY12+dTE2fEulvAd6Tr/7e7VX5sin55Wjnm7WYxPU1Rm50dI2vyJpYuz6BdLxLXcGccSJ+RACSyMjzafj68R4u/wC1q/o9Bdu3/k3yf3S4TypXcxXaJ/peSeHazIaL2gf/AOe3r/CfyzI5O/quZcbNkwfui9XtcBxLXfVQa0E8LyWYYf0mj3O4vbp/obWMjaw65UD8o6c7BeqqTVescHvTbfQlIw7QpJq1JbupLwflMZphM+ty49fFxNE+bkxHvtmH+hzzeI7BG3IsnN8WGHhDcmHtmH65OebxGbz9GrfsXuaTn7pK+LH/AKKrGRDkXtwqS/eaaeloV3pLnnT0kr5I3pLtCfj71kDIehgIiMsojb248RElVK9UYaml09w3qZ7z40al1p4Ym5jWk5rm4G4fopxnOJU02NPHDyGRm02ZgUKfkwNhF4eAdJUk2ERHi9j3v9RBp5AGYuY4yb4TYwzcEQCdw6GdPX0hqBGGDW4tNueDvEYAlnDAyye7DxkAHqabSwYbiYAIyZnw44twaZEAKjDMyy6HHjgfYKz3m8XeV1qCjQSi3Z3bGmz1VqzYpOlKufk5DJp5KXKe0LqkkbvdydMQTVuJI4ZizVvKglvfJevJpPjKH4yKvTDihJRpxKhaSbKn7icP3UTiYfO/aZ2hyU5/ZMPcbxYpn6MdPnU4bzTe7pShF6k5Cy5gM0sqnehcPSP7XOw5SktbnTV94O2Wl9OQosiKYvbbZAS4ClqWaTDuRR6bAfvaZTxEX6pScJd08SxYVrs3z/Lc6ywu8tKeeaC4426qb8pW70IJ6VZYruZMEc9KK0Q8X5xi+swafDsLyDo+pd6d0oy4lJ7tR16+VvbsIyknmwyo5ZtfDjKmeORcHmb8n/VHguFBpGfrucZgCGNaTidmT+xjmEAB+PxdXU0U1gMZmw+HY9hCsQOjp6/AxnssDQDmWbOJNM8CcWPF49VFv4VUp63LMery08RkqJWJrwGxK5N+4LU3F7B7KLSnO6kzVVtJKes7V5d0mFO2+7qfTx8YjWKEn0ecaWJxPHCmf8Ndzxis2klNNvKENdk2hu2Ki3r3ib8DvSvFylkWlLohxLbzF1U8Yuov9yNYo/spTLSfvL5PAjWhcyj+kB3i5/8AzDXEceD6sUjywHbWQf6Au/8AhSdKIRzJ/U83K/knh1pdOODyY1jM/AN7uDdCvO3sXDWYKtdnUvsrjrl8HGbDXk97cLZWL2R2Mqmk6bRtOtLyW8pq4ldVrFoQ/CCpJ6ri9LJ0nO1AUHfjTUdKUZeUkZRrISgJhEbTHDvaHiG/nO8U3BJz2Wfmp22beG2dMvUOruUrelLhrLuA0wzYAAAAAAH8yck5dQltSUUNCWmZWbI9HXlNfRKaltcj4wmWBkWfAAWFeahykrSbgLP1fdGwNsEKg9x9GyM4vpOjQdOyNPytzpRPIzn6TqCn04oEpTUlmCA/MZsy7xROe10n9mfaFVy7icuXa00qwqea2zzZn5UY7jcLWoR0uMUlA1PMOHTVqLculLp7vC0wYI9PUl4tXT1NPV0tbRZ1tJjGNIh1td7xPWctKlbcZrY7bI61vaSIK9Oe41X6PDlLuPJ1376uyvconolaK/vNib2TCPSVwcPM6cWP8DrknEyJkKTBEZKLjYnm0niM+1PKtbMV1eJUYOamoqMF5qhrml0wg/JcIxg4Gz5SxBUqqkelvwri1M2EGlq6WvB75BHBqaUTDaTev1xyLPM5a7u86hMv7SYZJ5LzTTltXDkO2KnsAAAAAAAAAAAAAAAAAAAAAAAAAAAAAAAAAAAAAAMbT6SfdbUprapZ60coz36693iVp+Fpfo1O29RIyjf0VVWCKJo7DMMp4lnaffXlSU4r4Ez2rXKjUc4Xl0KfVy6GufZofGYUpYkTTe3oImNZ4fXHU95hLUq1IeVTcvPYQ+25Z3Ul84psJpeppk3IugViexwe5vQeLS6sA6QVCy6TaXgPxjxd/wBrV/R6C7dv/JvbD+6XCeVR/SJ7RP8AS5TxcS+t6sHDRu0BR7Pb1/hP5Zkcn/1W+U2S7XQlhj0jidQvFPeJyqTQqJbTwjuc5eO0reVU1O1ZuJtprV1UFIIc5T9OzmjXNe0vDKI89PFPHBBJ0TVSAURnETe9E0zf2Z3AM537LU27c55ZJ+OVTPj0ytbNMT4sSwilfaKc0edbONHmr8hTywfm4KHyy3o+/wDGz/iznf8Amn/bXf6k+P7r5d9Dnq+uR+Qp5YPzcFD5Zb0fygOD8Ws7/wA0/wC2u/1I+6+XfQ56vrHuPbFtRsfs+oVXtvt9pHWomjFqrZutJ1D16nqqqfujUE+n6fUZ+FTrRXXVZsSXTssRkcbD7ruJ6hiuNVcyT9feGpq2tqVS647E9eiME4whE+/DsNludLydve08bWjunqAjeZdHkYMZM1QpqCii/Sm3qj5DUusbgRYPcz1m49Q/RI56DHllwI+jgeLjAEEx7i4sMjw6zNgAF1ETOg8nkbcABLenDq8HQ0/IEAdjPpLAmZO9bgBQ6z+OHHxcGmBUYOwZjmRl48gAa0i4Oz6GZMNwawD7ex5kzyNBAvJcoHlvzW+O8urWNw03U0duFqlSV1661u6cZV5UhQGafbiQnoWH3SIvuheTXE1pkIv7Se0Kn2fYbUwSZJ3qrJBNxgnNBptKnOmlG1b6b2rVtWUcKlq1U5lFRUe6+XjsM+tHSUtBSpJGR5ORS0tMkZSQkEyRkyTZOQkpEoJKQkpBNhJkgnwwwMhImsI3OHHlStUd6nxS9TN055optRtfGla7diXEiYqUlO6SJSrns8PDaVlVKTl1Pnk1UkpafTJyTnZFRkZ3Q88TJqVUIWT0lOyJn3Z4otMjJjGH3uk2+aE9S5XhX6WZrdcbIR093ofJAtNSXynB8ng4jAd5xPLaj2T3diuDbZLbtxuqqTcxS5S5GR26q42KU9bifa0+7ER+d08wzJpGTWkOuOyzOVbOF3WHV2nPTlg4QWhRjBSytJtOEW3Y1bCLijNODSyVYyrbx/3u+WX3n9VpcHteJdNPHhb4Xua9xYCgDcmGzIyaTuwAC48cOsndDugOIBpYPabOrx9AqCvxfj4cWOcZgCkRFk8uHla3Nov3b9ZU6p7PyltQmoOq9Rlk/Rj7s+63SWMm5t5FQt1KdlyxNynRtYz7TPH3KMXaOYO3PC5breKV4l902mvfQcdL0bqJH7P726801Ge2CfMrFoMtY3t6i/3Igej+zl4bSRJf3l8NSNaHzKP6QLeK/wD1h7iOc39tijh6w7ayD/QF3/wpOlEI5k/qeblfyTw6R+N+TGE3AyNpjdKs6lqzrk6DF3aop79I36SNmFy3/wCYNs5P/s8Wlb+5NMZ4mDgzPFLrM5129CnfyIk6YZOpbnL3Og9xjCGSAAAAAAAAChEbn4G5n1H5Cy5VL5FN/r1o6ddmgSqWtJBqxmCRz1NiZ7cr9a+4K36J3LQ7glacnlTSkThKVo27Zn6SXkU+6wyTK1Z6WkSMofdwxERMJo607JM7fb2GLK1b99klb3tTS8pWKRS6E04zxim0oNIijOOGKlUjKrG+GssMG55Ewze9nVn1CZ6c9Oe7zYbOo7ya167XwiaPSmnuVVQsf9nKZxXIX39HuIsl+LZclY0pq8FhUqT0Kd15junN1jaOEyT6dUSIyMzVKOb6IUTa44SZmOPu1rKqy3fHfqX7OpBvibcI+dNGMYPRBpQVrZMuVb869BS6oeBcRkNiKzagAAAAAAAAAAAAAAAAAAAAAAAAAAAAAAAAAAAAAAwy/pNNXRTN9ds1Akf6HTlqKtq9pf5Y1vAnqHHGG3o6Q/y/SP2a8L8+a3uSkdZ8qJwlXF4DGOMnE3HFjeHR64n+jFX9rl6CO6Kc1OaGuHMU8D4Mye0sz6G+IV1HkkunF5NfgXWDtBUPFubWdpkZ+uPV3/a1v0OguXb/AMm+T+6XBuVM38ortEZ+F5JLxmZdHgGjZ+s7Or1/hTfLMlk63NU65eg2TbMC7PAQ4mgpZWpCdlYoHn+5W5TbvZieTUi8N97N2vVFWXOeSpG5dy6JodUUpUoYftyRkakVEaLUgaf1xQmXkHvDblf7zO56crmVigoNuPEreY+C84xJdJnLM4PRr8T6T50e/wB2KF/rnbUP/qItB9+w+37AzH83X/2D8Ra+17rtXOPx/diuW83aj/8AURaDH92wfYGY/m6/+xfiH2vddq5z7Bba8dqb1IU9UlnbkUDdempVTmUieqO29TU1WlPS6vJScgoTqIoL1OKiykGqEmqEv3oO8RwwmTWNIfNUw6phsm7PK5Y7Ypu1qMHatsHBqKjCKMlcbxLeKUVw2bD7F3W94uLPIzDqHx0J0lBiWMtRvUamCBrTLobwz8TDH6K8ZzqcPE/xeDIgBDMetjOOOeTjABz8D45uy6mACTPIuJZvY5jCyDlA6OjA3F0OZxADrxw9shQoQ0s3YYkZkbPAZ4ipUqMZCZsN3aXgzd5BbnvKpVlcX7p9KjwtPUVNd91afyn2nbxYevtzV6KAsXbKRKfqyvqik0hKa6VRZRhKVQrqhgRplGpadMTigPjx7GqGRLv9oTuCae3UtHm1NMYaC7glwnr11MlZFdPKjZP7VNt9vtpFkKIsZbSUPTp2jUwpfUU5hnpWqKgOGEqgqleiIiKJUWlUjiiNpsM2NYRDg7EL97RO533OJatWm2LfcWgnW4XHqILWuG09MtNjcPqjFUZW3vN6z7arcqsIbDEX1Qq01eLPcp8NhWnU3rNZ503KbebcbqbJ1xZK6UhDP0pXKXqp8WsRQ+doqqXe9AVQgxHHEUKmiKsJTcibS91CWThlMPxCbCZ5ZpXbLxabU2tDhoVulNLVFGPxC69fauHPxmtb3H2Ar3a7e24dibkyZ6VT0DUU2ka06w4ZVZSDIlKn6rkCiIoiTazTFGXnE8jIjIdz4BjNHPV39vkmThKtvdWinoaho0ogzG7hPQruZ6Ivps1nw9jug8MW5sw4EXaMtTvCq3h3GHm+DueEtN7t3Ur86HiKbcMGMJnk6ycYu9J5ILNrTJjc3P7MgYJ9knEzqIsXgAb/AF/GRPdgAOZl7ljSLHBjMuPUFFpXmrH83oF1/c5uUvu/R3at1Ke5g+qiMMtKvrJXGpsiaTC9HztO1m3Bn+B5+EQ32y3aWvkHemUZpK0jXE+sUvQ2u6bpkCpC8TLRGwzwTxi6vYHJ8/7GXkJTk/eHyeBGtD5lZ/8AiA7xm/OHuG1nD4WqJZdA7h7OP6Eu3+HL0ohHMX9UTcr+SeHomsJns5tLqJ427/Tzx4ugxMn77L76XwGzC5b38wbZ5/s5Wk6f8EUscMZ4/rK8e/fyETtg37pLyeI9xDWzJAAAAAAAABQaURFFmWPhZ5B4otVaMHocRTqb3k6zy7u62zUXu92/3DsLXMEGml1mjnoJqyRQzU3S9Rp5eeU/VSd3j9yooqrDDERtabOkZHKOIPL2IquovdailCLUbUoxSacGnZohoZ8GIXfr3Hihwt42a1O89n66sBdavrOXJTfRFa27qKcpmoUosPPE5v28nZqSYspf24nzn93yEyO9cqYrQzRlpTSvylLLDTrhMtUmmBA+J3SpgL9idicY83HNpjtP2G2TcPXm1a+Nu75271z0qloZa9IGlPKVqumyP0dUNJz5kwyTVlMKYlCPiMNjuFfeTCpsEhGCff0r3Utq1PesdqgfbhFdYDKr9NY5oc/wtuw2UW32+tC7l7O0Be+2qkc7RVf09Jr8h7pkynzLYIVFDUI2frmiqklMSc9CwvdEzB44bzBh1bJ96muFWWDUz16Vqm0z6Y7bGmouBOdwvUtexcXDR3T76RkZGWbvKPjlUtGT2h6WunhsPoqSOZQKwvFAAAAAAAAAAAAAAAAAAAAAAAAAAAAAAAAAAADB5+kp/wA+W1h/9lShC/8AfFff2R0//l+khQvMPnH8mQijPNS2XlMeAsSPocTS6WsJ4m6ML/Mtr8Bp10/ZR4/Aim/InOfh67MewezwSbXu6uk8W+rMAVM+o/8AcmQ9Xf8AbVv0OguXb/yT2Q/unvrlcqckmcw3aDNz8elLaeteykU9hZziiRpyaRG9w0fPsX2eXpK1ulMu/PAyOT/6qqe9m6DZRtZCT+JeAhw896g4txl4cpO1F78phY/SYJ6Uj3O7f0yI/tqWsbNzGroO+tUK5qGE8+JDpzsKdxn6z2tRbmmatm0bkqWjkZGGdqk1CpGV2RXT4jGxZl3i6WkbCe1xP8YnLq63o86NF3r7t+SQUL3G7DB7OzrDq6/o86K719a/9pm4fRrVKR1dlt2EWCc0dVRlNzNWz87JZlLT9qbLmRmRlh645S7aMMeGY1vyJdTNSlScfdR3mtLehkqZJvrvV33Zn5ajzWbOJGQYuraZTCSsVIrTelIoqImTiurTus6XT0tNk55RnlB5kRkUEJt6CEQulL7Mp9cPCbnV8maLNT8fhzYWZudxcP0UOdR0NyyZ9VhNDjBJP4dDsD7WGKAETScfWebTz6RUAyzdjn4cesAVzzyJzTZgZG4FzgoOeZ5tJ54sNpMwAAnvIjaRMIzzPDMAc2mZGTCIiw45ZmWY90rpLX/+w1y296zaug8SPybNDMv36N/tLk0ihLkbx6nT2LNXqk3ay1ETvtej6cjhOsltPcz9W6p+0upEHLnbPmuvi94WGU/Nl02LU1CHky6WnrZJ+SblJUe/NBQt7sOUypDZn64gmWi3bMb66qlcDm5jReShYivnHCHuvZ6/rijSpSxWgqqe44kn3TLgXaLE9JXlW6OHIVU1sNZi4/SMtpWhUdsqE3gUynFGv26U5W3V0Jh7Zi3NQxx/BCdUGEzuINexFCWZ+mzbgJu7Fs1XnCbw8Oq2yz2KxR87X5M2pyw0aXFvVoGdbjTptVJbdGvk4+JmHWTXkXqMmva/EdWT3WW7yy4ktM6j31Db4CL5n5NuhFPrZxbkZkXW0vXHnjPZLGMa53t9h5gBgZt8heFzT6QKHEseJkbnvYTQKlTAyZ6jNzH9JD1Mt281m9Pk9BWj5Nym22l4fkP6mpp8ziwpG/31Eu9F1H8TVaeuIs7U6am7Pqk2yeT/AH0psORJ0r2/R3l3/wCyw2DMX1x9X/2Rx3P+yXdJkk/eHyeBGtC5lX9IFvGaz+cPcT/O1SZ5R3F2cf0Hdv8ADl6UQlmL+p5uV/JPD0TWQ9ZljiTSNhubgNvX7afudBiZf31e+l8BswuW9/MH2ef7OVpP80UscL54/rK8e/fyETtg37pLyeI9xDWzJAAAAAAAABShKEiYWfXxHzpq7wp+54coUm646zmxzjHqtTdRb0ukqplExd/pB+xA66oqW3oW6SC1Kwt1oyyFeXQkmlEp25giYhVWyJ5qVFRG4ycZREwnPnDsezhVuGNS4A35M9mrWo+g46W/OWzUaPmXBZMUkd+XuZeiC9JbNmow5nkzwlnxLMsWmOoqdSXC8a6x+6UPi90jCVPFaruK9zHm72zaZEnIM37fEpdnU2m3FW9XTtpeZblde3evOGUMtSl2oiMtSCGNkURJlzSYcJEcJ9+EmmRCDu2TJ1PFd7FaUsZ5VGEXF62vO5WoS2uyxNm55QxmevUUrdkYd6H5qM3phF3j4s9Xa0cvty1Y3bUl4iU56jUim1FUXQAAAAAAAAAAAAAAAAAAAAAAAAAAAAAAAAAAAYSX0lRN7m8OyqxpkzSnNuKMkG9htp66t1lQ/ARjp3sErS/Z+IQcX1tL5M/hIyz1I009sPAY5DSMomPf1dT+kTW4zX+5vX+t+SaLdbJIPTEpYM4dhGXkH0aS2Ce9x9b88WMbxADHj1O8h4Y5gD+kmz8+lz8qqJc5MpaonT0nPSSpJa/ms2mzaef6nTyeo/sYpADIOtx9I33YUbb6WpurrX2ruZWCOmQ6MvcJbOqkGZWThLulP1fTlPKcRaTIfzPdaZ8WiCMxdgtyr4pLXu1RyyK1KWWCUXGxOt3NlliRvVPOjnkhpbVvDcLJ+4G/t1N0V1qqvPeSp46mrmqddmtrww+aJKbKJrTT0Onk9kPo1MRUvoEy4NgdDKuFSXSilLLKtCsUXp91Ptttt0mpYxjda8zRl09z1eQ+IN4YcWNY439YyR8QdieXZ2s4n6wA9s7JN+d99iVwFOtrOzaLPo1UaMpoVrQdUy87O0rVUpIFFAnnPpycqoqslqiNDEfo+dk3GRswaNSztkq6Zkp9XI4TQ02xThCKjPKowb1NNRTTTaM1l/H6uDabU3xaPgzHuHeFzz9zm6+16vaRNpCibL0rViaaVWmvSWstqtV1AlsihUqXhUFImJdOLcGocJxERGcJsaNOy92P0MPqKpVnmnmTinNq40paqUWoyxhGFmiMchiub58QUJF5MOHuE9JZF6ie5xt6OJlwEvGqkYdTeOGHFr3gAxuPDEiPq9bwBoA6zYfU7Hg7FgdAJ6sC6M/A5hgB2m4ie5jT6ABDuBNLF7MHNPhj1gA8n/VfizFoAqdGObcmNJ5EwXKDVKeeRabOHOJKHVX6WOneRsiOVAkIiLy5tpcnT5F5prWnklY2tL9WKhn5+o6hImcamUZkcI59nVHOldTa53H4K5SdcElTuUu38iLjo1kywAAAABb85n6KhLvL53gSNRd3zDRsXXStL4tKoqfkDqKkCzNnwpTpUbDkWpNWznd5ZFYqi+TyareUwuMybl0mm4n0Gtew8PlI2GfSXQO7LwutqSSLTb4CE3SVS+zLjbKefSfAj6OvgPZaIbw6Tya/PsNoAk2MPoxLx+UAOx3Hymb8G+IOkHIvsT8mD+3IfPef3NLj8Jef7k+Twl5/kEpEanzKLWTf/BU5Qd3FZpdNDqNNN63scIy7aK8tPKMkr076+VJ4zYez6m3e5nr/ALGZ/wAf18fVD5CHHmurHbKTDL+8Pk8RrRuZYf8A4gO8f/aIuK5/+NiiXaO5si/0PhX/AE7+UyEMxf1PN3fkniQ8MMmYfnssHGNt/wBPP3OgxC/fpffLwGy25bjPxBNnbMPxcrQ/5pJg4Yzv/Wdf37+Qic8E/cZT3ONbMsAAAAAAAAAAAB+NXkJGq1GWKaqNOkVenKiS59GW0VS0SnZVYSlCUnkxRkVGRiLuTyeqp0UUPdPEmuNjAp3nqJJZX5yj0x2PhYebL5c5qfFDn7hrjeZVspWNjO56q7bHpT8Ns6iM6ts2v6/eIlCh55Q7sUhPKMUMMXpKjf0pPmwu8RtJxkO28gZnu+YcnSYVL+0klUrVtkJlNb5MvFC21QeuBCmL4XUwm/TVXrfTZtmPBcpMTMhMS03JzmrKzMnrSUxoz0jr+aTcvOJ2M8nesNyoT+y4bUwpaZ0137ePpNdqVfZL9JOtCmT4aTYVcozffpb39skhrVUqaWre61JyVFXUlzPuzShEUJnT1ce5hhZDWSVC3Mzn5aYyIcSdouVquVsTmvkkilu9SaMsIWN2QS3poKFqsWmCSSJywi+yYrcZJY2qXohxSl24aaZ0AAAAAAAAAAAAAAAAAAAAAAAAAAAAAAAAAAAxNfpONvj1UrahdiXlCMpNWuLbpUmCe3UUpOnqio8ihczu+jVj1EJ+/wAv95mmumIStQlU1J/72Pegu+R/nyRJLbZ4PCYkrTP3w+mHIdF3WE18uWz9b8lkaU/2T4aymeDS49fEuomeAXwR4CLg3gzBoAnDwn2+LFodAILNhZ5fV8QAquwMu83PDD2icLNC54jQp9bWmtXFLos2NlimqdPTo7oY9jGN8eZcchcpOe/vqalqVvDQfbJ7PUVq8rulJr29Z9DiNxMxHrVAshjCN2TOGRdPWAKhm4iYRNMz9ROHy0rhe7o/Lcfg8XGys1alfXuw02a+Lk4iGNY33XQTms45PYPskd4nVlneHV07srVHv/l2nHg13rszLgQ88hQgmM4OdxdhkbGmABGXb5ejIGCcD4ta0+HrABg5z/D2ZG8w0gP6WYGRMPhn2ilgI7WeQiI8ekxUHYYWHEsOD2GzHgAOBliTODX5+PIu0Ubji7prRD+5EYjXcl9k3XogZ0n0fXcgmXV2X6Nm45vT1av251UroE7JEw5qZoesp9SrGi1yPvPPvRRqCSTMPNMcG8e9ruD9TmmevLZLMk+7Y/S2NcWkmTLl6c10lT1w8HEZAAjI2cAAAAAsO8/ncSkWZ2PqlqtLW0SrPcXUMpRabod77bl6Tp6cTaxuAtkRfYlAUukHk1bISN2R4T1+aqdaLSk8qzW7VB2waUW3rju6jXMzXh07lNDZw1GB6WD/ACeJ2A7ET3cV3Fo/9ESFLheN++tt6Y8NBT8nFzX9OThdPZ2PAwje52DfEKg62J+IjwyIyNmJmAHEzb4HdDMsfIAKjHsZnhwcR8RZn8q426f/AFFylCa5zR4zJO+jQ2/1VTc1fy6EegRS1DWVk6Qbj5urXBrpPMyImuaVq5jqEGdvt7mu+V6EkrUJq6XcW6+lLgzdezumneZuRmad9nH/AGPkIcwvzqn6JJ8v7d8niNaJzKf6QLeN/tC3Q/zsUe0x3JkX+h8K/wCnfymQhmH+p5uV/JPD5uhZ5cccTa4bd/p5+50GHX7/AC++XgNlDywahR6j5f20NSRZrRmpfQsXQlPzGt3oW+laQTvg3UEkxpGxIWE2Zh6yHDOeP6yrx0Od93yIdNhOuCWXCXhqLgY1oyoAAAAAAAAAAAHWNnvbsDwxxJws0Zesmbnt0CVKjUVNaGWVeePt4tvejY5Xtd1VOSKBWFgdCK41vah9yUfnihPp6fP0oZ9+Ei07kH9omyEzM4i4GJI7Hcw1rpnSbCf9E1B8UJJmn5rgnohHS1bYa9m7DZLzdOtWpPmt2rR4DANJpEbX+z9Qdl7ivNZXhaF4u50EK0Lr9o0XXdjjDhaj3Vy8N5lRbHdytJXdldSfnqFUjhpK69MaBOqG3agZRT0RNa1VRYiKcTy6OsajnfLNHON39llsqSyuDte69ThvSJwcHBu3QZTLmNz4fX6jY1zvR5rNkJRtYU5cClaerOjlaRX6Uq1ESqmp1bkoimktZR12T9Ips/IHDEZd3UhMoiI3k178OIE4qK0E76D9uAAAAAAAAAAAAAAAAAAAAAAAAAAAAAAAAAACzzzwrHal7OXfdqNOk9SeXLQqlO3qSYYWMIqNnZ9OrA2ZFDQNQLI3vsyxiTDs3UbxPZK/J8L1PVLDRrMLmCi61xmhpga+Fr2MdkftMawdruF7vkmIS+Y1/dhxdBBdGg6N9m3tTa4WlM+3ta7BrTxyHk9jA8OJFj14m1xigGBkzsfm8vEQrqA4+JnURev1gB6/S8sCIjIAQWBM62tJ3UTsQYDDZxIm44+J+YAYYtc0/C52DzACFr8uoi6DLwEDAYTvqm7InYACppk/HifFjTJ3gMUBwIsOjgx3iFegEYuwY8nGTujB7QB2TxzJre02kw82PMAddhF5HYswbhxC0Br2eEy4n4wA8BNzwb0va0AD9lvZxIhQFQnkZPc4zLjjw6RYvDmV/ldTRZ0cRYvEm5PtPYOx7eXcTY7finbz0McSlIOQrh0XqzHmaZWVJT0RRzyGoGbSNkRFOJ82ZGUjPuMjJpHic/ZDumbLgoTQn3Xqfc01JVp292wzuF4pLdko2NQ4/A+M2F+1Ld/YreZbiVuTY+r5ZckCKVl6gp+YZK1VRiwZtNBrBAMz9Fqhd15G7gbncRYtgmKYRP8ArpWotw8xxgrbVNNB6bHBvVEmi53+7V4Sp2w4/Ej1WZnnA3P65gwlCvNM92pY48vQj75qNKpbN4TnF0ws6WtFK1WrJNCmo948SVHCM9h5Z3S7t7H7OrcTdzb4VfK0+jaOjN6CMjwH51VVYq8JFFCg0igFFDEqKkTSYRNdi4ZjC8KxTE5oUpW3FRtk18bmUXxLuwPlvN9ue9Gq4dybwI17G+zedcHfNfldu/W2nEhoOloRoNtaJ0tcpuWoyk5GKKOSkomQwwqSoccRzqhNkRE03EO1uz3KNPLWHvfbi5VHuqLdk8y0vVBbEQ9i+Jq8StLXw2ch4tPvH3SJjWH0kREWTHGNiutzo1r/ADTt2adezlNZoyb74zhm1zGH0OJmQvl8eM+hhnizMOgBvTk7p6cSAAn4uPpxIvF4QBVcTieR4dOGThbmp+z4LSkm0yb0e7O3xnz3+R175KpdLaXRyGcT9HRsjqW62Z1bd1TktSVVL8XQm55Li7xH5xQtvjOi0AmMb7mqSX+vvDlDtqzBJimYZHTactGmpW9e84Rla3VCCSfJNHQTblq7ulc5I8NBkI/ZxdnkENzedU/RNjl/bvk8RrRuZZ/SA7xv9oi4uHTVqi3Mh3LkX+h8K/6d/KZCGYf6ofK/kniQia0yfhmXqewbfdKs1CXdrWRjwsMLeL3eKc0Wod7i4j2ntk5iG7/Z8hq9L2HvHO0nSyrqzk9q0mqIlJ1XS0qrGcMRzibI1ukrcSWpRnCTSknGwm8BqOYOz24ZpqdfUa6xaHCaKThFJqpI4PWtD1ozmFZgqUJVLNs4vVZ6wPnzczj8OFPOxZaC1HDL979owH4WZD/l3095+uPr+/l62c8v1Zy/Lx8zT8O1OfJBaf8Ak/eKfhXkP+XfT3j64ffu8+jzr6sfl4+Zpid9qc+SC0/Wf8X5YtD8K8h/y76e8/XD793nZzr6s4lz5uZw3+HCn2f6ILUHl0UAK/hZkT+XfT3n64ffy9bOeX6sn8vLzNcTvrT3yQWoZn/0f8Q/CrIf8u+nvP1x4+/GYdnPS9Qfl5eZr+HWnsv4oLUN6f4vnEH4VZD/AJd/3F5+uH34zD6PPS9Qj8vNzOPw4U8X/VDahnW34vzD8LMify76e8/XHv793rZzr6sn8vNzOPw4U+bS/BBaj+T4PwsyJ/Lvp7z9cPv5etnPL9WcT58PM0Z/DrThf9UNqD4f9Hx8R4q9leSL005MNsX/APIvH1y2F665xqOx2PueoeT9zHMV3h7wUNNpa+t5J2p6RTp2SntOkktDpOiUGaVoYojhnFKQohKRYlJQgOOJhThsLvGwbXgGUci5fXl4at+y3r7xqg17uaMHt8JjcTx+pWmiuG33Os8Q+F/R0GZMe4xtBhScGONuTDI2teZgDLa+j279fSEvM7H7kqxas+kaKtVtiJ7XceukE1RrC3ZNLvRRaXeNXkC70JHBFE1riHMvbFk2aa9PE5JbILfa1qyDfl+51uC8m12SpEoZMxqm7s7vM7dC5Y+98JllEzvN6CZ4BArnlpSqktKsN2ll3qnWaioLhdAAAAAAAAAAAAAAAAAAAAAAAAAAAAAAAA/H1LT6FWVOVBStQSEsqU9VKIr08uSWsw5WfSF+SiTlCSjMjIzgVU2dOE2HmLEtefDa1O8S+cpo91NNbTxWpdddplMtKcOc1ju7Xb7UW1fcfduwtRaetqaluqvnEhKVZj3J1DSCj+qVHVVETWwxLFLKUvNmWJHiO9ct4irzkGhiSdrpy7LH1ilacFCKcU1Cxpog7GKPUXybc1N8LTzV0Hw9rB42ExBHEmNyLDpxNzuAqUHF/jyNoIqGMflli3DDtAB7svA7IuIogQ7Pt9R8DzFbdQJJr+08cOzrPqFGB0swNmPBze0VBBZlxa1pt8RGYAnPg8s8m+z5RTUCCeXtngRmxhZsMVBL3eVuBk5uDGHwAEYeoyZxNpt45BpBJPY9rPBkz1dAAO8b2kZEzoJ4Ah2HHs8jnABgw3lgTsGY5vJoAlzGeEujyuYKawc3mbc3vY1nka8helmlxOTek87hyF2aWSvLsh3SSZnizFpl2Ne4fEqF+T6pPybNUp8k9CeXk7njPpFrLwXUshVsrXln7gVhberpUu7orNErc8gKhyTP0gpkmkZKiWz+450fNieF4Nmyi6CppqZQabna5Gm5Uz6cPxG9UZk97RxLxcReWtt9If37USl6SfVkNlrs6pkz0rWlAziBUBE1v1tuapo1EfhgIyxTsLpTzt3dunr8lLvQnrTS/FNrkzNeaDSjHvW/FjzlW4n0iPfxWKbqSFJSllrTapF3fStJUFPL9QdsNx6qrREy4NFjC+xCg5o3lupb7qCguSStLL8U+mtn6je5NynY48fhplmq7N6br32q2Zry8VxawuPV03CRaq1Vy3PL0zKyZEf2gmkTkxKLDzOSEn4XgmDZVpKjNIkpVCC30lyJOZf2mk4nf75e54yTWPil8KR8vdg/qzJjW5MNo++rXrV5lTlcIvi4isl2nmcZrOHKdo2uY9uBZNYxpdXSE9yrXGV1Y29zxs9bqoOLtfe8e06Z+p5txZ6wvotnYdjgzNnR05tAHX6e3A8ifhhiAIb7DCcbPaIwB+/tXbqqLtXFoa19FyMajVVf1dTlJU/JGfdLXVV+e9HyERxGZEwnj4cXvklK6XxTzKWnSpxbbgkt2LbbsSSUW24I+nDJOvvki0285s9rC2gprb/Zu2VmaPMzp22NEU3RMjqmRd5QKn5CFPn1ufMjJiksqJRTc8feMu+ZjgDEL9Pil5vFWpFzKdQ0WRdisSWhd+3Sye7jd+pukq4j7X9lH2eQfK/OqfolyX94fJ4jWjcyw/8AxAd4x/8AaIuN/nYpE0dyZF/ofCv+nfymQhmL+qG+P+6eHjImv6cT7PXG33mpLfl+pejhrgfBPervVTT8PiIM4TI8evpazI2tMh8lG7X6g/IfyfCz4qlWlLZKrNtviBF0t9TyGR629fP/ABEfV11x9HnmDvIbmvyeRPDrb18/8RFOuuXo88w7Ty8TG48Q629/P/ERXrrl6PPMCJmbeg8Q629fP/EQ665ejzzE+p3YXUHWXr5/4iPPX4ns55CPExnj45ZB1l6+f+IinX4ns+QGesb+D88ukOtvXz/xEeuuuPo88wYXHydYdbevn/iIddcvR55iMSJjyY/x8XtMXqOKz0U5XX1+h+QsdVToPb3wWLTJ/wD5XRjmbB8d5rVb7bLXsh6C/IOtouxLpKfRiWB5FxcRC4Ds5+Ij4N6D8YoVP11vq5q62Va0zcSi1qYp6taHqFIqWmFrRYcyi1FT88SinzxkZMwHyY3crvjeV69atKnCnNFO1ODatUUmmtKg0fVgU811xCWRaJnw2m1rhNxHwhhPxEPzu87EZpdSt5kT9K9y7yviRXH2nsAAAAAAAAAAAAAAAAAAAAAAAAAAAAAAADgxzODRapSqjShs8Y3vKgYw/wBIR2KzFzbepG8i2yQWrWFpEyNButIyBfbSzbqFhyFUmZRGUUdtlNsbDYZwng4xOHYznenl7EXLWilUjB6ouxy+ZM29Mys0b1qgadnHCJr7SjLq8H6S0wXfMNXFhn0u6Cb43DqW7Ka6XdzSaYR4aSI62/JbNp7hJkxnueom8cn9Q+C6YheZq7T0Q4vEeruutflauHhKR44cXG/qc/xD70UJ45t6MsTbgzECoc3LD2n54GGoB7S4F4D7MmeILAG+sXbljmWYAe21jjwY1htAoMSwxMja1na14FSGtIjcT3NyYx2WRACXsc5uefiLIUBBnxMnudhn08TFeQEl4WvLLg3tJodIIYbjwz6SYXVnmAOWROwwx9hooCGO4P4vf2sM2iukEdLnkfVx7S44gCcXZNInP7WFkGgEFiwiwaeHgPiHGAzo4MLA83uY82ACc2er13vADDyM6HsAA8uHt+IOkD1mEzEm+M/EAIIy6yfwIurJnkAEvLoewif2ZAA4/Dwxa/pIAQbMGPJ3DqYQA5k+I29Ts3Efrilfq8Pp7lPTw2xKXeb2a1cOk5GZG9rDcR4mT2PcT2j4rte77JN1iUU/e+IpeK01ayFnKZT30eDYlrqa8u74bkourpJKQapRViJZS7hxTC/FGabWVypAovrYYoYTSJB31pGx5CAe2HONLFq0t3oNOdq2zRKvJatlltbik7VBTQtgSNlPAZ7jMpptDaffg/Se0zAye0xz2rVHaSRNogUfs4v7HyELD01P0S3L+8Pk8RrReZZ/SA7xnf6xFxcWf42qPY9o7lyL/Q+Ff9O/lMhDMX9Tzd35J4aYxh44NefWWPExuRhiGPPDPws8gAnPAz4GftOzAEG/iT2li13Zi8ECcC8PWRmWbCMU0grtPLFhH2xeswV6AUoO603MdxyaTG5MC0HHLwkbPUWBeAAQXAywLtZk8sg5AGtzNnZkWeOLeAAOLp4+DpMmgATS8hZuPse4LASf1z/W9lzGhqsAJuL/AOyd7LiaAO7DgfB3Q5rham85d0rV0XX303ykbZT7IvVkPz41HQ+unyPoK4tnsAAAAAAAAAAAAAAAAAAAAAAAAAAAAAAACgcToOlrT7R4q2t09pbrPcqJn5xVTE9bTZ9JWJKTnkyfkZxKUpKflimZWfk1LvJ0/IzyfH7meT1XTiMjI/rixxYPdPfuUu/T0xT0a1bx8LNZ7vO5WpeUrGuHSYGfNu5WlR7L7gql17VpE6sbXa6VYvRerCbStTUU/Ez4D1CRsMks8afm3903NcOr+zDtFkzPC613L16lUUrIwhK5ktyVqWL2uEYRdjIrzBg0t2kbWnu8u16u/pLKGbiax+LGYcXME0VXQus3WeP8ppN1e5NDbw8BwfiWPrPPxt6RYBBMa5jWYEftMAEvbhh2ETPWAEF7T2nwI2cCADxkXTi95ngRvFQSWRdbX9mHWKMEYP7OLix4ETOoASzsy6OGeOIAY9RP68fGAGeberLxk7xgB09DyLHAvAZN8AAZdLiycbDxZ1eANfECuWbeBkw2ZP6cWgDrvdi31MafBpgCc8GMz6HHgWQAOPHDHDjjiAIN3R2GWHrGAJNxE7o8hEzNgoB1t6e0/GTXCvIDiT88WtYwuozx8IAnsJxesTXmXAAS/HF/haZHngFgIPLPrYw3PZwwAHZbxZ08DL6ooDrMdi4y445mZ4CsQSZNZ0s6WE82nxMAVPbb0uePhqSzVL9LLU0RXQmeL3BVIcNCLnHLT5cVeb9Lo6cWpApUzYKi1SVmbo3CMzIjJsJFQ9IRQwxxT9aq0UZd+NhlATz4DVu0rtCuWT7nLIlGq1YotN6Frpz2Ju180Wo7PgWFS3yVbYrhpXcWs2FFvqBpC11FUzbmhUSQpWi6MRkhApinUvvFJoqSmFDBISOnDEcRlC7BvsjiK/X+rfK7mqPyp5otwS2QsgoWJExqWSirNSPoTSJrege292WOwuLykUPso/7HyELM2mp+ieJf275PEa0bmV/z/wDeWz5xFxf87FBo7lyL/Q+Ff9O/lMhDMX9Tzd35J4Ywwa1h8XtLwkxw3IwxOBcCw9gwBBuz7MHEXS0zAE5OJuLMDx8QAhh9LfE/p6zAEk02NxPryNzCYxpGAGRP4Yvb9XANYI7MsC6Ol2AFAeZPe3pa0syLPwAVGDSJnEnm4nvzAE+Fp4ZZE7g0g6APGeJE5zWHi8AdjhkXF+PHHPAAdbM39bXZOLEjyAFWHA+Di6WeLEWpvPXdK1fNuvvp/lI2zv2Xq4D8+NR0Prp8j6CuLZ7AAAAAAAAAAAAAAAAAAAAAAAAAAAAAAAAAAAPw9YUhTFwKaWaNrSnUqqqRqFNnEmoKeXJKTVEhaSlCA4J6RUk9QJkcERG1htImtxYy3cL7WulRTJ7sycU4qx8kHFbU1BniZKtJDTHhxGJnvq+jx1UnKCxcXY6pSq2kapTMxr2IrBWhlFJOaxshb2sFOM0qfTW/3GtNJhuMx0Rk3tfqYPRloXhJQl0xSlej/VTNPTY4qzzokeY9lWa/TuZaI6OE64u+Y2Nz7IXksivx01d+11fWzVzfDKVrS64hFNEf97TUUoyVCIuAnjD8duV9klq0b3LPRm0OWSMr5GlB27HqNJnwa9yPylb3PWPlhOIutjevHpeMpUp3evb7T5P+Gz5Zrne4vyeeXxnNsRNYwsMGN9sfN12A+nzVC3u4n6PPIQ08PVgwOuwH0+aoN3EvR55CDMs8Wsx6yI+kfV1VH+I+jZeji3o88gbCZNxZ0dr2FgHVUf4j6NlI4t6PPIGlxyfiKdTR/iPo2I4t6PPIS0vU0nOLtDqqH8R9GxHFfR55A/gfFrfCfWPm67AfT5qha3cT9HnlJfhx6mHxyIsA67AfS5qg3cS9HnkOLS6DZi4+rLg0fV1VH+I+jZdji3o88hLSz8bWZkKdVR/iPo2I4t6PPIGm93Xn6iMfN1uA+nzVC1u4n6PPIS08PYJ/Fp8CDrcB9LmqDdxP0eeQhsJuLxv8XWPp6qh/EfRsuxxb0eeQNh6/CXUZB1VD+I+jY3sV9HnkD2deZM9thmwfN12A+nzVC1u4l6PPIS0zyd1k7Hre8OuwH0+aoN3E/R55AZxNcWB5sP2zaHXYD6fNUG7ifo88hDTb5cC6PF5A67AfT5qg3cS9HnkBGZMa/qPieWREHW4D6XNUG7ifo88gaZMY7iXVxc0OuwH0+aoV3MT9HnkBt9fImn19BGHXYD6fNUKbuJ+jzyEtMnkWeJ5M7DzDrsB9PmqDdxL0eeQ4tI3n4fFgxo+mS6ULsnC8/RvxsrKsTnei39A/d29tncq66/LUra63lYXDqWbfootE0uuVQqzBE1p+j01K+xGKvuKXW6KapVvSlpSyttuRpJJRbbagktLb0H0S3LE5rUtL/M8ZkG7IPo+F3biqCbXW8Ka1rTUEUBxFbBD1pGbulUZd2M4PSSnCUSVRLTgYyAo4nk57RC+de2uS6UHSwiZTywaioOVPQo71G2OxPurSb3gGVZ7jUU71NR5vz2ZeVp7QW5sfQtPW0tXRyDQVC0zJQSCZTiHLFLSeh3T0T77D70c+pKhmfns3NGc7OmZxRGZm0ucr3jFfNdSe8X2M1SZxb5NOhSwlWpaFFtxbcxIq/UyKXQfahZKgAUTxi6i8pBR/Zy93wluX94fJ4DWhcyn+kB3itw/GHuJwP/CxSyYO2sg/0Bd/8KTplIRzL/U83K/knhkm4PZjnji8+gbtx6zDEsaxpP4mTW9HjAEZlxYzwdLsAAxeTS8GGGDG+0HKCW+LoNr+PSEAQ/rc1uRn0Nb0gAWLSPIm8Mmk15ioJY3qyzyf5PCKaAMXmbW8OtxP6uAAO6sOvNmGBgUGOOJNzPE8n8Q4tRUMe83eN+XFzQAJhtZ1lgbD4k8ACLxF2+VxCgKhYHkZsbm57ekhbm8+Xulavm3V/nT/ACkbZ37IvVkPz41HQ+unyPoK4tnsAAAAAAAAAAAAAAAAAAAAAAAAAAAAAAAAAAA4k8mtd1Apk9AgpSO7wMIQ0WFd9H5xZQ0peT5lJW0hMWUubb57IKsjIqaXrkf/AB9PnyODUhc1jO0eKFO8Urevi/ew6Ilua73eeyHO/GfGotqW2HWi7+ttxsTqxs/33XtHbs4jyx+DLR9M1+q07Jq86hylmfDbrM7Jbe74yPxTNrXzabAfI/bv72Bc+0cT+cq/DZ79luOzp8Zy/FK2t/NosD8j9uvvZD7SxL5yr8Nj2W5ej0+M4ntM2sfNosB8j1u/vYFv22v8/U5/GefZ7ls+V4x+KZtY+bRYD5Hrd/ewHttf5+fnHs9y2fK8Y/FM2sfNosB8j1uun/JjpD22v8/Pz+Mez3PZ8rxj8Uzax82iwHyPW66P8mMg9tr/AD8/P4x7Pc9i+N4yPxTNrXzabAfI/bv72Bc+0cT+cq/7Rnr2W47OnxnP8Ura182iwLsP3n7dfeyKfaWJfOVfhsey3L0enxnH8Uzax82iwHyPW6+9gePba/z8/P4zz7PctnyvGPxTNq/zaLAfI9br72A9tr/Pz8/jHs9z2fK8Zy/FK2t/NpsD8j9uvvZFz7SxLR1lX4bPXsty9Hp8Zx/FM2tfNpsB8j9u+z/BgPtHE/nKvw2PZbls6fGPxTNq/wA2iwHyPW7+9gW/ba/z9TnPPs9y2fK8Y/FM2sfNosB8j9u/vYD22v8APz8/jHs9z2fK8Zy/FJ2tfNosB8j1ufvZ6Bc+0sS+cq/DZ69luXo9PjOH4pm1n5tFgPket1964faOKfOVf9ox7LcdnT4yfxTNrPzaLAfI/br71w+0cT+cq/DY9luOzp8Zy/FK2tfNosD0/vP25+9kU+0sS+cq/DY9luXo9PjH4pO1r5tFgfket197Ir9pYl85V+Gx7LcvR6fGcfxTNrXzaLAdfxP266P8mGh9o4n85V+Gx7LcdnT4zl+Kdtb+bVYb5Hbefe0K/aOJ/OVP9p+Up7JcvRXxvGPxSdrXzaLAcf4HrdY/uZFPtLEvnKvw2V9luXo9PjH4qe1vLbXYT5IaC6v8WxaWKz1FBV5+corncZbEunxn1qnKVp+kEvRR6Vp9CppL0H6KXTqTIoKXouYTJFNh09IjLoIx81eavVjM7xD9CP8AYXpZbilBKxe+ifqzI2PN/UQ8UZZ6cjddxfe6D2p5YnIjNjzfkbPC4XG96X9Tp4bSjSejQcx7KAAUTxi6i8pBR/ZS93wluX94fJ4DWg8yQj/KBbxf9oS55te/7qlJw7ayD/QF3/wpOmUhHMn9Tzcr+SeGs3szfg5nW8vIN2MMSbnOM8i4cG9LwQBYuwd7LO08RTUB4MTb6mszFbAH9TTe/rweAOwzxdOPWXFoA6zOtuWWDMWG3MASZ9GbsDLrAEYMyJzG4k3ysaGkE5eEyweR49IAZuxyxN+bSyMgA7MC9Z5MYw28AQBdeZZcTLrx6AKA+n2cOgCpULA8ciLHqwc94tTedL3StXzbr76f5SNs79l6uA/PjUdD66fI+gri2ewAAAAAAAAAAAAAAAAAAAAAAAAAAAAAAAKPeIi72Xr+AWoqhIqesU5lWlii19zI+Y5bvl82zlVZXk9OsLtVzBO6FtbbaMxHAazNyXeNQXF+eOJqXRaMUbY4zYb2Fn3dvyVkm84/eXVkspprecVHU4KM61Wtws0JN6MNiuO08Hfled3fVm5DCk3C8z/fLuWWlNUrW/1dU6hTjfeKDtotT1vqATpI3nInT9NMNTaz9mZ+fnx1FgWQstYfOp5JZZakNKVSPHb1jb16WRRieZqtdQ8XqraeRvjmu5+Fa5PZW1VtPrYqjdquC5fkl3W39L6xjLtilVWwi9ejxchz+OW7rWfGhcnHH4bVU3/92fiK3fL7vqTmcOHvkea2M78HBcP0Tj8ct3SP+FG5Lmt+7WquBv8A12MXa+AULkoTTdPrM80cWmlhFeVw4gV5buH/ABpXI6Pu1qon/wDrdo+ZXfDLkrbg7f8AXz8XGyn2niK1fI8Q+OW7hn/ClcjBn7dar7f2XFJcKw3FFF3CxP5+f1kV+08S2W/oeIn45buMP99G5Jkf+W1VO4/svxH1T5apXO24tvv8XpTs8rFmtXR6o+OW7f4UrkMJ5/drVfZ+y+QtLBnWUL491Lu/JmRdWMJeck+HvR8c13D/AI0Lkk3/AC2qp3B3pbAW/sOlt6fWPH2jU2dHiHxzXdLG6NyDIsfu2qprP/WxucKfYlHb0+sPtGps6PER8c13Gvulcg2vZ8NarIuDW+l2sJovTYVSraH0+MuvFalJWKHe8QO8l3croXIx/wAdqr8X6rgsApS+e3z+sfLNjtVu1dHqj45btv8A30bkuYw/htVeDWG70t1CxdLjlm/PyaTT9/W8aL1fFfmYR4bZSPjlu65t0rkmWX3a1Zl/6Xa8X6uXsGpuNORqH51TwzHmhj2I0rJZVBe89U5HeS7pOO6VyHuL7tarabGnkrOf4Bb+zsLltlkcffT+MXbMOLTqNSTnk8EvCBPxy3b/AAo3IZg34a1Y7D/lfgPDwynOoU6T+G/Cz1WxW8VJYzqE3c9Uj45LvM/hRuS7/LaqvD+u/AUWE4Vdn5UX3Z/We0tS4vb5SUO56pHxyXcaTbo3JIsf261WZMfkSvxF+TAsvX3yqjcUv9bxbJkfTJeleFot4cQ+Oa7md0bkYm74bVVh0/quLf2JS29PrFr7RqbOjxArzXd/ChcnB/3bVVxLD9VsQ+xKO3p9YfaNTZ0eIj44ru4fGrcc/wD+7VX0f8se2H2HS29PrD7RqbOjxHI7zXcZ/Chcjh+3aquP/OzvCKfYlHb0+sPtGps6PEcfjiu9+FW45dB1vVePBvpYxX7Epben1h9oz7OjxHL45ruY/Ghcjp+7aq+LH/quRuD7Epben1iv2jU2dHiI+Oa7n4Ubkvaz7tqr/wD5ZjhT7Epben1in2jU2dHiJ+Oa7n4ULk4nhW1VZcP1WyFfsSlt6fWH2jU2dHiHxzXc/CjcjrKtqrd/+rYB9iUtvT6w+0amzo8Q+OW7v4ULk/u1qrxMVw+xKO3p9YfaNTZ0eIfHLd1zbo3J4/t2qrBuf6rOYH2JR1Pp9YfaNTZ0eIfHNd3K6Nyf3a1X5fSwfYlLb0+sPtGps6PECvLdzO6VyHOI/htVfYX67kK1MKpu/S7I8ez3x5rYnW6uKVvc8Rkc/Ruq1rKrNwW4XSqurqjqfT0LNpGtL6VQ1FO1BFAZ1vIe7hOIjIjIjMuJiCu37DaMt2orbNKtfG9vFwRIeRMQqTTNQhyQ8XGZjR/XH1F/uRzfP+xlJCk/eHyeA1oHMn/pAt4z/wDWEuf/AJ1qPWY7i7OP6Eu3+HL0ohHMX9Tzcr+SeHMiNvE2u9tnAbmYYjjliTvsevDgAJfwwfwc0smudiAD8Cyxxx7HvaAKhm3Pj1m1hcHPFm6yXC8v9SvKj+dZ34CaWglGj52y3wgmZmbia3Hwk8Xa7xC6/uzs/R4tsS39oX672UvN/R4tqYOIzz8Tcjw6BSpcZI/q5ubxsvXejhknlNaVojP3dZHAiJrccu1zOIv3a739eVJN5OjRL4Slevh0jgpY92YrkxpmTXu73Vhkxo+RVL3W85Wfoltbrgm4IoEZ4NbkReUzMmNcYvq7yrzy4rjRr+WnF8j8Zwawjz9c3duI86ShDDdm43ZHj5eIqCqTWd5nBnDh14i1e5He7yqa0rT3k+I81v8AmJ1I+Gguf7IOU/uY33UorXAoLUoWgrbpSrOU/oVdclUXpWVqKok16jJUgnU0lrasoQwFjEZlC1zWmRHH+dO1GjlymsKUZrxLDyVphHTbTahGNu9bCw2LDMpzX1RWvX3NHno8tbrdpN59md0Zm016ESSkVaJKlKgpxcRJyJUpas6dIzS5FZQJ6IiigjgiLuxFERREZGRsMjGey5mylm3dmpQmUHzL3klsdK1QMZjeDTXJ3ZtQSc3Nu7JmbP8AhP8ART4d7yDhiZKSRJaEmT3X00ly+A7Y8nsAAAAAAAAAAAAAAAAAAAAAAAAAAAAAAACh7koegm8ev1h81STrb1LHV/aeFu3em9i4cZriubZfhbv3v/3GK6pN6uoj20rZXs5SUg37VRaetbPqNFGaeRMNqzVScoq47b7KMMo4bgdKrMmp5pE3GMU5knNG1629RD2c55r5O91+64bC2uw+DGmziRjf5vsaReT/AHzVJVRc3l6O6dhsRZMbm0ns4tzIfLOsKqNw0fplxXmhSUIdPiPYe0fYRuZ3r1BqJFkbe6k8hSuvKaC/cmoWoFAU73SM4vP6vg91EqGX9xyXnygNYzTnSllikozSyzTaE9M0IaFuTtwim4JwTi7D7MHwP2qeD0Lw/pIyaNu30bmw9MyEqqbkbpVtdWo/NoYpim6G1zt9RJRxd6LuRxQd6qVImERd6CJGeeDnwDjHbHiF6nUtGEjjbvKWbbZCWmoamplNN71xJEu2S6Lpx0d/1+Y9Ylsz5GFqIySVVN2iI89o/wBzXEvvJKimZ4tP4b3RjjIyLgwhrk+de0G8pN157f8AUUH0UjY/sq5Nx3eeb1j9an8t7k7bgZaY0aFtTYKsNFhm2zlz4oWMIy/i3r6HhmweqfaD2h4f5t4mhx0KEqSs20uco8LuK0y883rHgrcP9GytBUcjNqe2a8FX25XISjOXpe5xw1rRk1h3IdNeTkxFq2nHGwzM1p5YMN2xZe7a77gNXcxBdY4+5Usuyz9lMttu8losNev2SqMlPekg4Lbyf6x9BjLbqdku5HZhU+nTV9rdT1Oys5MTcvTFbSRen6AqlxRFCgr6cyOE/dEfmZl6RfgOgMDzT9/KW9cJlvyqLg04WJwcZacLCOsSwTqKjUtkOHpPjtPJLH9eT/Lk/wBobVuVof2HyddQ9HnY44ve/szweQbtbZ0Dr6Ho87Btwc95MZ05nw6x6u12qpbzfR4zzfLzRmms0d3i4j6HbK2Fx7z1kkW8tTRVQ3BrRc1veU1AphMnlRT14cWxRO9FJZfsjOGbmDE4vfqlxkdWrPLJRllbbmcqSSUW23YkoWtn04ddKN4W22zTrhx2mShtZ+jdVwu6KVUW7y6+lQD4fOLbWjOSX18oYu+RmoXAUYYqVTFWA4SNkpILULD+uJghPM3+YKSWSajhNDdqOV7szmio6rJqEXqirLNDN9w/JEtGZTz2r+zZULocvyuOTltslU+RumgWz0Fh5Gp3+vuoy6opNcXviaqV6h0u0jLKRIRc+0DtGzBM6l0kmmk0+RTozWcnVN2GzfZGH3ZKRq3jcy/vM/ZpG0zkhXGi06fpWmNmNTzWsX6FJUTdWljVXtMn01XkKqZmwea+eO0e5zx3aia206C6aR9KpYVeJISLnn8Z8fvX9Ho2NXCl5jVtdFciw6tFB3pf4L1PO1rT/fKHvGSkhXHjXVaMjJjO4syTyxyGZwvtkz3c2lX3XSShZ1Cb0Wx6ppxtsS/Lir7lS7XryqasfG/DOukxy96XJm3Z7QJVYrCSTNO99oE5kxrV3byXnym0eTZAZqFfW/eqU/BCWoTYoTUE+EzYbxM+UO1bL2a6klKZblWo4KVufeitKgqUqcIRsei1wNMxjKktzlc0qg1r7357LRhNPiTuDWEeDfAJTvFHCpZFPI7H7/iNRpyezzNNWrhxnFhFift5tL2AUlfZ0Hvr6Ho87Bs8mB4uPA2PIiDdr7OgdfQ9HnY9g3NPi1jHvZ1huV9nQOvoejzsdXqeWRPJhBuVuEB19D0edkF4X8WY4uJpuDcrcIDr6Ho87JdiTWm/g1hm3MNyvs6B19D0edkuxx6T8JY5vDcr8IDr6Ho87OUBE08ncczxJrSzDcr8IDrqHo87OHQTiy48C8YblbhAr11D0edkkRGb2Hwx8JsMiDdr7Ogp19D0edkMJhYlxzceOeHjDdrbOgdfQ9HnZLCM39HjbiRteG7X2dA6+h6POzkbWGWLcfH1NeYtT3et9oSuOh8WwrXr0XL4bdpkx/Rlf5xW4siMmnZtIY7/AC4TniC+3+71Zbvd4v3a2bHxkg5ErUWpklbyvjMzo8T6vYHM0/7KXkJEl/eHyeA1ofMr/n/7ysP5w9w/AdWKHEmYDuLs4/oO7f4cvSiEcxWZnm5X8lnhpmLGZO8hdQ3PvmGGBYk1jsHONjDADDj1vP2CeGkH9FNTVBZn5ZMS5OZU1RSnZOQkktK0PO5tRnFH9b5FPT3cBQaS/ntC+j7bmb1SiXVu4BXi230VN/7yiTiWVQXf1yMooiiKnmkk0UyKFjJqdiiJuAhPNfbTl+4SbuFSueZ6054Ll36LsfFvchvGC5MqyPequyPF4Jy95TnJS5WO3Cn4FS8cGpVhFCZ/Cm/95DpWV75YskKZVrZUmTCL8wbyEQ1O07M2Lzua6VF1LsSlpyN/GpdzzfGbqsvXSnKt6W3lm9bwn7aS238iqf0/RSdJbFFDVLCX0bt26m1PEmt7tdnETR8LzJm+6Tb00065aNNLnpxKUsLwCZ7ql56vjOncTkW8tq7yDpT1F0NUFt9Sb0C15SprQXJX5zQmsjOCQrNUrek4yIjczT7R99z7Tc13GeE1VTU0/QpJ6tap7ur0SlXAcvze4t5asPlRLFu7X6PhuNsxIqdW7dKj/GKpKUKI9emIkr4KXTlShx8wkSOJGrb3URGRGZGZYYGJay7203LE5lLXXVKMIzzJKyEbeqS26WmaPjGT57rJvSPvW2fDfEWAFRIU6fUp5FW0+fSFhNnpuQVEpVkp9IVU5YTm+kZFQTlIvSyapvE0XWo8UoqeSxP8j1wNKVzr0p93UnxeM/ivwzcebM8eGBD6D0GEzrPDg12RGYdAK3dImZZMcfHjiLl0UMyT3fUpf/xpl2aXqa63dLh4OU2GnJHIi5YW2PAmy12dbUdjEd9LlYkxziLwDhbtWlqXrtGr0m/1SqTWWapFDY9KJmyjWlqXRKXzoeLxlm36Txp6fw12fxETNTUpe88Jtbh6atufUJb/AMvc83s9WrU1Tzrml2cpqvaC5aUt3cuhufpkMvYoiKKGPob4SIvXHOVO8KtWdKXRLHhoJHS3+qevdfQdsXz2AAAAAAAAAAAAAAAAAAAAAAAAAAAAAAAB1zgaRFkRH5T7R4lakrx2/kKU/wBVRcr0pM1k/MHo5Yt9vk3b0osaeroTOluAuir6LSacwkVjVajWtPTxxcVql6il5sdzdnVSTHsHpqdbtTcTatssTh7nQQHmSSajiE1RaI9+08dtx6+GWGDxs9W4q811fJnZLDhpXQfHXvjX6lOx2cLC9vyluU8r726g+N+7+mpU7tgpBVYTWSq/dOo5LvFPUqgz5xQRJ1LpEXuZ+ahacRuc8yiPtN7T6eE0Hh93amrbrXJvKCmmTpuKTWhTReiKSbW2Zeyq7zCvPxPvQ/P09wyLd8/Mm20cri3KBYyz1FU6uXRk6dldChLJUrHJU+gUYj92KCQWqvNkPouBpEZSv6fn8SZiILypkbEM43qWrjKctFzafJi7dSknkW69MVphZpib3ieJ3TCKTcjthsm4tqmMPbc/zCd3m71Vn9W8l36h1Ka1naVuKW1p+lLbIpERsI6OTS9FKhPZ53OnPT7x1Zl/IWG5do72EqVV3Kk5lK4tKFjc9SZta1bZqIrxXM96v87koKzV5vJrkR45TkdXVffIEpLVFPV0zP3/ANFyU/NmWDSafXkNnrXujc7PardH7N+JmGlumI03Fy6OOTxkyKgroCrpKCYoKiCsJ0wevoTsjMTyUqp025vhOIUoUaGK2e0/Rv8AIfSrziUksIWfo+IvYbJ+edul25qqbTN7lxY3J2fNmhP6NTqkM3dZHlPc/b1I1gw1VULuwM80WvdMwMmiJs59jWX75d3VwmZ/bymbglUUbIw8usqcHpcIPj1G0YLmtYfOpZ9D73yH4jMIpCtNr/MX25GqpGlTV5LJXDkDT1mnlvRaUlNu9IIa+nGxVpypkhrIoT7sUJ9BlEOZ8Vp5nyTfHJc5YYzI7ITU4Qjpe9v03BamnBqOwk253ylj1NTJwXd8UrMLnmp8rapNh1cHWtDaivWG2ytFOHRphfnoim1ai6hiaRUPWCg1vvcRwn6NnOvNpF1Z2ZdoFzzjdW77Nu36WVRVrcVY35Mkqg3GH5CJ81ZcqXa8dfJtb1a+WZ6NZZ2dg3DxMLBvQRiSaDqVL1NJel/yz0Po0WmEmhe7tLRdkOHEendpW1S6e8m86FZm1KdoxzikcKtUVRqzqfoykpI4YJ2qagInxRRxGUMJE0zNhE0zIa/mTFrjgWC1MVvUyVeWWzztMYJWKZRdiVlrcNJW44RVzNfVWhYnDStUE/dSbDOKoO2WyjkpbYVmqFdR0U09TQk5eqLhqclIzN07yVb3C9HoaEnwxH74cWp+t6PJskJAjwcZjj/7exvtVxp3GeWNCWZKSM0qUHrcJKTbirI2wcFDym5mlqyZdw+WjO7UuPV8LZbaYv8AvQ5327Pcyoq9OWuqOf26WfI44tCnaDUp2UuCsyhnGZfDC4UMJKpRFDGZeaIvmMiZYmZjoXLHZNd8Fry3nHUq264xhutbYdXWmg9TateuJH2K51qYnJ1Ui08a9RFm7X11NcUtSZ19SfWlhS1/ONeY19efVVVRm3FgxhOEqTV8BuMnVYdP1PcqT6IenE1ildL3eXvwtfvfGhPpaol6ncU0ufTNTXf7xPSU/K4cepg83ypdLzXU2EXjfX+HNLqXpw4zzWw293edTJWJ/m8XGz2ztW5km8DaEqyGraq7q7P0hJkzWtTXmvO1VbZQJveIvg+pe6pojMnzaN5jPHmQ1DNeTsCxylvY3RU9fc3d6M6mhs8iZWJ2w0R0mdwzM9fDZVJOrFDZxL0Xq6DNP5cfNMs9v+pzURJaDSt1fOnJApirrVT08Xe15QmQ/CqgVA31LTBnhETWZkwmnyznjIl97Pb77FdF1lwhFN7iflJTNQc87sjpUOREnYLmSji6grJ3y2/FRbF5unJcQamQan3ObQ6U00itU7Rml25Nm6elj9FV3KlpwxqFU0CnQnFCm16cL/NofcT+DjJ8gdlna1Ur1VlzFZv+UtUrguNyp7lGLcU7d5JrStuDzTl6a+Rnl18PSRiBPJvS95Fjg3A2tJ46WpUqeITqrTezb4YET3tzUrwm7IPogUSxL2eg8xfvMyp0+r1qHgPsvz6+6p6HY+gp59OXqPoPgBYGWLjeReEz8QAg+nod7XBwryAlhkTCb2M44dYawQZM8DMm5+JhACce3yE3pweAIN/tNabyJhngbgAa5uTOjAsWYACXscfrkXsm0wsBD2k/s6if4ABzJndLoa1jMu8zPHgPnqf+QXL/AHUWqnmsyXvoy385Dcd/oVSmM/0ip4gz/MF+7Xf/ABJfkzEjZC8590zQWuIuiL1xzKnUqKWeVWRJIll3aLjsZrQuZS7mAbxeH4w9xej/AAsUTLibjHcOQZql57P7vSl1UpFq1NPiIPzNXmV8m449J4cYb3nm/oJmfYNz62psMX7JT29PjJPr4Mdi3o4GHWVNg9kp7enxn6uiKNqq5NY09QVDICnVlY1ctpCBS9PJeh50qrSxPz/o5Pkk/I2CxVxK74DhdS/X6ZSbkrdsYLlaUyXLCwph92nrVVh8PPcO/bt8JnL8vTli2S5cttfj8v8AKNKqd7EinZtdr25NQ6kmVK2iSoveop9Eo/VLUhhg0dMu8UarEXfjyc6Pj7OufMRzdik1xwtb1GMFbKm4w1zySQWpp6dbg4EtYHgkmUaLvtRtKZW6dmiyaePHYi0pv3+kB3OuCqK1tNlmrrWzt5CcSfMXfnkyIq+rU4jMinqPTlI4SopMIjzL0615EWAkvJ/Y1dcNnVTOv62+TJPdtSTdrh1FZp6YeVpSTgrY69jefZppHLTVsfDx0zHdrS4VdXJX5mqri1lVldVYo65a87UNXVGu1WvqJFD+yKipKq2rYEYnOhgWEYfRlpTz9Rh8sqUq3Z5rNSUJnMoWf2GkdZe8Zqb0LG+LX8E/gzNPrkhLaM5NpCpKyuuZloz87JT8pJm/FmJNF6jid0uScta8b8uzq5lyaEylbBr3dnvwsXvdnvmfdLB7qNx22Fd0ajsTeCubbzMvMeca6UiKZfBRaNrjqCjVNlJVKb8ZyQyGs4xg2Xcy2VqSqxet1IR2wjLbbp1H1XbGrzcPJatTVtnF+azLi5ZnPBpXc0rIVj9zUmg20vcpnKyFJVcma5SlA3Omu6TCgx+BNSrETftI8jaRk4j5xzz2Y37BLvNe6UscGTjplWqNkarqODtg+ODtgSRhWa6eKXlU24d/1FwR6a5mvKctXvjpVVryiZNIoLcujpf3O15oQRSsvWJJsMcUjS1wCfFqwnGRQwqpEajIGbjMnFhuz3P95yre1RnX/wBG7Hosb1x6ueeCjatOzRAy2YcIV9u+8rXDkjzowMLhW+rK1dbVVbq4lOztK1zRi3NoVT0+pmRzScrSBNhihN7YTI3McOy8JvOG49dlUus6mU0iaa3oQaimm91NQgyFrxcJ7va1Zw4z8SZtY7F3U93jHq71bxglZ7ng1/CLFGo5HB6GQ8sGET2t6eDXsMxcn36d2csvnQPdOWkq6jaoraZ1fIX3M2lrbZJbuw8lVqPL3XszM3FS6qoueU5CXXphIXrk1FWabVKanFHDHP05qJdSEZRFDERd0yN5k3jPtQwPF6mI1rzRlblr1JbFuuDlW7ojoaSg7NjthGX8r4jd6VGWRvQuPph/YWdfpD+5S1l6b62atrbipkesJmy9I11oVqtU8pyCqgS9Q3BnUyH4JxKKZHEXpRJTKM72TCiYZNI2yn2NYXiGD4Teevl3U5qc1u7GDlmtai2nxO1a4M13OclyvmMU61Jxcsq1TW6LdXLr2GbxBCyCCMif3Sb0uIvIOZ1IneK29omcvMiRqE80lwl3dUq6TuD0fQAAAAAAAAAAAAAAAAAAAAAAAAAAAAAAABSxYXFren6gsyTKtT61anYeKkz31T1MxkOePyuKyv8Aaujux2809rVHdKnqelki59BphGa9WdN0+cJpy3SEiUBQKFUopxshhN5wlm9k0dl2eZ8GrK61XBTzbsrcIeU7FHcmt0wi0nYloNNzdglN0FWSilDbs99xmL9s52t1Vuy3N2929JsE8jxrlSQFWynr6RFN0ZSVPmShV6zPp6rERelkhNMiImvMyIdAZkzB9i5cq3j8x7Itt2JRlai291LW2iN8Ow5XvFZKcPdLhpRnWbxb+215XOxzUnaCptNTNCjElKtZYehoThOTn6xnpOeOndNQaTTgSoZCZVp8yh+tgN7TIcjZbw689oeYpqFRx3nvTOENC0JRp6pYaYwi9NpM2LXynlzDJakumEOV2W6JrHHkfIa+5ZW7m3+unMrKtr1Fcu7d1quZraxfdBVVV1dUM6TE9OTWEXpNYU5/zNPkx2zgn2dlTAnVxWRS9XJKklvJJSqCSVPeSWiFlnIQfRpXvFakaz8mNti8EDMH5e3IbtNaZER7i7wadSLw3amtGTnoreTEx57ayhJooYDOR0yhiZWqlCeo/vMRPcmRQm0ohypm/tXv9+xepRy7M5acreqXQrXDraSa2W27NTJUy/lm63eRTVVx69vFPw5jIdpOj6WotDlqboul0OkUFPgMpJEphGkEBJlYTf8AaSenQaabB3uBF1iJ3ea17e8q8Zn+b4/AbhNdrk3aueb8h8bvhtQ267l0WYSb6WboK5GnrShysM8uIkp8J0yFxtQKuTTgqqnI+8WMnOwxMdxb912xK84dMpuvjBegoan5rWnjsfHAsO4XGabRbHbN4zDA5p/KFVNmcExeWx06r1zt2Kel9FZ0J4/PKptXMT2pFBISS9F3YPSdEKsRd2UVTfpRmyLGE4unuzDtKuOOz+zpN47GEbVvLQ2l1akS0aYNN2RVpF2Y8o+zp1JeFvv9J535U2/hf2Rbh0eJcV57Vsbcmfkqbu7TsRfakrKk30bcmQY/0jR8JnDETSM4TMsxn+0PJlfHqXWUJU8bmtVq1JWWzqnBqx2Wyto+XAManwdKRu3Rw8mYz571Wgt9uTtHVtorjpktUVA3HQJxHVJc4mn5rP6RHILCFPQ/WKiQpFLzkhNkbCMiNhjjvC699wLFJL3cHClLPFrydGiDjvPmcNWhEtVbvTxe5OeZe554RXo7DWs7o9ulZbVtwV0bAVjpa00sUBU82kyKlERwy1RU2ol6Ro2q5AoiI4Ilml1CXmzIyIyMd1ZXzBJnfBKV3u1l5llUddqtemWSWK0NJuDIHxVLDcQmpLRHmsjtM5vlRbKad2E7TJZXrqUl0O6Feokncy+dQrfdlfQMqnJ0+pp1Jz0/EbE9Jtwk6kULTZ3TKJrnlyH2k5oveZ8zU7pdnG6Kbcs3YNqC3owl2NLY42wZMuB4TSwC5TVNali9OjXZGYw8+ZdvoqrfVuHXaxKbn5az1IzE6h2bpAzM5ZPp6M+98LFBPN/wlrEj86niwhhIiJxEOp8mZYwjKWWKV9lW9fKkm9NN5ai27bN6aWxWKyO6km27XFeZsxT4nfHdpHCVTQ/J5qPdnKo5MihuykEq/u4Ul2lrCRG2j6WTPtKqLqafeIooo4mGVNUMz6yAvrjc4mnDpWfu0+fBJZrtgDVS87kdSg9FqqU3ZHUnFwcIK02HAMt0Jp1NMrLNuzimMxOy22SwW3FI00Gxtn6CtjIQS0MvHr0zT0lKKiiULT7y+vxQx1RUeoZRPmZ2dnIjzNxDlu/Yzjuaa81fEajp1HBvzJk+SWVSSpvZKlF6bSRaWGXS7SpSy883jZ9QrCh6IuOh6lN17R9N1vTk4X2zTlYU8j1QgzZl9jPyCsmqqaZlk0mD57teL3c6fW4TXmbTs3IyR/ScH30XVdLpeZXFRXK/GY4vMY5Cdua+p1durstp3QtvctP0Zmf17Owxww0BWUfd1Djk6RhjibQ9RxHBD3TIzQzONhwkUJmc4dnnbNjV2n6jHpFPSjBPepyKVNaW5KNtuzoi1qWL5Yu0zjItMdvL6RiTW7uFc3bzdZBuDRSmr0Fcy2FT+/yWqf2qqo1RU9P+jFKQUk1T+uI/0moyc8OnL1cMPzLlqrheIy72IOR65la7dErll0eTpg9JGGGXurgdVQ0px1eKY2POxLdlTW9HbDby+iDpy6eqqujEg11Tug0/grXiCZJ9WoZtIzOQ98PzuQMzNshMy5taY4MzRg82GYjWwm6zbtaWeCcE7FCbQ5noTh5zjp4iccAxKXFaCbtm3eeFmqXSYjvPX2LSO26+snfy3aLpJtpNwagskqScjCUMrS12mxKK7JMaZwp1Yl+qsk6H3cMTCIh0j2NZwq41dpqdaaM0ksNCVisTgpVpg1HW02klAjXOGDyXSop5dbs5vznwZYXM3EZvNrHdJn7ImWT/AJi+OXUrebuGpyTRobuxLpOPQfWePA3k0yF88HYbxbwMi4+HMAddzcvU9/T4xS2AGbeJNLgTGdmQrxAh7TdxYfXg8AS8iewnuJhMxw9TAAwYxp8cTFNII6mt7WMJzDdl1CoJPrLDFueGXBoAE3Munx9b/aAHKHIug8O3rePnqf8AkFy/3UWqmh9wyX/oyn84zcdx+JVJ/wA+U3pzEGf5gf3Wh79PvSzEi5C85/pGZ61scEfQb+ppDmaW8SK6dc/NXjgSfTi6LT0mBDzdtgm5Kh94157todqa6uHam8NXzteotZUTSygvS0tN1hEc8o0rUMMgUMaaoI6vCfdiYyInk4yHWXZPm67T5eluCml6yRJ7qcZlKrE4bsUrFa+QiTH8NVS9uaZWc23aWoC2+34/AheFmX72tdsJv/oovaEn/btP0Xz+qav9l19vR4zl+L9fcv4k7uvf/BrXOOP96izMU+3afovn9UfZdfb0eMyqOQLy+p63tPq28i8NIqKNXy7NqdIWhQ6nk1GUnadpLvknVfVZJ8/ETFGs4iKVkm979DIyMjI3c3dtWcquJ337GuTgt2WOjYm1bImo8uiGpkjZWwanOliLt3Xx6fhcT1HjXn6cwNZuhdue2c2wW9XRtdaNRKG7GulRRRfDO55G0kKfKJsMKXbVrzIiP08ULcCZufYplTDcvXOXHsZl3nVkc0rjMoKZqENyaZ22Npy6Uo6DH5wzMr0nh1Ozddvh0yrksejkLdvLf5blyOYDX89paM3OUPZWjZmQhuVdDVTziP3Rl9y1Hp0LfSNcLDWxROIiLpG553z7dcs3fdovrcRmUJFbK9VttOaWEqtcbFywRruXMGpYxPGZRt4/WlM4LbJy8dou0pJkZW0Fm6X0ahTZcj1rl1PIydVXKUp3/jc9WKpD6WkO/wB18pJHJSLMISMcjZjzlmbM1fezHN1d1l82Cpw0qFlOSWZwaVrjrhpZK9DArrh1NQlcP0uneZ7XUUqTVZGZT1SVlp5Nm9GKWnZOd0Cmpeele6yKGcI4TIyY97SGDpTXy6VJasteLlg15CXPbqPqd2ut4laaimtr8aLNm9fkm7WN0yIsLlt6Xp3b7eM+/rptW0GjyaTSyzO+5hKSr6j039SlTTPOblCk1BsX1zCYcmZa7Wsw5a3aUq6y6paG6amjFR8rqpnCFkGpptk2ow18y1dqrbS08vrowdb9WHuhthu7Vlm7sourSlw6FVPeJ7RMmSqjKE00+q6fUGNUqZWUo/O0+bPAx1lhWP3LP2HzSTqOBuyMZtLjFWS06mldx2aiIcRu0+W74pltfNq0zGbHyTuYCq7wbEqduLoLfpW+tizRkpcU9bvHNVvQk/8AtPriIiNnpSKD7UXWMIoya145M7Tcp0MExOae7ywwWeazTp1aZ5qmrXZHTpJdy3jf2ndZY6Ul4vRR5j5/PL9jupRqVu1s9Sc6qXNoYpWk7oJdOphzaxWtDKERSCCt9wyYoKNEqkcJwk1pwng5p5rsizPe7pepLtXmtmju+bak7ZV5LcUnFcUYQUp8eY8Hp0qLqSqC7uuH5xiYfi/X4Y34k7uu+tL4ta5zeZ/rUOofvBSrQ307eX1SMZbrL1jlcNPDWQW3+/Wdj7uETv4uq6bm/wDWkn4Cy8Ykuvnpw7vglYq4HVTin0esTDYC/BYWUu71fFrXRPPP9ac3g8bwa9Qlr025rFpqLolRcu1G8XaKU3yfynoPbRy89025G6FMUEgWcuRTaFOL0nLVPXtU0gu0/StG08f6fWp6oFJKOKOOPIiIzPAhhMdznhGFXa905YSb0iSi5ozTbkVLKppHvTO2EqtZ9uC5Xv8Aer1LWrOMHH3PFB2Tmy5gI4Shhb9aTGs6OA4UpVfaKtZyvyYyw5+QmqjIrvQlkm1LhtOyPqPYAAAAAAAAAAAAAAAAAAAAAAAAAAAAAAAAAAB8SkLL2lQ7lKN40W29FJd3VxDmaaW7iSFLoiVWi/T/AJ9JKMSau1DIJhK6mmmpJ2gbIooiJx9IuK91JsHmpxhR8O/osS5YOOiKgz1cqTp0Wlt4a4GJB9JSvLOL+4myVjJSchNGt5baar1T0Sh7sXwguCuKScUJxETy+DVH6JlwaY6S7A8Omo3Gpepkt6Z2PXupxSdup7zXLxsi3Ol8VOZrlXg2PVA6H0cra+i3EvjczcnVCfpKEvYtMSqZoMnmcVc3BhM1NbhwI46PpVNYXQuNyFe3DHHLNJdlZv2NwikklZo0tpJcTb1Fvs/wx0qbmasdvfdmszVyLHpHMN3Ttn1MlRwU3EVBfAAHz6v6Epa51F1Zb2uEqVX6QrSnlamamRZ6HvSijTy/IxSClIHkzUgJmTOsfRdb1Nht/kvlNrrFNFRUVZDTxPQ9GmKZavFLeu00dEH4zWK7n7Lzm3TcReWyE/ra09qWvuJVtJSU4ZGUSzTifP8A3PrsRGw+8spZy850DurKV/8AtjAaN/g0nIrHpVi0wSt2w16yDcXuzkvs0LbXHhEz2eTxeabvfy8dv1QK82U7UNIok9a1ciIiZCdvVpRptBd+fpaQTzbxN4487SsBkwrtDrT01BTeW9Vs9NTN+c9bt290l/KVXrLjux0JdHiZ9ovJy/NoG4O8lJ35u7Z1NrS61FHTulT1UTFTVwkwy5UctztRU/Ao09TtVI1K1J6GV4jiIp6RnTa760hg7lnTEcMuc9O7z7sksLISuMXtmpzPybWtWpxSgXHcd+9vlT4Wnl7niXqnbLcvC7miiTscgtXcU6bs5JTRM9zJ1fOTylWUHdIjNqtQSCsSr2fXF0DauyXCliWbLqmoqE81vFI9rWhtPbGDPhzNelLc5lqXNY+IwkNkm36PdTutsVYQzmCTLgV9JytT68mZQzcvQyBJKFRV/OJxmZF3o6Ep/XIuJ9Y6szRi8uWspYpSdrdKmlqi3NLKl5s0I7yUeMivBLo71e4y22qPftelGzIptBQqMQkOlaaTJFCpenkpJp+mkaR0vNZNHR0CSgTU5DT5Fhd1OSEyRZCTerB3C2iwnY/ZAAAAAwZPpDG2BJtFukpW+dKpeklpG5FFV1GoD7rO9c2gJ1MT15QZ3o4i9MJSijzTTY2KE2ERMHUnYhmOS9ZHveG2KeStLZGLg55pk4bqgnBpRfuWRfnjDnTlU0fJcOGnjPRv0Z288/o17uP286urqaiSt0hTt40LROHvHKzdHrqbRlZEwyIiJYT6vRD7Bg+3O6uq8OvzspxrS91qlDXxPVy6j6shzqlLuK2PBMydtxG2Oym62gDtZf2htC4VE+mZSpoKc11qq0AtCo5Dz8k9RlV+ilZBWk+LShnpgmlqE0onk1ggjB8QxXAJ/aLhWXW6nuyLWnomUy08LTesQw2leVB2x5fGeHT5GvK5hce2IyJzf36NwmBdV2RtFftb7TVIqd1rWL8y6f3qJiqGV7vGLb4fpFf8hjyt/mwR/LZuFy/62B934qZ8/mH0F2+pH3cwXZzz+sPyGPK2+a/E/wD6bNwv8rAfipn3+YfQXb6kfdzBfR55/WH5DHlb/Ngi+WzcL/KwH4qZ8/mH0F2+pH3bwXZzz+sPyGPK3+bBH8tm4X+VgPxUz7/MPoLt9SPu5gno88/rD8hjyt/mwR/LZuF/lYYH4qZ8/mH0F2+pH3cwX0eef1h+Qx5W/wA2CP5bNwv8rAfipnz+YfQXb6kfdvBfR55/WH5DHlb/ADYI/ls3C/ysdAfipnz+YfQXb6kfdvBfR55/WH5DDlbfNgj+WzcL/KwH4qZ9/mH0F3+pH3bwXZzz+sPyGPK3+bBH8tm4X+VgPxUz5/MPoLt9SPu3gmznn9YfkMeVv82CP5bNwv8AKx0B+KmfP5h9BdvqR93MF9Hnn9Y4fkMeV0f1u2GL5atw3VndsfJR7X+0iTyXW3ZfeXV//hKV8sXWbW+f1j0Xtv5e+0XZ7UVQ1btztQdvKiq1FkkCoJ74dXKqwlNJTp05/TkNSTreul6CFmofeIyImGRZNI9fxvM+a8w23ytG1P8AZ0bHqacsksHqioGSw/BqV3UFp7sPlM91jBmQAAAAAPi99rk6VmrJ3cuzMaOnNaVsLX11cLXl9ZxTBUdSqnURybn/AKISf2C7g91WK4xRkg92apKnDjgns754vk27cJ5np3X/AG+A1dCwr1BWtUrC+rzcyu1PVy5NK6rPa/6aW6iqCe9IqM9/zmsqqgO/aFB4Rl2m5/mueEfztUDnv9rizho3/EbKnYxtfRtoW2W09kUeUlNKdpynpSerad0IzIlu5FQESlX62RMOE4YlaKLzLD7SIiewcIZvxGbMGJzVm4yudpbFKtHuZbXFu3RGGpNzzcLj7OktaXDWz2f3nRRE7BnabBiq03U0o7IH31YpQK49FAAMZz6RptdTKzsDR+6VLTNDSq6zixJ0lVCp5ucURW5rKf7sTYmvJIqcy7v/ADieOAmzsLzJLheY613cd6ak3o2J6fJe1Q1aYvQanmq6OXDp5lw5ywvyU72T1luYfYw4JvU0ka606sWaqjQymZO4JH8H+JF93sgjTZ5vEodplzmxbLd5vjXmS9Zq9y+5p0OzQ2R9kC8uhiM8m1Jd+PEbEschk2gAAAAAAAAAAAAAAAAAAAAAAAAAAAAAAAAAAAAAAAAAAAAFCEmwlFwb4zHyzyuldOr4aYlKVTfl7pgK/SAJabLmO1jqzRt0VG2NsdZLNjSKW00WKCIs3wxwmQ7F7H9y75SlqyWNztd6aZPbrIez1JGq5locyLxv0ZxUSNTbPuGR2ES8n35lVBUa39KT9uKaTU4//vECf7BFPb8nd8Xppej0qmzZsi1lUowl9FLp8Rkvkbj4EXlMQnUfU3beWpI39ypu0qi+eAAOmcXfbFkcJ+IzIxj687vGG9arJo/3oFyVp04vRaa6vnQLaKtczTdTNo5lFLaVQ0MjkRO/VanrU25p1faTTP3NTp+uXSfgHc/ZxLUuXZhTvdRxqWPRqdVJLXoTho8ZBeZaikvs+7Yo+H8hk5fR3dCb0eXtFFNF7mcvlcWakSP/AImSfR0jBwY+Axz52v8A9fVo6eqp/wC5kJHyTM1cvK0Nc+kvzHEUUUUJHgxrseAiiaaiqTmdsq06e4bJTqxrzSmPH9JN0prW2MWx1NIiPTlN0NDTE4XGGC1N6Sb1EcReETF2Fzy0c4Ud/wA90asOTdf5DUM7rq7nNMtECwJyIZ9NTOZnZDTnzZqqaLdBJTDzKbhtTWhmXVFC0ugxMva/I62WsRnl1Kg+9UpGn5DmlrXmbf0xNg+OOyZAAAAADFc+k5T8jo252nJOoz0hrVrc+ekSL64pdPRaOj1DdkZREJw7Bbu5J8Sui0LqH/vuPwke5/rxppa7OeHhLe/0caQm9ffvVk5LmzTTtuNdaym3idc2oTYHt4k3gN+7aOrpZEut5n85VZkuVzqPxU9XOYnJFSaZuC1mdGxr2+Ichy07leH+p0r33hgStLLV90+ZHLulETDNrMnkztF/cr0ZfImiuRF1RkKPc/PeIeuqk+a+MWt667OkjuH+a8Xth1MnzXxhv3TZ0juH+a/tfbDqpPmvjDeumz5Q7n57xe2HVSfNfGG9dNnyh3Pz3i9sOpk+a+MN66bOknufnv7X2w6mT5r4w3rps6SO5+e8Xth1MnzXxhvXTZ0jufnvF7YdTJ818Yb102fKHc/PeL2xXqafzXxhvXTZ8odw/wA14vbFOpk+a+MN66bOkrQmRl7l5dZ+uPCr3a9ebNF8j/Iet6aa3Qzm9mLOxo8vdoaZ4dyPjDU3udJUH1AAAAAA8HcyZPUlTYJvCkktnnf4v10ZlhsI/NU+kVJQUM/zMJ+AZzJU0l1zBRc+qazlafLqiYzFKjkw6eGzwmuTtKppaRde2SuuOQk24dCqCp7+wz9Dp9WJijPl2juPGa3tOXaaWh0nzy9wg3DI1MUcPTT50bVk2YGPz8oU5qajN5x0I6ssrgSyHu9BdfEUm3bxGROw9WzW6zmLpQAC0zzsp+QTOWZuY9JF3dFQkrdSGjn9tqF16KIixLMbh2Y3epUzwpab8lQjxrccvSzC5janw2dQ1GEHy95ebm9+WzbTlPst0NjNcyf+lE+61NqKhmOs8/0pbj2f3nbNd5pe/wB8hzKks0uJuGmMtnfNnEOHCfQAAAAAAAAAAAAAAAAAAAAAAAAAAAAAAAAAAAAAAAAAAAADg0iLoMWKs6oSxWgJeVAxIfpLW3efjU7DbqUeU1NVNNLm7F1trY4qClWdvmYmwvSVQtHQfYtjl3oVp7tO11j8pLXbBWKDdkytehRW0jTtAw+pfaKmltShs1W7UW5OR1vbQ9pW6ScpC4Kvpo9pNwUuk0jUCrOmUml09XCfOxfF/VClGZRHDBEahrpLCZ7paI8mDd+1jKN6zLc5sVqL/mqcsZVGW2CXkx3pUowWrSlFwiYjKWM9XUUlTau8oLVKZ+jYYoTNjYTY5pk1njJg5BllnnqzXa8KNNaNFvet77JhkmkvEimTsKp9DmC+5aVOXRZ3R5WsjrDr5SsWtJ5b3Z7mre7QbF1xfe5Mzp6aNSaYZJqZCZSqpVVRz5HCgUognEfu1RaVC7pEw35OGay5gF7zHj9PC5PJurmUZrLJXCMItOMdFtvJEx2J36nhlzmmbthx+JmtDuRXtU3juXXNyap1NRXrS5da1FVq1q6BERa9Q1guKSgoEmJpExnpRR6iHdlww2ngmHU8BnsuMskLNit0JzTK387mIPvF4nxm/NSWxmh33p0Smx45dO3ud2u7MNvlmVrQ96qenKHllertGIi85l65rGeUK0rGQi900iSFiodeVLohHC2d8UeKYnUvErbkc7Uq/NWtWLS3M1xQJzuNx9nSWhpLwcZ7mNrIj491nhGCrS9bQ3dbS8B91SZypQLa3NY25T257Ypfi3qAnwqdaI6HLXEoTRhL7ZmKkt9PQ1KUgnsM+6pLSWnzKS3/APFDbOz/ABhYFj9GnM4KabddkY70Glom1pW8b0GNxi7v7Lnl0zQfc57TXz2Ku/U1gLyWzvTRx/dBbCtqdrNLl9Y2SqkSBOnCaeoGRuTFpvmagZPaO0MxYJQxbAPaGt6nUozRVqippYNR3k7YtRUGQjgF6mwfFpqk9iilHTofJNtibL3bvf63W5qztE3vtSrQLFJ1uiSajLl3u7Npqp3SJSpddhh7/o+pERSOKUn4YoW9+E2EzumOGMQwythNWajVSlqS2winFbdL404Rg00T1Tkut9W9Tce49Dg+I9B96E4CZC0m4NMmZYniMRJWo13ut+V3T1Op7uvIUVw5SnpQxMPvwMy+uI+B5dQpTmrKR+1ux8n90U69aebylZ3Clra+jL6UevMRaenLaWl77q62qZkREx5mbSIiIvYFiardKceqUX3fCXKikmUZ9Br2+cvvTR95G7JSioVT0VG0dlkordUFNwxHHJVFO+eqChWVU6ZmUJlCsqZcCbIJmgZkTx2n2S5Xq5Pw/wBnmsvlaLnVjSdrhHenTgnpUI7IshfOmOyYvWlo0rVK+TRZ6KLwP0aXb9MotJX33MrWhDpQVlrotpaDI5iEz10ejzNfq+digKLvfoysoyDDYz3BiJ+3K/3abFKeU6Ljdm5aj06VImrGo6/ThZoNxyXc5qN1Tmss59O3aZWYhI3cAAAAAAAAAAAAAAAAAAAAAAAAAAAAPwFeUgiXAoesqFqOCHWp6uKYqGkF/QYRe/o9Rok+mKEDTNjY0+eMW7tMrjjFHGpH+zqSzrj3VDj1r0e+fNVirnNI/OcrNXde209VWIu5cizdaynmtTW1q+oqSVGG0pqaQJ8j8/TjLFLWiPzxPHfmGXyjmnLdLFab8tycdrdmtSaeSBA+J0Z7tfpqsLN6Pd5zPj5Rm9hC3h7VaPhn1XSm7vWiQqcoO66aRsm9eeT5Ik1AreKAyI/RdaJKf57CbTzaxzeN+03Ld9y9inVXe26TtvTLY3uuFs0zhFt6dbsgkTLgGYXi1JxsfCPuZddn9pdlN/eIy9y5nqxGk13Tu9F1JVb+XumflTlcYlQoO7n6vCPW5RkVigu6Uc7eok/FwFHPvPyJ4dw8xmVrRiAfSJd6aDUWtS+ye3yvpTurTC9JXHvUSWxsvUJEXwMpSJhQkURGozCuoE8+6RNNrR0J2R5UvmETLOc8sLzWl3UopxppOSL8ppRtUNzQk4xbI8zZjssl0dGXztHDyTw/yCNuc/ebfMkXInU/32idu1PTdxFbXihOOT+FyjIKdGW/TzYZMU4lGfmVd+BoeY3XtpxxYbhCuMf+fvHktQ9xYnbBy2yt6GmjXshYbPeby7xN5q5NXdWviM+IclkyAAAAAAAAAAAAAAAAAAAAAAAAAAAAAAAAAAAAAAAAAAAAAFLIiLBotJy3qlHV4u8eJ21UXGzzruS2/UFuiszX1jbjp/nVH18hxpOtrS/cNSRlaGP0ig1QnN7vdVqRVZGXnZE+8wo4Ca4mH92D4vVwG9Sz0nCaSZPnTa0TaYJxttSscCxiVxlvVC3zoPo5Ua4jdttNuts4vLUNorqpOrBMSpxa9H1ToS5woFeUlDF3JGqKQnoiI4NTTiI4YoTIooYiMjYZGO5cqZipdpdxmr0FCirGreNNRctJ6natJCN9uDwedTS2QdvCMxdq5enPcubtopxJs/uPSF281qkPRlJGnqpSSh+NWjqe97PThPV9Il6LrhLRSInwmUTISewmCK8z9kyzLiU9DC1u3lWvZM0rN7fqy6FC1Wwsg4QM/gmaZpEpHo/L7ywyIqM53HLXrZNOfi3E6VHTRkzWRawoG4yUupsTmxasPwVVkxvRDEfSIhr9mOfFZJRSl4p7vz/rV4Tf6GYaVSS3T3elS2nxa+n0grYla5LmStir1fuCqQoPtdFoqmF6lUuGJpEZKNWXGSUKA4O48jkpOeNrmDJYf2QZ8vbTmoxk9/d46V/rkuc+DEMz0aFqUHDj2e8fQYku+PmCX2341rLVHc9RgQqKp2Yno6EtdTMSjoUtScUccUURd/UMzqSpVmKI/PlacPuwwsKEmERDpDIfZ/dcGuTuqkSxTyXNNbFtWuP6yaVwt18lhHF/x2fF6LkWh+H9GXaXQ+R/yyFy9FxUDd5eGntSQs7blU01m2CIt6HurmVvJR92QqCEigj+4ijlNvcIyPvREziyPu1PPtbD6Ty1Ssvqio2ebrcOrgrE0mpnBwbjAz2SsCkc/WTKMLfDDzreHEZuznZM6xy9LL1su9OoxJQdVJwZzcwe1p3VoRXzijF3GeLPP6os1KMKqvXupVw5uIJqvK5NTME3nT8shc20XJXdyFo6c1NXbxctcNWW9BLb5raiuZ82T0kbdPT9G0OtqRwnIkxkMTSexo6o7I8/VMzU1g94mTckjhoTcsulwVOTijB6XxpEV5ywKW6NVpLG+XXyzO08O7CuZBfrYTVE7OW+1YKqtnUOvJzNaWjX5if9BLEWSgmqLDKh6nJrPOzJkRONpOG5ZzyJc8wU405YVknCaLjK3Y4RnSt1pxldkUzA4Li99wmdTVZoqNqhLtWyWYyx7Jc/nYTdBOl9W4VTVZYioTh/RkOvaSX1WVNpPJPX6JSlzSiM24mwiwHNuM9keK3Wq5rtLLUkW2aWWaMdjqOX4y5CTLlm273mn+sbt5eL8xH0+vOdzy1qER9We0twEdcz2k/Sp2iaFrxVVpk2MYXpFGRUiH/83OwDHLstzZmKopZKcipp6HPSS5p07OSFp91bN1xcr6vTDj8MiXegY33MK531z91aCs2gsglK1l7LK+jNyNQa81rlOXKuClFplpHIryiml6Momm4iI/SKVKnFqMiMu8w2DoLInZLl7LsktTMO9UnVqTc63WlbDqqr02q2NlisbTj3GczV5p25IKXueGTj4i3Rsi2WXZ3xXrQbVW1T9WWSNGYkp64Ve60u2n7d0k/0guKDWfqp/e+TNhT8/i4bpm3NVLL92nzWv2FdqWSWMHM5Zd1yyxlbi91u2VQUXGCbMBgGFO+3yWadxWnotsaNjbYqz1C7frSW8svbNK00ihrc03LU2iS5E2ZPun3lCcn42E1TWVQ5icnzZ7qemDNg4kxe/V8TvdS+13G9V54qxatKsSVigotLv6J0ku0lwuksslis8HG+4fcB8heAAAAAAAAAAAAAAAAAAAAAAAAAAAAChEyL3J+zwMWXSlnpO7t7OmPC0tTxmqKXUYxHPa5Zi1eOTj3i2Jp3UXblUwiSkhd+ikrvGp1pQ1PH9oVWmyMRH6RqejEyL3JNb3SdgJr7J87VbpeFlatMknUlSi0rW7FbI4t6vL4obdSzXgdP2d15dEHHTqVvuvB0mKrtt3KXi2oXPRrtWTqiOn6mTYodGclzI5unqip+GIo56lqwp8nqFNq0cJHCeJGRHiQ6WzFlu4Y9cZrle5d6vNLBWzK2xpwU0qinanGxqKcSO8CzFJg9OK28PczGXNtr+kVbaLhJael7kUZdsHWZwHoKS2lpk7cC3OrGbSKOCOnYY69T3YFGnMI2mZscXLWNdi2M4VeJr3LKqlJttJzSSPU1BqrUi27PKUq2tEh4HnCliVRqZQhyv+4j3Opc6LlopSdqT+pugQJ/u/8ABJVH3LU5mLiRdyhYnF0jWKPZhnyKkxOkpZNcZ7vCGj/R1G+8jNy47QS18/qosvb1/pE86voa7Qeyik1tE1VHRilyvRcFPT5NTTYYu53Z+kKA1Di1I9SAoTesHBC/61xCUMr9iuXL3LLVx68dXWStkllqzSx1RmlqqZvjW4vzXA1XF87UrtO5V4bfo2ukxq6Goa6u4W6CRR9HJNQ3MutcqoYvedHS8+VF6oahn570mpT6koqhkTCZ54oTk6J7vF9umD3Oe8SQluF0pt2twUqVjbacyS2uPGR45psYv8lKd2Obp73JYbCjlrbFqb2F7dEi20OrIrtx6p1pOrbvVhoPJZrCKEj9HyELGlTdHwH5mnk8yhe5o4vz3nR5sxmfMLe7cqXkJQjFNKSMdyWa2xw3YwXKyccIw2TB7nLNKrd3j192bVaXKBqplAAAAAAAAAAAAAAAAAAAAAAAAAAAAAAAAAAAAAAAAAAAAAAAAA8m7qtoNid5luJi218aP0qjRy70zTyxLl6Mqqjlgy7sK7SNQQlFqpapCxxk0mYlgzIYDjl6yTVkq4fNKmp4uxTJ8XlKaD1xTXdRjcQurvkkIauTwoxL9zv0dzdHbtSnljbfUVOX7o/3PvNPKqin0BcnQM4Wn3DqRlvVKEjNnup2E3YE0dGZf7bJMToqjikypyqCjNCD2+bRXPDTYRzf8k1L1Uc6Vj4fOLmLVq/y6N+tOTeonT+zncnrap4a6FZy49VSrD/5RplLXEgb5S7RcgSabxSj76r6hhVlm+w0fJ9Y+h205T3MQunPacgi7V7o06wjP0nclM+KxMlyKFp92G4/oU428CJrhbr9p+Rt1wrSOGx1XzKnHxlPuzfVqs/R9Yv97KPo7dHUIoJtw949Wpl0liUL3/QtDRMKhK2/PutiOGsKiij01StWlAbJaVkpCAjMsWiFs29sOI47RmoSpSJrS92ZdxdTJbDW7LNExvuB5Po3CZT6tOv12ZNKGkJNNpCahoaZJIyOkycqnpaIlykomJadJyJFJyMinJ6fD6PTk+EiZDDC6EmEROYUKXlyX+dzzN2uNsW/BHZ4DeFQp0kpdXdP1oHkAAAPx1TU5T9XoKxTNVoaXVFMryZNp61Ti5JSKqkrKUoF9vyKknqZejFBNjhiJrWsJ3WajYwYvG9D6Oij1EqrVb7LKykaJjUO9ra9l7ia0/NUl7k4WfBCsYvTSwmd4zNkpNthZC04iaJ1y52147LNKsVfkaG0qaWjTCWi2o923YiPsYyVRmkbpWzd3wzwZYduLypeYhbFTmU1a2n3ZXCPDWt4jFdRKmC6Z+25rRl4uwS7de1LJt8oyzYjXpqZrW6mxapaa47O4aasr36i3JTlbS974Zz8TTfLl38VcoaSelbOtx0vqxui16htFXFFSkLSe1QrdLQ0kmcGD6vxD7P7lTjQvFJzbFNV9RlaGCX+8NKrK0o/m8Wxouy7Wfo6u42t5+SW90dWIdlKQ0Si84pelVaRr+5KzERHE/u9+39Nd7DzuGcUInk4aDmLtlwS7zqW5SdbFwsmmUq0ec5qLfwZZtFsImyXfItG8y71R7rhsb6KiMsvbbtXsrtItxI2wsRRMjSlOSp+cKWsX22v1Er9z9fKwX4mq1RqkTMYjM3mRMIxzriOJ1MXc01aZOZ6IWSrkVm21tt6rEb/AIfduoa2LwHpszKEm+zxGEkk6iK9zw5T7p593lKovlQAAAAAAAAAAAAAAAAAAAAAAAAAAAAAAAMfjfxyLLI7nVNbujZBTkrC3lWYjmlOXT0opm11Zqpxfp2oqdTzhOnFJUKJhzsl7pjHGYlHJ3aXjeBzyq/bzpqC/wBG3BJK19W27Fa4ubbFmp43gM14lmho4fnKBjWXm5M/MVstPzUOpt+VrkIpf7zUVmplPuBJrXdf+19Ni+MI3f8AHEORE+UO1TJ2KUU8SqySzqCcXV02bKUq7qs4zQllGq54pOHD8886SfL533zsx5mWzfdBw+3LE3UlpTH++KjSuBtH20e0Ps/uMrmo3ik3y1fDIzH0cvX1tJSuHc9YuBbdeQTvkvDPJs7c5Hp/brRMcJRzKpWalJVFWzDabEy3tMqv6JF7nBXnkSLoeQ1rGO2fAKC/5db61Qc/ftowhttjsTMtRyzeHLoi+4v75lg7FuWpt22F09qQ20RdSprkLcnLS9XXdqfQkZqtFmFhfaUnF3ShpymiPCSkzKF+Zk0ucM0Z6v8AmiZqrbS1JQT/AEmpJd7alBLam4MkjCsMdBpvYuhfnbNZceInDT7rQdJNvSzOzOBUH1HkAAAAAAAAAAAAAAAAAAAAAAAAAAAAAAAAAAAAAAAAAAAAAAAAOMRux8QtupLSUar5vEVWkpu/NN/sWcB4qb1aTeu7g9v9pR1ZE4Mk4iPCLxeyL8k8s2g8qalr8I9yeJs7DFitdpZ7Yw4co6ymtHhJLBrX9QuddSnsT08pcmjqOERN+yZ2dQOlBxkRYmpVJ9L6CuPZdAAAAAKEERxfZ97+xIh8klO+yee7P0Su5MvPI1IyJx6nd/sW8D4D6VPTUq6zTDjPLr0ab8vT3SYSPN49zuWVeW7AlRb8jT3SYihPJnafQPjdG5VLZlHuzFXLO/NcO4c3EXR2j3LIruo6uHKVc1vGRF3TIuHaLi/XppFHJvO3SVBcAAAAAAAAAAAAAAAAAAAAAAAAAAAAAAAAFCGGGAjY4u0/K0xYnV5q2OxdxlxzOfjZLCJ7H9YSSSXZRnm5v7Tw6ckztOXdKHAmdrRecyS/WOK5DxLTpSaF0lGIzM3R/wBqLDp3Kfz1F8sxcVaktOnulUy/NReL2B7VehTsTh3ysYaiTYRE9xis0qrpOV2FPOKguHkAAAAAAAAAAAAAAAAAAAAAAAAAAAAAAAAAAAAAAAAAAAAAAAAAAAAAAAAAAAAAAAAAAAAAAAAAAAAAAAAAAAAAAAAAAAAAAAAAAAAAAAAAAAAAAAAAAAAAAAAAAAAAAAAAAAAAAAAAAAAAAAAAAAAAAAAAAAAAAAAAAAAAAAAAAAAAAAAAAAAAAAAAAAAAAAAAAAAAAAAAAAAAAAAAAAAAAAAAAAAAAAAAAAAAAAAAAAAAAAAAAAAAAAAAAAAAAAAAAAAAAAAAAAAAAAAAAAAAAAAAAAAAAAAAAAAAAAAAAAAAAAAAAAAAAAAAAAAAAAAAAAAAAAAAAAAAAAAAAAAAAAAAAAAAAAAAAAAAAAAAAAAAAAAAAAAAAAAAAAAAAAAAAAAAAAAAAAAAAAAAAAAAAAAAAAAAAAAAAAAAAAAAAAAAAAAAAAAAAAAAAAAAAAAAAAAAAAAAAAAAAAAAAAAAAAAAAAAAAAAAAAAAAAAAAAAAAAAAAAAAAAAAAAAAAAAAAAAAAAAAAAAAAAAAAAAAAAAAAAAAAAAAAAAAAAAAAAAAAAAAAAAAAAAAAAAAAAAAAAAAAAAAAAAAAAAAAAAAAAAAAAAAAAAAAAAAAAAAAAAAAAAAAAAAAAAAAAAAAAAAAAAAAAAAAAAAAAAAAAAAAAAAAAAAAAAAAAAAAAAAAAAAAAAAAAAAAAAAAAAAAAAAAAAAAAAAAAAAAAAAAAAAAAAAAAAAAAAAAAAAAAAA/9k=;" vertex="1" parent="1">
          <mxGeometry x="7.52" y="390" width="127.48" height="70" as="geometry" />
        </mxCell>
        <mxCell id="PeEAsRIEW-1K7SLR4IVB-2" value="" style="endArrow=classic;html=1;rounded=0;" edge="1" parent="1">
          <mxGeometry width="50" height="50" relative="1" as="geometry">
            <mxPoint x="140" y="424.5" as="sourcePoint" />
            <mxPoint x="190" y="424.5" as="targetPoint" />
          </mxGeometry>
        </mxCell>
        <mxCell id="PeEAsRIEW-1K7SLR4IVB-3" value="RFID&lt;br&gt;based" style="text;html=1;strokeColor=none;fillColor=none;align=center;verticalAlign=middle;whiteSpace=wrap;rounded=0;" vertex="1" parent="1">
          <mxGeometry x="110" y="390" width="110" height="30" as="geometry" />
        </mxCell>
        <mxCell id="PeEAsRIEW-1K7SLR4IVB-4" value="" style="rounded=0;whiteSpace=wrap;html=1;fillColor=none;" vertex="1" parent="1">
          <mxGeometry x="190" y="380" width="90" height="100" as="geometry" />
        </mxCell>
        <mxCell id="PeEAsRIEW-1K7SLR4IVB-5" value="1.Vehicle Number&lt;br&gt;&lt;br&gt;2.Capacity" style="text;html=1;strokeColor=none;fillColor=none;align=center;verticalAlign=middle;whiteSpace=wrap;rounded=0;" vertex="1" parent="1">
          <mxGeometry x="205" y="410" width="55" height="30" as="geometry" />
        </mxCell>
        <mxCell id="PeEAsRIEW-1K7SLR4IVB-6" style="edgeStyle=orthogonalEdgeStyle;rounded=0;orthogonalLoop=1;jettySize=auto;html=1;exitX=0.5;exitY=1;exitDx=0;exitDy=0;" edge="1" parent="1" source="PeEAsRIEW-1K7SLR4IVB-4" target="PeEAsRIEW-1K7SLR4IVB-4">
          <mxGeometry relative="1" as="geometry" />
        </mxCell>
        <mxCell id="PeEAsRIEW-1K7SLR4IVB-11" value="&lt;b&gt;&lt;font color=&quot;#007fff&quot;&gt;Water Tank Requirements&lt;/font&gt;&lt;/b&gt;" style="text;html=1;strokeColor=none;fillColor=none;align=center;verticalAlign=middle;whiteSpace=wrap;rounded=0;" vertex="1" parent="1">
          <mxGeometry x="205" y="340" width="60" height="30" as="geometry" />
        </mxCell>
        <mxCell id="PeEAsRIEW-1K7SLR4IVB-23" value="" style="shape=cylinder3;whiteSpace=wrap;html=1;boundedLbl=1;backgroundOutline=1;size=15;" vertex="1" parent="1">
          <mxGeometry x="350" y="390" width="60" height="50" as="geometry" />
        </mxCell>
        <mxCell id="PeEAsRIEW-1K7SLR4IVB-24" value="&lt;font&gt;Water Tank DB&lt;/font&gt;" style="text;html=1;strokeColor=none;fillColor=none;align=center;verticalAlign=middle;whiteSpace=wrap;rounded=0;fontColor=#007FFF;fontStyle=1" vertex="1" parent="1">
          <mxGeometry x="345" y="450" width="70" height="30" as="geometry" />
        </mxCell>
        <mxCell id="-4bqo_CRuHf7mj_BNsw4-3" value="" style="html=1;strokeWidth=1;shadow=0;dashed=0;shape=mxgraph.ios7.misc.wifi;fillColor=#007AFF;strokeColor=none;buttonText=;strokeColor2=#222222;fontColor=#222222;fontSize=8;verticalLabelPosition=bottom;verticalAlign=top;align=center;sketch=0;" vertex="1" parent="1">
          <mxGeometry x="300" y="380" width="30" height="30" as="geometry" />
        </mxCell>
        <mxCell id="-4bqo_CRuHf7mj_BNsw4-5" value="" style="endArrow=classic;html=1;rounded=0;" edge="1" parent="1">
          <mxGeometry width="50" height="50" relative="1" as="geometry">
            <mxPoint x="280" y="424.5" as="sourcePoint" />
            <mxPoint x="350" y="424.5" as="targetPoint" />
          </mxGeometry>
        </mxCell>
        <mxCell id="-4bqo_CRuHf7mj_BNsw4-8" value="&lt;b style=&quot;font-size: 14px;&quot;&gt;&lt;font color=&quot;#3399ff&quot;&gt;Water Filling&lt;br&gt;Station&lt;/font&gt;&lt;/b&gt;" style="text;html=1;strokeColor=none;fillColor=none;align=center;verticalAlign=middle;whiteSpace=wrap;rounded=0;" vertex="1" parent="1">
          <mxGeometry x="23.729999999999997" y="520" width="111.27" height="30" as="geometry" />
        </mxCell>
        <mxCell id="-4bqo_CRuHf7mj_BNsw4-10" value="" style="html=1;verticalLabelPosition=bottom;align=center;labelBackgroundColor=#ffffff;verticalAlign=top;strokeWidth=2;strokeColor=#0080F0;shadow=0;dashed=0;shape=mxgraph.ios7.icons.location;" vertex="1" parent="1">
          <mxGeometry x="67.36" y="475" width="24" height="30" as="geometry" />
        </mxCell>
        <mxCell id="-4bqo_CRuHf7mj_BNsw4-14" value="" style="rounded=0;whiteSpace=wrap;html=1;fillColor=none;" vertex="1" parent="1">
          <mxGeometry x="330" y="132.5" width="110" height="45" as="geometry" />
        </mxCell>
        <mxCell id="-4bqo_CRuHf7mj_BNsw4-18" value="Central Server" style="text;html=1;strokeColor=none;fillColor=none;align=center;verticalAlign=middle;whiteSpace=wrap;rounded=0;" vertex="1" parent="1">
          <mxGeometry x="355" y="140" width="60" height="30" as="geometry" />
        </mxCell>
        <mxCell id="-4bqo_CRuHf7mj_BNsw4-19" value="" style="endArrow=classic;html=1;rounded=0;entryX=0;entryY=0.5;entryDx=0;entryDy=0;" edge="1" parent="1">
          <mxGeometry width="50" height="50" relative="1" as="geometry">
            <mxPoint x="440" y="157" as="sourcePoint" />
            <mxPoint x="490" y="157" as="targetPoint" />
          </mxGeometry>
        </mxCell>
        <mxCell id="-4bqo_CRuHf7mj_BNsw4-20" value="" style="rhombus;whiteSpace=wrap;html=1;fillColor=none;" vertex="1" parent="1">
          <mxGeometry x="490" y="117.5" width="80" height="80" as="geometry" />
        </mxCell>
        <mxCell id="-4bqo_CRuHf7mj_BNsw4-21" value="Data&lt;br&gt;Analysis&lt;br&gt;" style="text;html=1;strokeColor=none;fillColor=none;align=center;verticalAlign=middle;whiteSpace=wrap;rounded=0;" vertex="1" parent="1">
          <mxGeometry x="500" y="140" width="60" height="30" as="geometry" />
        </mxCell>
        <mxCell id="-4bqo_CRuHf7mj_BNsw4-23" value="" style="shape=image;verticalLabelPosition=bottom;labelBackgroundColor=default;verticalAlign=top;aspect=fixed;imageAspect=0;image=data:image/png,iVBORw0KGgoAAAANSUhEUgAAAR0AAACxCAMAAADOHZloAAAAkFBMVEX3mB/////3kgD94cT3kQD3lhb3lhT82Lj4q1r3lAD3lAz//vz4r2P2jgD/+/b+8eT71LH+9uz96NP/+fL95c36wYf3nSv7yZf6xpH4qlL4p0n6voH5tGv+8ub+7t370qn4oDn5uHX7zZ/5tnD4rFb4ojz3nSX83sD82LX6u3z806z4oTz4pkT5tGX7yZT6wITozZkeAAAQj0lEQVR4nO1d6ULyOhCtIam20CKL4MqqoH54ff+3uwWbzEy60KSBWvX8k1poTpPZM/Eu/lAMr+kH+NY4LzvdeLRHHMfds/6uLc7EzmB8ffP4/DIRAeOcBf5mct97eO/0z/Pr1jg9O93xfz0/Yiz0hfAAwg8Z42z38Do4+SNY48TszKYvUcKLVwgRsmjzuR2d9jFscUp2ZrcbFopiZhRCFnxs4xM+iS1Oxs5g9cLCCsyk8Jm3Hp7qWaxxInZmS8aqzBpCEL+/PM3TWOMk7HSeucG0AQi2WZ3ieaxxAnaGO14iho+AsdU3MoWcs9PvcdMlpfHjXbt+Jms4Zif+ZPbzRvFzP3P7VNZwy86rZyVvdAj++T30u0t24kfugps9Am/s8MGs4ZCdsXAycVLwG3dPZg137Nw6mzhfYLvmHTBX7IzumFtyEuswaHx1OWJnKOqrqix407ahG3Zejd2GivQsnTyeNZyws3IscgDszsXzWcMFO9OTkeN54a5Jx8IBO66VlUbPfYOGYX12TkvOnp7mZk9tdk65rCQ9LgZqhbrszE9OTkJPY6K5JjudM5CTaK5HN4M1Rj12Zs4N5HzwqaPhGqIWO/HmNEZgDj1bVwM2Qi12nl065eUIG3FJ67Bze6Z1tYe/czZkA9Rg5zwSWYI1Ee+xZyc+JzcJeAPxDHt21ucTOgeIjcNhV4Q1O+PovOQka+vW5cArwZqdybmUOYCfPZFjy87qjPpKQpzdo7BkZ3BmofMFrlUhxE+d+e3y4+7+/uNmvj2BRWTJzrIRdsQEBTP6q6sJ25eU+UIcCsnYYv3quErKjp1z+Vc62Dx9gPj9ngd6oF/4jPVeXUaD7NjpnSIDUQmHsc/eCquDfBZM3QUTrdhpauokk2d1cTFallcHBWzqav5YsXNuQxAhvFiFR3+dTTrNsTM4q4NFISZV5q3gSyfLy4ad2+amTmWEExemow07QdNDrwLBHawuC3a2jclkM/D3JthpTp0bgs+PD8Y1O6OWTJ0E/PXs7Ly3hx2P1yyfN2fn+fyhC3sE9RwvY3ZGLVDnAL9e0MOYnbZorBSsVvmYMTtvrZo7CT119g8aszNperiG8HtnZKffCkMZo06mx5SdlomdBKJG+Y8pOzctEzsJmL3RY8rOfZusnS/49tU/puy0TuwkiKxNQkN2nlondjwUqz81O8M2smOfJTRk57WN7HjcdmkZsvNf+1RWAmZbV2fIzkMr2QltK6MM2XlsS1yQwL86Dzt37TN39phYpv8M2XlpJzvMMrtlyM6m6XHagVuGMX4HO8zSTzdkp23RnRThdGa1tgzZWbRT7ngh5/7zzavpAjNkp4UuuoIIGZt8jk0mkQk73c5D0yOsjZBv3qoLoersxNOJXc+h74aQ794r2j9V2Rl8sm8Z2hF+mCyYIPRNjHjBvGpBjWrsjN4qThuBUXyx5LaSr8xcSWTt3ePndD5f3a57m8ik9Q/zq+TYK7EzDyouKbG7QtDU/z91QfdHxB3cpI9woa5oGiFZINMhXiGD155Jlzq2OF7gU4GdwXPlSjj+REglwSB/qS7EvPg2jVIGr3iFhy7YW05x1+DGoOWEYOtjcZ/j7Lxm6oJLQO6cERLEAq7808aAtKxWHYSsXBwfKGx+NdsZTJ9QHFFfR9l5MyihDB+0LyfwoVT/irCDedNTQgxuQl5MVLKLdm0SvozK9+0cYSdemPwW01bymswDVExD6zLDJbpHSycG6sIItjyVF3V9mNgd7L5se0U5O4OJUbRLDxTQKDRKDVyTCwGukxjS5QiJzI66hx3Zf23k7vh+STKwlJ2ZZ0ROJvb/RHa4oXVHKaBTjt4DMc+VtLfCY9m7sVk9NSvW7WXszHwzrypbK0OvT9TnMaGAajrym2i+gbjGM7Q/7SXK/oaG1Q0jmMUtokrYmQWGLifL6BFa7BOCdUL09oYsSCKskKySYUn8DkaP0b6ptR9yD0+AS8O8Ei+SzcXsDEzJgbmhWKIiFqX7sd7WiiSIxA7UtBqp5QIcP/nwvxHKO3RNs25F7fsK2YmNN36CXFGCYUDZgfeL9TYyE/fo4HsmmY9x9mWBp1mEbBfjys8CegrZMe/ioHJqMeguoj6QWMZzX0tz4+1NAjoYSKGMipVobTD6X4udHPlGQhE7N+Yp4VDa5cNILSFi26ElhJWWZiV10YRAE+Uj/ZjDf2qaO4LIn0VCO7cPSQE7W/NNRqDPp5ESnFS5RkABUlpcs8eQxEbTKnU+EMN60T2DzsNDiz1SWZ1SxM7AIpYDNt1z+KxGQK1leAD0ua+FopZwDVSWfCJ/DRRo7ISf6tLMgh0hsj5pPjs7i4QwDD1CuUcSdmCwYxpcSqGncaewGmFayUmIZNdYYwfVeNmwk1f5ncuO1VZ8pV6SaQ1MTbHgQWIEBJLysuQ9SGkBy1Ioh/8VswO1t32rQppsK4k8dgY23x2+ydvnDMkLIgFQth8sISa3UcmV2Ve3INdE2ogh+Fg6O+L+8jrF1C4AninezWPHqtACamSS28GEoX1ofPUbIDSkyoqlRo6VWEbLSH0E7zdTpSeYhHV24Dg7hk5cikjZOAH5GRIKBTkSqwHIwqy+0mgqNqamFXSWgCl6irR1JkCVZccq3wmL4CARYXcCCZ+iIiz1mTRgLiNJnfLOIDCoFijSWVpk1gm0Ni1Zdq6tfhP0+cGCBRqI+kBSQy5fIbX/StmQc2lPQCmtCl/gOGLXfZcbTW9l2bErJAAP8zBsZHuQHwexLI19tVQ+lDGvxO1GqSywgSLk0D/lJHhqgprMGXYsq0pVhLN7YFeA+4hlvFio8UqlpWTLv0AuetkNAFlC8B2kQvLJc7240IPnsWMn6kBYpvHASNFAViqIZbnipGwZ+WpWdyf6l6IUj1bXfxM5zl4zfBKKzo7lHhp4oykZIFBJ+BQ8zpH8JOUrsXKU0kpje/Cg2LRhJJJ40S/up2IH3HxNZ8dyTyy0kkwlBJK/eDaiAHuqGuWSTFa0mlhp3S8wjLUTyWDsMVi9uCx/QO6Ozs6TXSc4FFtJB43kLw6f+h/q46+QhLIEEvNWTaw0cAMl6ktsNOWUuQ0fhIPzc9KxoFClxo5lAxCYKcqAZeo78WJFCvlLSSvXKyGLaUoLvoKaYH5OCqq77UWOVlgENo/GjqUFAUaUUnko+IBFWaBG9kWaYmSCQqhfKQtlCZFo0P6Cl5v/Hq0WNQ7uAiBfmbJjEzXaA3xptVUABa4w5UDaE8d/jwS2tw+iClRWxt8sytCNn2se3vU1mgJ2LBcWMu+VLYk0Lw6fgliOD+9ZivMv/0NeO6QswMvKugyF28w7RqntfMAbpOxYFk1CsgEFFWE+4Wa6yIs8/Jh8T4d1ppTW555PkL7r7IJhL0XlEw+1O0tBHICwYxMw3QOUC4pcQYaThE+pEa0W02HWKqvpkLKA8ou8lyb4cwE/73U7sILWIuxYmoIoSIUWETI6d2h0PvEs1Ws6+BtKVg3JOtOLoeQ38ck8t4Disi49qrcIYae2PseqF60hHKqDRb1/F0q2HP5Dyaq9koI3WKgrBGPPee0p6zYNV02xCDuWhjIMGL9l8U99L8leKVm7V1rSFOge/gMmoY/d/LI4TmIFPm4z9bU1S/KV6iDsWO6CgAqkcb5pg8OnEH7bZ7ulbEkDqb4MTzwi25Bayln43HvTNLxuAhhCWfSYnYGdLYX0OVmaKMeJJqV4UZ/eCTW/UomnJHkiv2BG7o7OhJC/0IRqvR0LyjHC7NjlObDb9hJhQAQMrw1IiK59ZQ6n0lx9VcKWKr+o1A9JcBLZqNl+S1ojmB1LSxllersU6nMcPgWvY8WoykILPllpOD9WBUw5HhfSELeGGGTZ6VgRTipGC9DFo1BTbcuU1k+jHGrBd0Nw+6sG18mZCvXkcuiMnbBKM3oUPgWx/MSVykotFNBzyBes3C0K72+st71Xrur67FTqWofCpyhaHPFUR8HikdbLGor5SNzAVxm9rF2Ps1FH9NwRyIRTfXa8Krt5sByAsM1OLkpV7KSE0lTlb0akQApMzGwlAV7jlrli+Yiu2KnY3QaFT8EBW8pppBwQJZQ6kfwvIpTR9Mips0Ah53mt/VLO2Cmp9sVAwgPE8krKFpVOVk7JTFX1EKFcOndwJnPlnB0rC1NLERQBFQqCGN9KlbWQ15TSipVTQYQyqsDM6YGNIs41V1aOVLaxd3At47Kn4QrmFRoLBORn6WiweyavKQqJe4ND4llPHFnnn7XYydNZNhVTuGKE+xrweXtokCouJu1F9FpUgENq5y59qAB9Y0Zpo5VVrxurn2Pv2PQSRAVBOTlmNBYU+dHLKLHdn7EPtOpADhoy2+0GYkcVfLNSxFl2RhbfKOBpc0wM9DKRyM80C7rNE9kptJIQVC+fqTNCpXG2Uc50UNIoJREMc/Mb98nMiX+gxAQKAAR6yBwZtplGQpqljO/VHxfN43ohDF+6bISdD2MDE4VH847gwOTBXM80C0LDRMlS/bYDBPI1tcnDUFlYvV61yq4g7JgbCRGIkHxnERYe6FjdbyXpQEavZTRThCyIVYSoY0iddetJHZYbOTWuGEShrPyJhwQPUkyajUQsCR4XX9uDOL3bCf/aQyZC/ok+r1kzlx91Nz6oEEuJ3AdCggd9uVb5SksL6bVsnV5ANN7l+t8m4P7uAbdHqTl1ILxNs32mhyGgoeT3acQiBkwQTSyTrSaaZ5I9qCtToRIPBlpeomarWsixUHZMN8VBFLRIZk3inP/QdmSRILBWFJsTp9FPYMtgWzOfBeKAshObiWWsYDItGvRfwqY4Kc6jpgDtpR3nva683TAIloEYBeQcaRUqZt0WGToLpeB9oUWEwqekAueJvhIfXSpwbkoDbrWbjSJZqbHTN9JaqKN8kfmFBQ+ET8nwNLWES26LcgvF2/XjZe0igwCsEL1usGCB5APZLcVJ5ry3SjY7auqXKK2iuczvcqdPvPLrCWSPmgw6OyYmj7jaXkoUen3hSv0PsgfRndue1jnm4RKuLQp/m99da5qq23nzHZQvB2juZuqVnw0mD2xqKSnZC/N2vqA7M7eG6Frpj0e75aozHs5mw/F2/nYf2W+tQSBtJDLsNHdioTkEIjJ0VLS86Zaxc/HZInrcgxpTWXZOsHOlPdDCB852r/0MUCcud+ejxU79H4JISz/l7im22XD9E4DjZ8XsNHO+d+PwMyfe5O/Wr1lZ1k6ITaZAs6APxusvlMxhtr9wUQ+Ved2a39Yhr393Yf+d30ZP7jlSxZ2t5r9pcYn8Q7ZKuqK188waK/hefrixrKNex7gvWksRLgoaVpZ2Y+x7v8Lw4b2i4r7yTp7dx58vfERUfODqsR657yb9g9uIcFLSRfhoB+H+/U8WzoIvy05QqNCbu3Lf8vaBTcq7l1fp6z5aRz9yeYXF7V8N2Lm4mF052en9rRCym6PH+VU9T2LY+xlHbaQQzL8pa8ptyE4yf5a+22YlzSHki3ml42xMzrEZzV+cJUaag8+CZdWTbAzPQJpNd26Sas1AhJytL6ufgmR8evzFaPs24Yz57ntunRJChIyz51uzQ9jM2Tkw1Jkv7xZe8nstAOeceYurh+ux8cmPduwc0I1Hs873x3g87I9iuyMxa7DzC/DHThn+2CnDHztl+GOnDH/slOGPnTL8D3orADjEWnnvAAAAAElFTkSuQmCC;" vertex="1" parent="1">
          <mxGeometry x="355.84999999999997" y="400" width="48.31" height="30" as="geometry" />
        </mxCell>
        <mxCell id="-4bqo_CRuHf7mj_BNsw4-24" value="" style="shape=image;verticalLabelPosition=bottom;labelBackgroundColor=default;verticalAlign=top;aspect=fixed;imageAspect=0;image=data:image/png,iVBORw0KGgoAAAANSUhEUgAAAR0AAACxCAMAAADOHZloAAAAkFBMVEX3mB/////3kgD94cT3kQD3lhb3lhT82Lj4q1r3lAD3lAz//vz4r2P2jgD/+/b+8eT71LH+9uz96NP/+fL95c36wYf3nSv7yZf6xpH4qlL4p0n6voH5tGv+8ub+7t370qn4oDn5uHX7zZ/5tnD4rFb4ojz3nSX83sD82LX6u3z806z4oTz4pkT5tGX7yZT6wITozZkeAAAQj0lEQVR4nO1d6ULyOhCtIam20CKL4MqqoH54ff+3uwWbzEy60KSBWvX8k1poTpPZM/Eu/lAMr+kH+NY4LzvdeLRHHMfds/6uLc7EzmB8ffP4/DIRAeOcBf5mct97eO/0z/Pr1jg9O93xfz0/Yiz0hfAAwg8Z42z38Do4+SNY48TszKYvUcKLVwgRsmjzuR2d9jFscUp2ZrcbFopiZhRCFnxs4xM+iS1Oxs5g9cLCCsyk8Jm3Hp7qWaxxInZmS8aqzBpCEL+/PM3TWOMk7HSeucG0AQi2WZ3ieaxxAnaGO14iho+AsdU3MoWcs9PvcdMlpfHjXbt+Jms4Zif+ZPbzRvFzP3P7VNZwy86rZyVvdAj++T30u0t24kfugps9Am/s8MGs4ZCdsXAycVLwG3dPZg137Nw6mzhfYLvmHTBX7IzumFtyEuswaHx1OWJnKOqrqix407ahG3Zejd2GivQsnTyeNZyws3IscgDszsXzWcMFO9OTkeN54a5Jx8IBO66VlUbPfYOGYX12TkvOnp7mZk9tdk65rCQ9LgZqhbrszE9OTkJPY6K5JjudM5CTaK5HN4M1Rj12Zs4N5HzwqaPhGqIWO/HmNEZgDj1bVwM2Qi12nl065eUIG3FJ67Bze6Z1tYe/czZkA9Rg5zwSWYI1Ee+xZyc+JzcJeAPxDHt21ucTOgeIjcNhV4Q1O+PovOQka+vW5cArwZqdybmUOYCfPZFjy87qjPpKQpzdo7BkZ3BmofMFrlUhxE+d+e3y4+7+/uNmvj2BRWTJzrIRdsQEBTP6q6sJ25eU+UIcCsnYYv3quErKjp1z+Vc62Dx9gPj9ngd6oF/4jPVeXUaD7NjpnSIDUQmHsc/eCquDfBZM3QUTrdhpauokk2d1cTFallcHBWzqav5YsXNuQxAhvFiFR3+dTTrNsTM4q4NFISZV5q3gSyfLy4ad2+amTmWEExemow07QdNDrwLBHawuC3a2jclkM/D3JthpTp0bgs+PD8Y1O6OWTJ0E/PXs7Ly3hx2P1yyfN2fn+fyhC3sE9RwvY3ZGLVDnAL9e0MOYnbZorBSsVvmYMTtvrZo7CT119g8aszNperiG8HtnZKffCkMZo06mx5SdlomdBKJG+Y8pOzctEzsJmL3RY8rOfZusnS/49tU/puy0TuwkiKxNQkN2nlondjwUqz81O8M2smOfJTRk57WN7HjcdmkZsvNf+1RWAmZbV2fIzkMr2QltK6MM2XlsS1yQwL86Dzt37TN39phYpv8M2XlpJzvMMrtlyM6m6XHagVuGMX4HO8zSTzdkp23RnRThdGa1tgzZWbRT7ngh5/7zzavpAjNkp4UuuoIIGZt8jk0mkQk73c5D0yOsjZBv3qoLoersxNOJXc+h74aQ794r2j9V2Rl8sm8Z2hF+mCyYIPRNjHjBvGpBjWrsjN4qThuBUXyx5LaSr8xcSWTt3ePndD5f3a57m8ik9Q/zq+TYK7EzDyouKbG7QtDU/z91QfdHxB3cpI9woa5oGiFZINMhXiGD155Jlzq2OF7gU4GdwXPlSjj+REglwSB/qS7EvPg2jVIGr3iFhy7YW05x1+DGoOWEYOtjcZ/j7Lxm6oJLQO6cERLEAq7808aAtKxWHYSsXBwfKGx+NdsZTJ9QHFFfR9l5MyihDB+0LyfwoVT/irCDedNTQgxuQl5MVLKLdm0SvozK9+0cYSdemPwW01bymswDVExD6zLDJbpHSycG6sIItjyVF3V9mNgd7L5se0U5O4OJUbRLDxTQKDRKDVyTCwGukxjS5QiJzI66hx3Zf23k7vh+STKwlJ2ZZ0ROJvb/RHa4oXVHKaBTjt4DMc+VtLfCY9m7sVk9NSvW7WXszHwzrypbK0OvT9TnMaGAajrym2i+gbjGM7Q/7SXK/oaG1Q0jmMUtokrYmQWGLifL6BFa7BOCdUL09oYsSCKskKySYUn8DkaP0b6ptR9yD0+AS8O8Ei+SzcXsDEzJgbmhWKIiFqX7sd7WiiSIxA7UtBqp5QIcP/nwvxHKO3RNs25F7fsK2YmNN36CXFGCYUDZgfeL9TYyE/fo4HsmmY9x9mWBp1mEbBfjys8CegrZMe/ioHJqMeguoj6QWMZzX0tz4+1NAjoYSKGMipVobTD6X4udHPlGQhE7N+Yp4VDa5cNILSFi26ElhJWWZiV10YRAE+Uj/ZjDf2qaO4LIn0VCO7cPSQE7W/NNRqDPp5ESnFS5RkABUlpcs8eQxEbTKnU+EMN60T2DzsNDiz1SWZ1SxM7AIpYDNt1z+KxGQK1leAD0ua+FopZwDVSWfCJ/DRRo7ISf6tLMgh0hsj5pPjs7i4QwDD1CuUcSdmCwYxpcSqGncaewGmFayUmIZNdYYwfVeNmwk1f5ncuO1VZ8pV6SaQ1MTbHgQWIEBJLysuQ9SGkBy1Ioh/8VswO1t32rQppsK4k8dgY23x2+ydvnDMkLIgFQth8sISa3UcmV2Ve3INdE2ogh+Fg6O+L+8jrF1C4AninezWPHqtACamSS28GEoX1ofPUbIDSkyoqlRo6VWEbLSH0E7zdTpSeYhHV24Dg7hk5cikjZOAH5GRIKBTkSqwHIwqy+0mgqNqamFXSWgCl6irR1JkCVZccq3wmL4CARYXcCCZ+iIiz1mTRgLiNJnfLOIDCoFijSWVpk1gm0Ni1Zdq6tfhP0+cGCBRqI+kBSQy5fIbX/StmQc2lPQCmtCl/gOGLXfZcbTW9l2bErJAAP8zBsZHuQHwexLI19tVQ+lDGvxO1GqSywgSLk0D/lJHhqgprMGXYsq0pVhLN7YFeA+4hlvFio8UqlpWTLv0AuetkNAFlC8B2kQvLJc7240IPnsWMn6kBYpvHASNFAViqIZbnipGwZ+WpWdyf6l6IUj1bXfxM5zl4zfBKKzo7lHhp4oykZIFBJ+BQ8zpH8JOUrsXKU0kpje/Cg2LRhJJJ40S/up2IH3HxNZ8dyTyy0kkwlBJK/eDaiAHuqGuWSTFa0mlhp3S8wjLUTyWDsMVi9uCx/QO6Ozs6TXSc4FFtJB43kLw6f+h/q46+QhLIEEvNWTaw0cAMl6ktsNOWUuQ0fhIPzc9KxoFClxo5lAxCYKcqAZeo78WJFCvlLSSvXKyGLaUoLvoKaYH5OCqq77UWOVlgENo/GjqUFAUaUUnko+IBFWaBG9kWaYmSCQqhfKQtlCZFo0P6Cl5v/Hq0WNQ7uAiBfmbJjEzXaA3xptVUABa4w5UDaE8d/jwS2tw+iClRWxt8sytCNn2se3vU1mgJ2LBcWMu+VLYk0Lw6fgliOD+9ZivMv/0NeO6QswMvKugyF28w7RqntfMAbpOxYFk1CsgEFFWE+4Wa6yIs8/Jh8T4d1ppTW555PkL7r7IJhL0XlEw+1O0tBHICwYxMw3QOUC4pcQYaThE+pEa0W02HWKqvpkLKA8ou8lyb4cwE/73U7sILWIuxYmoIoSIUWETI6d2h0PvEs1Ws6+BtKVg3JOtOLoeQ38ck8t4Disi49qrcIYae2PseqF60hHKqDRb1/F0q2HP5Dyaq9koI3WKgrBGPPee0p6zYNV02xCDuWhjIMGL9l8U99L8leKVm7V1rSFOge/gMmoY/d/LI4TmIFPm4z9bU1S/KV6iDsWO6CgAqkcb5pg8OnEH7bZ7ulbEkDqb4MTzwi25Bayln43HvTNLxuAhhCWfSYnYGdLYX0OVmaKMeJJqV4UZ/eCTW/UomnJHkiv2BG7o7OhJC/0IRqvR0LyjHC7NjlObDb9hJhQAQMrw1IiK59ZQ6n0lx9VcKWKr+o1A9JcBLZqNl+S1ojmB1LSxllersU6nMcPgWvY8WoykILPllpOD9WBUw5HhfSELeGGGTZ6VgRTipGC9DFo1BTbcuU1k+jHGrBd0Nw+6sG18mZCvXkcuiMnbBKM3oUPgWx/MSVykotFNBzyBes3C0K72+st71Xrur67FTqWofCpyhaHPFUR8HikdbLGor5SNzAVxm9rF2Ps1FH9NwRyIRTfXa8Krt5sByAsM1OLkpV7KSE0lTlb0akQApMzGwlAV7jlrli+Yiu2KnY3QaFT8EBW8pppBwQJZQ6kfwvIpTR9Mips0Ah53mt/VLO2Cmp9sVAwgPE8krKFpVOVk7JTFX1EKFcOndwJnPlnB0rC1NLERQBFQqCGN9KlbWQ15TSipVTQYQyqsDM6YGNIs41V1aOVLaxd3At47Kn4QrmFRoLBORn6WiweyavKQqJe4ND4llPHFnnn7XYydNZNhVTuGKE+xrweXtokCouJu1F9FpUgENq5y59qAB9Y0Zpo5VVrxurn2Pv2PQSRAVBOTlmNBYU+dHLKLHdn7EPtOpADhoy2+0GYkcVfLNSxFl2RhbfKOBpc0wM9DKRyM80C7rNE9kptJIQVC+fqTNCpXG2Uc50UNIoJREMc/Mb98nMiX+gxAQKAAR6yBwZtplGQpqljO/VHxfN43ohDF+6bISdD2MDE4VH847gwOTBXM80C0LDRMlS/bYDBPI1tcnDUFlYvV61yq4g7JgbCRGIkHxnERYe6FjdbyXpQEavZTRThCyIVYSoY0iddetJHZYbOTWuGEShrPyJhwQPUkyajUQsCR4XX9uDOL3bCf/aQyZC/ok+r1kzlx91Nz6oEEuJ3AdCggd9uVb5SksL6bVsnV5ANN7l+t8m4P7uAbdHqTl1ILxNs32mhyGgoeT3acQiBkwQTSyTrSaaZ5I9qCtToRIPBlpeomarWsixUHZMN8VBFLRIZk3inP/QdmSRILBWFJsTp9FPYMtgWzOfBeKAshObiWWsYDItGvRfwqY4Kc6jpgDtpR3nva683TAIloEYBeQcaRUqZt0WGToLpeB9oUWEwqekAueJvhIfXSpwbkoDbrWbjSJZqbHTN9JaqKN8kfmFBQ+ET8nwNLWES26LcgvF2/XjZe0igwCsEL1usGCB5APZLcVJ5ry3SjY7auqXKK2iuczvcqdPvPLrCWSPmgw6OyYmj7jaXkoUen3hSv0PsgfRndue1jnm4RKuLQp/m99da5qq23nzHZQvB2juZuqVnw0mD2xqKSnZC/N2vqA7M7eG6Frpj0e75aozHs5mw/F2/nYf2W+tQSBtJDLsNHdioTkEIjJ0VLS86Zaxc/HZInrcgxpTWXZOsHOlPdDCB852r/0MUCcud+ejxU79H4JISz/l7im22XD9E4DjZ8XsNHO+d+PwMyfe5O/Wr1lZ1k6ITaZAs6APxusvlMxhtr9wUQ+Ved2a39Yhr393Yf+d30ZP7jlSxZ2t5r9pcYn8Q7ZKuqK188waK/hefrixrKNex7gvWksRLgoaVpZ2Y+x7v8Lw4b2i4r7yTp7dx58vfERUfODqsR657yb9g9uIcFLSRfhoB+H+/U8WzoIvy05QqNCbu3Lf8vaBTcq7l1fp6z5aRz9yeYXF7V8N2Lm4mF052en9rRCym6PH+VU9T2LY+xlHbaQQzL8pa8ptyE4yf5a+22YlzSHki3ml42xMzrEZzV+cJUaag8+CZdWTbAzPQJpNd26Sas1AhJytL6ufgmR8evzFaPs24Yz57ntunRJChIyz51uzQ9jM2Tkw1Jkv7xZe8nstAOeceYurh+ux8cmPduwc0I1Hs873x3g87I9iuyMxa7DzC/DHThn+2CnDHztl+GOnDH/slOGPnTL8D3orADjEWnnvAAAAAElFTkSuQmCC;" vertex="1" parent="1">
          <mxGeometry x="360.84999999999997" y="90" width="48.31" height="30" as="geometry" />
        </mxCell>
        <mxCell id="-4bqo_CRuHf7mj_BNsw4-25" value="&lt;font&gt;Predict Water Requirement per Distribution Line&lt;/font&gt;" style="text;html=1;strokeColor=none;fillColor=none;align=center;verticalAlign=middle;whiteSpace=wrap;rounded=0;fontColor=#007FFF;fontStyle=1" vertex="1" parent="1">
          <mxGeometry x="465" y="60" width="130" height="30" as="geometry" />
        </mxCell>
        <mxCell id="-4bqo_CRuHf7mj_BNsw4-26" value="" style="endArrow=classic;html=1;rounded=0;entryX=0;entryY=0.5;entryDx=0;entryDy=0;exitX=1;exitY=0.5;exitDx=0;exitDy=0;" edge="1" parent="1" source="-4bqo_CRuHf7mj_BNsw4-20">
          <mxGeometry width="50" height="50" relative="1" as="geometry">
            <mxPoint x="570" y="199.03" as="sourcePoint" />
            <mxPoint x="620" y="199.03" as="targetPoint" />
            <Array as="points">
              <mxPoint x="570" y="199" />
            </Array>
          </mxGeometry>
        </mxCell>
        <mxCell id="-4bqo_CRuHf7mj_BNsw4-27" value="" style="endArrow=classic;html=1;rounded=0;entryX=0;entryY=0.5;entryDx=0;entryDy=0;" edge="1" parent="1">
          <mxGeometry width="50" height="50" relative="1" as="geometry">
            <mxPoint x="570" y="157" as="sourcePoint" />
            <mxPoint x="620" y="157" as="targetPoint" />
          </mxGeometry>
        </mxCell>
        <mxCell id="-4bqo_CRuHf7mj_BNsw4-28" value="" style="endArrow=classic;html=1;rounded=0;exitX=1;exitY=0.5;exitDx=0;exitDy=0;" edge="1" parent="1" source="-4bqo_CRuHf7mj_BNsw4-20">
          <mxGeometry width="50" height="50" relative="1" as="geometry">
            <mxPoint x="580" y="135" as="sourcePoint" />
            <mxPoint x="620" y="110" as="targetPoint" />
            <Array as="points">
              <mxPoint x="570" y="110" />
              <mxPoint x="600" y="110" />
            </Array>
          </mxGeometry>
        </mxCell>
        <mxCell id="-4bqo_CRuHf7mj_BNsw4-29" value="&lt;font color=&quot;#007fff&quot;&gt;Line 1&lt;/font&gt;" style="text;html=1;strokeColor=none;fillColor=none;align=center;verticalAlign=middle;whiteSpace=wrap;rounded=0;fontStyle=1" vertex="1" parent="1">
          <mxGeometry x="605.85" y="97.74000000000001" width="70" height="30" as="geometry" />
        </mxCell>
        <mxCell id="-4bqo_CRuHf7mj_BNsw4-30" value="&lt;font color=&quot;#007fff&quot;&gt;Line 2&lt;/font&gt;" style="text;html=1;strokeColor=none;fillColor=none;align=center;verticalAlign=middle;whiteSpace=wrap;rounded=0;fontStyle=1" vertex="1" parent="1">
          <mxGeometry x="605.85" y="142.74" width="70" height="30" as="geometry" />
        </mxCell>
        <mxCell id="-4bqo_CRuHf7mj_BNsw4-31" value="&lt;font color=&quot;#007fff&quot;&gt;Line n&lt;/font&gt;" style="text;html=1;strokeColor=none;fillColor=none;align=center;verticalAlign=middle;whiteSpace=wrap;rounded=0;fontStyle=1" vertex="1" parent="1">
          <mxGeometry x="605.85" y="182.27" width="70" height="30" as="geometry" />
        </mxCell>
        <mxCell id="v9ebatE_qt70Te6h0S2r-19" style="edgeStyle=orthogonalEdgeStyle;rounded=0;orthogonalLoop=1;jettySize=auto;html=1;exitX=1;exitY=0.5;exitDx=0;exitDy=0;" edge="1" parent="1" source="v9ebatE_qt70Te6h0S2r-1">
          <mxGeometry relative="1" as="geometry">
            <mxPoint x="780" y="150" as="targetPoint" />
          </mxGeometry>
        </mxCell>
        <mxCell id="v9ebatE_qt70Te6h0S2r-1" value="" style="shape=image;verticalLabelPosition=bottom;labelBackgroundColor=default;verticalAlign=top;aspect=fixed;imageAspect=0;image=data:image/png,iVBORw0KGgoAAAANSUhEUgAAANsAAADmCAMAAABruQABAAAAnFBMVEUALVb39/f///8AE0kAK1UAGkwAI1AAKFMAJlKkrrzEzNX6+vnHzNMAIU8AHU0AH04AEEgAGEsADEYAEkgAAEQAB0UADUby8/SXorDd4eWxucN1hJfm6eyJlqbV2t9WaYJjdY5cboYxTW6Bjp8QNl28w8uUn61FW3cfP2NLYHtpeY7a3+apsr2zu8XO1NpBWHd5iZ0eP2QqSGoONFv6bQIrAAAOHElEQVR4nO2daXeyPBCGISSAUhBQxL11wVZrbWv//397wfZxYc1kgtL39P7yLOe0cJFkZpJMJor6/5Vy7xeoUX9sv1N/bL9Tf2y/U39sOFmJyFnHf9/gubWyfRNZk/3DqDWYLj/G4/HHcrpujaL9UP2mrPPxdbElWNYsWm+flSBwPY85nY6dqNNxGNO6fk9fbKejfVgjYB1sR6zd+OC7nqMbVMkXNfQOc4PVdnAErOE9pLNZRN0PNh2X2YVU14i60/UW04dQfvtJZYs74mS0NV3H5KG6kNHRnE1rKLn5JLLFYLuN5+lczZWVybqL9Uwmniw2i4SjR49BGyzVfI67GEyk0clhs8hsbHo4sB885s2jeMzKkAw2Yo3efVuwK2Zlup+DUEbj4dlIOFCkNNlZlLHxEE+HZSPh1GHSmuysTrBF0+HYSLj0HPlgR+nBE5IOw0bUNevURPZNt51grIo4m0V2BquRLJHtT1XxphNmI/tFt4ZxlhZTRsIdU5DNCse+XNtYJOo+DwU7phCbRd7MOgfatUx/KhZGi7CRcO7foDueRL3DTKTpBNhIZOo3JEtk9tcCow7MZqnjmzbaj7R3uDuAspHZS13Ouly6HUHhgGxkp93GPGZFgyWwX4LYLDIO7kSWyHsOQXAQNit8rzsQKZeugOwlgI0Mv25tH9MyfMig42cjD55xZ7RYvQE/HDcbGQV3MP1Z9T+44XjZyKB3b6ofaVteOE42sr6ngbwWe+S0lnxsZOrfm+hCbMMHx8XWLDRFcfjgeNjIulloMRxXt+RgI4PmjLV/YnMOg1LNRnZ4NKozzdWcTseJ/2CiOwaX8sbVcJVsJMKiGU6fPrXawzDZKQ2H7dZW6TvoMMCdVsJVsVkzDfeV9eBzMCQpDQcvATZ+C1pVcBVs1sRAfWG99zRLg33r9alno9ho8FABV9VuC8x0zeg9TfLJEk22PdR3o2xYbi3L2cgTZpLNDgVt9k+zg4eBM14Q7UYGrviTaTAtJ0s0RQXgdrknKGOz9ognG512NRohbR3T6bulM54SNiuk4mj6qmSkXWryiTCYNNiXDLkSNvIobsj0l5APjRD1gIAzlFCEjbTEB5u54kaL4V4Q3bJTMuQK2ayheIBMdc4O+a2QL8smX8GoEK6QjYh7tngUQNBiX4CYZ1A2KRpyRWxkIO56YusFFKL7K/pjUcMVsFlDxGB7h6IRskHYE/+tAK6AjWzEe2QPNNi+NemLs1GjwFbms1lv4s3mcIQjWU0RK9adgrlcPluoiFsuz6omyZGDsJX+LNec5LKRpXiILNZshAwQUXk8wnnZrIkm/BjqA7z2pVRM1Oy+5TVcHht5QgRbT2JohGwxodeKk83CuNIuV/SfpweEj1O8vAWGHDbyiIjvHFG02Jog2Cjlajdrj/A15lyc7QmzOsTW2YbLsiHcdvyIljjbDrMpSw2OdkM1m+JWrJCU6RXzYIVlp+AZNjLHzIM9QQ+QSEUtDFElYyrTbNYQ8/WoIo5GCCIYiuXt0nBpNvKBSUIzFhi2d9RypXFId8o0W4jK+sGYSULmuLQc98EqZbNaqAwS8agkESYy+X54KRs54Jb/78lG3dTqwjUbzgHEbNs7silOyg1cs5Exbm/FfMSwIcebYnyWsanIfK3YViGEs5Ox/OtV5is2KxKfuB1FKYYNsUT/Lfs6Z+iKDRWTHKUh4pIQuUMbf1qzmE3tY3+7+PSNkBlmAvetaxd3yWa9oSK6RA542fUsnGs96rpTXrKhjXBsKDfibJgp8Y/oVxGb1cEnfmiqMBvSjh0VXK7mXbBZe3yHV7Q3UTSsjT7KuZx+X7CRqYRzKOKdUkKXPD4+n+1Zxm8PBHYDEoVyck+1MJctdGUk7XY+xNiWcg4vaW0rh81qy+jwCg2E3Hco5eHxp71I8zqzkamcwyi20FwAGaSfdDngLtgwa3eX6gmsdb1Ky/Tu5I43U1KOfDzVAAs3Jb7UxX7ViQ2Tl5ASA5uTpbyzMGyXw4YPJk8KgA4cnX56IXtJMmxSPPc/ua8QtFf05OZCxnMOm5S44EfUBnjwiSnznM/Fjs65T8obzrEMM5PHW4iGy6zN6LzadWIL5R5tMxzO3KC9Lfl0lvaQZsPtA+SI+lzbVTv0VD+ts6E8sT1ICnrOcueVczn1SfIXVS6jrhObhBl9WrY+Kker5XS/vk2zSXUB/0TdRcna0H4hZeKR1tkJnNhkBaupBwWLAj/+tgjqOeJpHNLjTap7u3qUp42j1MBTozGTXGLorLODO7GhF6yLZXvBYdyKZsPJZPgatT4OgVdLJ/kW9cIUm/VS6yFgw2Ze343V95hsh5ZW95/zPvnur0acApYhd5ZiC7HLrlR3mKel5FV8sNQPeI6MNnX3abaq1ygVdfzP7WAUPaTULv+tWuoHRoPxwtOwR/9OQdeJDROWMGNaEBqX5jHl7iCH7bGJKwCgRSk2RMqk6RVvcLTLYqpe0SzvbeEj6LwUGyId1HsuW7RbFXewsiXoNuL0WIZNOGfeX5aQlW48la+HDVzRppPWbkHFhptVuMJUtXMwOQhGuGk20fHWr9xL/CgKQYLKZcy5WL/M2BIxO8nGVe9HJgWrqjzpGmOhl8qyifg3rtS0AjcQ8CyobEUmlVn/JhKXdHlWs15zFx85s6PeBWYLmbhEJJ5kfMccHvM+m8u3yBcKHPfIxJMC8wD6xfV6uQ3nlHuOs3bwIZeZBwjM37SK1ZCTshk51Obe8gcvm2bnb/B5N13xvt4wU0DP409Hj7rQ9zoNM/H1EkC6/DblhUEpbVBDkLNeAt41BWSSTFJOGHQeFboAl13nsqAnD0Aprtcn92xQdiw06yW7PgleV9YiyAtepsdTBtvtB0ZeOevK0ImAC0puutw9dHcgNKgF9zL7AdDkefMZ9oJnBw79STKGhUzdzD4ONMMcevTyHK9q0MQh4GnNnP03YCa0B81J2/2sLvTBJ61guzAX53Iu9rtBn0cDJ7h+V9XQ4ZnoMLa8/W5gngKcTU0qQlATnhEFY8vLUwDml8DZSFLFpgesIgFny8svUVVQCrsAGxn41UsQaLa8vCBgtCzCRrZCx6xgbPq5sS7Y1hBjIsQmJhBbfh4eLOpqKpuTmz+pgs5VNJWt+5CX96qSZ0Bk0lS2gnxl0IBrKFtRnjnoYF9D2a6O912dWQFkvjaUrehcB+g8TjPZ6KrwPE7EH1I2k62zLGJTVX4P10y2/tWhzOtzi/xlNhrJRmnxuUXAedNGsl13yfT5bm4P10i2VC0r0fPdTWQzXsrOd1t73glqE9nYoKzmAP9qVxPZ3FRdvHQdjB2ni2sgm56+ECJTv4TzvssGsvXTdW0zdWc4zw82j81YVNWdsYZ8t/E1j03L1MTL1nniC5gbx0azJfGy9blmXLO4xrHlVMTLqauWmzPRdDaaBcmrh8fVcE1j83Iqm+fWMeRouIax5TWbcP3JhrHx1p+MTWV1xNwsNuOFtyaqlc6ZyPtQoK18HFv1xMuPeNlUjmrHmAIzQFU73KtVyQo2VS1Jof4WrqofRNUZubQPqK+sWlGlOYEfUBdT+6ty1uUsc5utsJ55tR/omOM3wVolvJq01xzn/2jR3Q9Fdeg5zAm1PXe1WbaiV0RRrnyFs7fB+F1xuzx3O+UbkmI2lbS4lryo2UkOf9HFZrxuRfuJeCWkWNZkFu3W483B9N3k2BHfTLL4Ipniex8gqcLUMO0O01w/sFeLzfZj2tpF7dmwGjWcvLbbu9b0Y745KG7gesyxTdAVF1QvvNC1+L6OCTQp84Sp2w5jXkIa9DR79XJYvD8+zudPP5rPHx/fF4cXxen3Ar/f1Rjr2HpMJHR+Kii6GaH0npWdnKIf1IhlxtJ/lPw9/i90Zb+jOiW3ZpbdjzO/3d3qojK+it+//D6qatdyZ9Eg32tXs1mz5l20eK1+6f12pe1GWk27IPNaTroyL4BNFTsQcyuZh9KXr2BTrfd7X2tdLGoW3mjExxauGmtP3LL70TjYVOsVc7lLnfKLL9niZFPJg/zyKTLk5lz0AGVTyVszLiW/lsZxRXk1W+wJmufmPJ4LyjnYGnhZMtdVyVxsjYNjhVe+wdliOGk1FCXI42o1XrYErjEGxSuPtMBs8WyuKS3nctzcDWNTSVRLxSmokpt8eV+Zm00le7uu0kwANL/y1m4RNtWavNx7Im6wNj8ahC0OnDfyaouKyF4NAWggNtUiy8xx5htK2xQu1+HZkuCS3WvQJVYEhAZlU8lwcZ+puK5DhpoQm2pZH/dw4y6wPwqxJTM6WmM5u1yZ/gDYHwXZYnu5vW3TaQuQfcSwJUHK1+2WGnRNpNGE2VRLXfq3MZiG/zgRaTRxtrjpZs/9+pfAqPcZiTUahi125G+fqAKBHHLsgSpKhmFLOmaLsvroqK19hILdEc0Wd8xwrddFZ3e3E+HuKIHtm66Onul0x0McGZ4tplNbq65cm2kwNkW2mRy2xKpEmx5nfjqHdP+lpeLJ5LAldMOlocnY8jGYtn2QAabKYkvorGjuIQtCG8x/3oWSyOSxqQleOJozTbBzUp357wMJo+wsiWzqES8arwIGLLVLTcc157sYTCKZbDb12DmHraeV73X40nsMm/nmZr1XJYOpNbCpyfQ15ntbPiuuxuyCfB+qUMN2PNdcjHczlcjsiifVwZYo5iPqpN1aPh4o63Y9xhync5ST1M92PePleTyIhiGR317/VBfbUVZCGCMO99GoNZhOl8vldLpu7aKH2eSYl1gb1lG1sv2TZX1T/qQSHnWDx96E7U76Y/ud+mP7nfpj+536Y/ud+mP7nfpj+536P7P9BxCUMtFCAb4KAAAAAElFTkSuQmCC;" vertex="1" parent="1">
          <mxGeometry x="677.86" y="93.88" width="35.92" height="37.73" as="geometry" />
        </mxCell>
        <mxCell id="v9ebatE_qt70Te6h0S2r-2" value="" style="rounded=0;whiteSpace=wrap;html=1;fillColor=none;" vertex="1" parent="1">
          <mxGeometry x="900" y="80" width="90" height="150" as="geometry" />
        </mxCell>
        <mxCell id="v9ebatE_qt70Te6h0S2r-3" value="1.Personal&lt;br&gt;Details&lt;br&gt;&lt;br&gt;2.Water Requirements&lt;br&gt;&lt;br&gt;3.Payment&lt;br&gt;&lt;br&gt;4.Feedback" style="text;html=1;strokeColor=none;fillColor=none;align=center;verticalAlign=middle;whiteSpace=wrap;rounded=0;" vertex="1" parent="1">
          <mxGeometry x="925" y="142.26999999999998" width="45" height="20" as="geometry" />
        </mxCell>
        <mxCell id="v9ebatE_qt70Te6h0S2r-4" style="edgeStyle=orthogonalEdgeStyle;rounded=0;orthogonalLoop=1;jettySize=auto;html=1;exitX=0.5;exitY=1;exitDx=0;exitDy=0;" edge="1" parent="1" source="v9ebatE_qt70Te6h0S2r-2" target="v9ebatE_qt70Te6h0S2r-2">
          <mxGeometry relative="1" as="geometry" />
        </mxCell>
        <mxCell id="v9ebatE_qt70Te6h0S2r-5" value="&lt;b&gt;&lt;font color=&quot;#007fff&quot;&gt;&amp;nbsp; &amp;nbsp; &amp;nbsp; &amp;nbsp; &amp;nbsp;Customer&lt;br&gt;Requirements&lt;/font&gt;&lt;/b&gt;" style="text;html=1;strokeColor=none;fillColor=none;align=center;verticalAlign=middle;whiteSpace=wrap;rounded=0;" vertex="1" parent="1">
          <mxGeometry x="915" y="29.999999999999982" width="60" height="30" as="geometry" />
        </mxCell>
        <mxCell id="v9ebatE_qt70Te6h0S2r-7" value="&lt;font color=&quot;#007fff&quot;&gt;Customer DB&lt;/font&gt;" style="text;html=1;strokeColor=none;fillColor=none;align=center;verticalAlign=middle;whiteSpace=wrap;rounded=0;fontStyle=1" vertex="1" parent="1">
          <mxGeometry x="1055" y="176.79999999999995" width="70" height="30" as="geometry" />
        </mxCell>
        <mxCell id="v9ebatE_qt70Te6h0S2r-8" value="Web App Designed using Node - Red" style="text;html=1;strokeColor=none;fillColor=none;align=center;verticalAlign=middle;whiteSpace=wrap;rounded=0;" vertex="1" parent="1">
          <mxGeometry x="800" y="102.74000000000001" width="90" height="40" as="geometry" />
        </mxCell>
        <mxCell id="v9ebatE_qt70Te6h0S2r-9" value="" style="shape=image;verticalLabelPosition=bottom;labelBackgroundColor=default;verticalAlign=top;aspect=fixed;imageAspect=0;image=data:image/png,iVBORw0KGgoAAAANSUhEUgAAAgAAAAIACAYAAAD0eNT6AAAABHNCSVQICAgIfAhkiAAAAAlwSFlzAAAN1wAADdcBQiibeAAAABl0RVh0U29mdHdhcmUAd3d3Lmlua3NjYXBlLm9yZ5vuPBoAACAASURBVHic7d13fBV1vv/x90kvEAiBEHrovYVeBZRiQYoUsbCWtV177150dVd/VhAsa8WGimJBFERBpBsgFOndACEBkkB6//2BeEUpmTkzZ04yr+fjsY+7d5nvdz4kIfM+3/kWz4tSmQAAgKsEOF0AAADwPQIAAAAuRAAAAMCFCAAAALgQAQAAABciAAAA4EIEAAAAXIgAAACACxEAAABwIQIAAAAuRAAAAMCFCAAAALgQAQAAABciAAAA4EIEAAAAXIgAAACACxEAAABwIQIAAAAuRAAAAMCFCAAAALgQAQAAABciAAAA4EIEAAAAXIgAAACACxEAAABwIQIAAAAuRAAAAMCFCAAAALgQAQAAABciAAAA4EIEAAAAXIgAAACACxEAAABwIQIAAAAuRAAAAMCFCAAAALgQAQAAABciAAAA4EIEAAAAXIgAAACACxEAAABwIQIAAAAuRAAAAMCFCAAAALgQAQAAABciAAAA4EIEAAAAXIgAAACACxEAAABwIQIAAAAuRAAAAMCFCAAAALgQAQAAABciAAAA4EIEAAAAXIgAAACACxEAAABwIQIAAAAuRAAAAMCFCAAAALgQAQAAABciAAAA4EIEAAAAXIgAAACACxEAAABwIQIAAAAuRAAAAMCFCAAAALgQAQAAABciAAAA4EIEAAAAXIgAAACACxEAAABwIQIAAAAuRAAAAMCFCAAAALgQAQAAABciAAAA4EIEAAAAXIgAAACACxEAAABwIQIAAAAuRAAAAMCFCAAAALgQAQAAABciAAAA4EIEAAAAXIgAAACACxEAAABwIQIAAAAuRAAAAMCFCAAAALgQAQAAABciAAAA4EIEAAAAXIgAAACACxEAAABwIQIAAAAuRAAAAMCFCAAAALgQAQAAABciAAAA4EIEAAAAXIgAAACACxEAAABwIQIAAAAuRAAAAMCFCAAAALgQAQAAABciAAAA4EIEAAAAXIgAAACACxEAAABwIQIAAAAuRAAAAMCFCAAAALgQAQAAABciAAAA4EIEAAAAXIgAAACACxEAAABwIQIAAAAuRAAAAMCFCAAAALgQAQAAABciAAAA4EIEAAAAXIgAAACACxEAAABwIQIAAAAuRAAAAMCFCAAAALgQAQAAABciAAAA4EIEAAAAXIgAAACACxEAAABwIQIAAAAuRAAAAMCFCAAAALgQAQAAABciAAAA4EIEAAAAXIgAAACACxEAAABwIQIAAAAuRAAAAMCFCAAAALgQAQAAABciAAAA4EIEAAAAXIgAAACACxEAAABwIQIAAAAuRAAAAMCFCAAAALgQAQAAABciAAAA4EIEAAAAXIgAAACACxEAAABwIQIAAAAuRAAAAMCFCAAAALgQAQAAABciAAAA4EIEAAAAXIgAAACACxEAAABwIQIAAAAuRAAAAMCFCAAAALgQAQAAABciAAAA4EIEAAAAXIgAAACACxEAAABwIQIAAAAuRAAAAMCFCAAAALgQAQAAABciAAAA4EIEAAAAXIgAAACACxEAAABwIQIAAAAuRAAAAMCFCAAAALgQAQAAABciAAAA4EIEAAAAXIgAAACACxEAAABwIQIAAAAuRAAAAMCFCAAAALgQAQAAABciAAAA4EIEAAAAXIgAAACACxEAAABwIQIAAAAuRAAAAMCFCAAAALgQAQAAABciAAAA4EIEAAAAXIgAAACACxEAAABwIQIAAAAuRAAAAMCFCAAAALgQAQAAABciAAAA4EIEAAAAXIgAAACACxEAAABwIQIAAAAuRAAAAMCFCAAAALgQAQAAABciAAAA4EIEAAAAXIgAAACACxEAAABwIQIAAAAuRAAAAMCFCAAAALgQAQAAABciAAAA4EIEAAAAXCjI6QIAwC94PIrr3l2NhgxRXI8eqtGqlcJq1FBodLTTlfmlgowM5aenK33LFh1cuVJ7583TwcREqazM6dJQTp4XJb5bAFwrODJS7W+4QR1uvFHVmzd3upwKLXP7dq1/9VWtf/11FefmOl0OzoIAAMCdPB61vvJK9Xv2WUXExjpdTaWSm5qqxffeq80ffMCIgB8jAABwndDoaA2dPl1Nhg93upRKbdfs2Zr3j3+oICPD6VJwCgQAAK4SFR+v0fPnq3qzZk6X4gqZO3Zo1pAhOrZ7t9Ol4C9YBQDANaLi4zVu8WIe/j5UvVkzjVu8WFHx8U6Xgr8gAABwhdDq1TVq7lxVqV/f6VJcp0q9eho1d65Cq1d3uhT8CQEAgCuc98Ybim7Z0ukyXCu6ZUud98YbTpeBPyEAAKj0Wowfr+Zjxjhdhus1HzNGLcaNc7oM/I4AAKBSCwoLU//nnnO6DPyu//PPKygszOkyIAIAgEquzdVX897fj1SpX19trr7a6TIgAgCASq7DjTc6XQL+ouPNNztdAsRZAAAqsVqdOqlmhw6G22Vu367EZ57Rb99/r5yUFJUWF9tQXcUVEBSkyDp11HDIEHW7/37DWyjHtG2rWh076tC6dTZViPJgBABApdVoyBDDbXZ/840+6NRJG996S1nJyTz8T6G0uFhZycna+NZb+qBTJ+3+5hvDfTQaOtSGymAEAQBApVWnVy9D1x/bvVvfTpjAQTYGFOfm6tsJEwzv9Fend2+bKkJ5EQAAVFrRrVoZun71c8+pKDvbpmoqr6LsbK169llDbWoY/N7AegQAAJVWZFycoev3zJ1rUyWV39558wxdH1mnjk2VoLwIAAAqreAqVQxdn71vn02VVH5ZycmGrg+uUkXyeGyqBuVBAABQaQUEBhq6vqSoyKZKKr/SoiKprPyHy3oCAuQhADiKAAAAgAuxDwCASie8Zk2Fx8Y6XQbg1wgAACqcyDp1VLN9e8W0a6carVsrsm5dRcbFKaJ2bUXExiogONjpEgG/RwAA4PciatdW4wsvVIOBA1W3Tx9FNW7sdElAhUcAAOCXQqOj1eqyy9T6yitVu1s3eQKYsgRYiQAAwK9Ua9JE3R54QK2uvJJjYwEbEQAA+IXQ6Gj1/c9/1PbaaxUQxK8mwG78KwPguOZjx2rg1KmKYOY+4DMEAACOCQwNVb//9//U6bbbnC4FcB0CAABHhNeqpRHffKO47t2dLgVwJQIAAJ+Lio/XqLlzFd2ypdOlAK5FAADgU1GNGmnszz+raoMGTpcCuBoLawH4THitWho5dy4Pf8APMAIAwCeCwsI0YvZs1WjVypb+c1JSlHPggHJSUpSbmqrs/fvV49FHOXIWOA0CAACfGPTqq4rr0cOSvgqOHtVv8+crddUqpa1Zo7Q1a5R/5Mjfruv+yCMcOQucBgEAgO1aXX652lx1lVd9FOfmavtnn2nbzJn6bf58lRQUnL2RgfPpJcnj8ajMYBv8jqBV4RAAANgqsm5dDXz5ZdPtS4uLtemdd7R80iTlHDhgqG1xXp6Cq1Qp9/VhMTHKO3TIaImQFB4TYygEFOflqay01MaKcDZMAgRgq/PeeEOh0dGm2h759Vd92Lmzfrj+esMPf0nKz8gwdH2dXr0M3wPH1end29D1+enpNlWC8iIAALBN22uuUeMLLjDVdsesWZrRo4eO/Pqr6ftnbttm6Poud9/NULYZHs/xr50BGQa/N7AeAQCALcJr1lT/554z1Xbz++9rzrhxKs7N9aqGtDVrDF1fr39/9X/uOY4eNsATEKD+zz2nev37G2pn9HsD6/FTDsAWvZ54wtTQf/KCBfrhn/9UWUmJ1zX89uOPhtsk3HWXxi1ZouZjxigyLo4RgVPxeBQZF6fmY8Zo3JIlSrjrLsNdJP/wgw2FwQjPixJTXgFYqkabNrpi3TrDx/qmb9miT3r3VoHBd/enExAcrOv271d4rVqW9Adr5B85ojfq1SvfSg7YhhEAAJYbMHmy4Yd/cV6eZo8cadnDX5JKi4q06d13LesP1tj47rs8/P0AAQCApRpfdJEannee4XZLH3pIGVu3Wl7PmhdeUHFenuX9wpzivDytef55p8uACAAALOQJDFTfp5823C5l2TKt9WKvgDPJOXhQiSZqgj0S//Mf5aSkOF0GxBwA+BuPRzXbt1edXr0U3aKFIuvUUXBkpIIiIpyuzK8U5+aqKDdX2fv3K2PrVqUsW6YjmzYZ3vnOah1uukmDXnnFUJuSwkJ90L69rcvCAkNCdOnKlarVqZNt98DZHVq7Vh/37Mnwv59gJ0D4heiWLdX+hhvUcsKE4zOvYVjWb79py4cfKmnyZOWmpvr8/iFRUeo5aZLhdmtfftn2NeElhYWaM3asJvzyi+lNieCdgsxMzRk7loe/H2EEAI6Kio9X32eeUfMxY1h7bZGinBytmzpVq5599pQH5Nil33PPGd4MJu/QIb3bvLkKjh61qaqT1e3TR6O//54RJR8rzsvTrCFDdGDJEqdLwZ8QAOAMj0edbr1Vff/zH34Z2yQ3LU3fXXqpkhcutP1eNVq3Pr7sLzjYULsfb7xRG15/3aaqTq1O794a8fXXCouJ8el93So/PV1fX3yxDixd6nQp+As+csHngsLDddHMmRoweTIPfxtFxMZq9Pz56vbAA7ZvZjNgyhTDD/8jv/6qX99806aKTi9l2TLN6N5dqatW+fzebpO6apVmdO/Ow99PBQ6TJjldBNwjODJSo+bOVfywYU6X4gqegAA1PO88BYaEKNnErnjl0frKKw0P/UvS9//4hzK3b7ehorMryMjQpnffVVF2tur06qXAkBBH6qisCrOytPyxx/TDddcp//Bhp8vBafAKAD4TEBSkkd9+q4aDBztdiiv9dNttli+1i4qP1+Vr1yq0WjVD7fZ+/72+GDrU0lrMCouJUefbb1e7a69VZN26TpdToeUcOKBf33pLSZMn+3T+CcwhAMBn+j37rLrcc4/TZbhWWWmpZp13nmVzAjyBgRqzcKHq9etnqF1pcbE+7NzZq1P+7OAJDFS9fv3U8NxzVbtbN0W3bKmwmBiFVK3qdGl+qSg7W3mHDytj61alJibqtx9+0P4lSyw5wwG+QQCAT9Q/5xyNWbiQg1UclrFtmz7o0MGSpVhmA92aF1/UzyYOjwFgLSYBwnaewEANevVVHv5+ILpFC3V78EGv++ly772mHv45KSlaYWKvAADWIwDAdi0vvVQ1Wrd2ugz8LuHOOxVcpYrp9u3++U/1e+YZU20X33uvCo8dM31vANYhAMB2nW67zekS8CchUVFqMW6c4XaBoaEaMHmyzvvvf02N5uz57jtt+egjw+0A2IM5ALBVjdatNXHTJsPt8g4f1topU7T722+VvW+fSgoLbaiu4goMCVGV+vXV+IIL1Om22xRes6ah9ikrVuiTXr3KfX1s58467803FZuQYLRUSVJuaqo+6NBBuWlpptoDsB5nAcBWZtb7pyxfrq9HjFDeoUM2VFR55KamKm31aq1/7TVd/NVXqmPggV6nRw9FxMae9YFcu2tX9Xj0UTUZPtz8HI6yMn1/zTU8/AE/wysA2Kpu376Grs9JSdFXw4fz8Dcg79AhfTV8uLEjVj2e0waG6BYt1PW++zR+6VJNSExUk4sv9moC57pp07Tn229NtwdgD0YAYCujk/9W+/gAm8oi/8gRrX72WfV/4YVyt6nRurX2/fyzanXsqJrt26tmhw6q27evarRqZVld+3/+WT+b2CUQgP2YAwBb3ZSRodDq1ct9/bvNmytzxw4bK6q8qjdrpqsMbK1bUlCgwNBQ2+rJ3LFDn/TqpTy2ggX8Eq8AYCujy82ykpNtqqTyO7Z3r6Hr7Xz45xw4oFlDhvDwB/wYAQC2CggMNHQ9s/3NKy0qksr8Y0DvyMaNih82TPX69TM0AgTAd5gDAMByDQcPPunQp6zfflPq6tU6uGKFUlasUNrq1SrKyXGwQgAEAAC2q9qwoao2bKhmo0ZJOn4g0KGkJCUvWKDkBQu0f8kSFefmOlwl4C5MAoSt7igtNbSE7KWAAL8Zxq6IjH69/UVJYaEOLFmiXV9/rZ1ff61ju3c7XRJQ6REAYCsCgG9V1ADwV4c3bND2zz7T1hkzlGlgZQOA8iMAwFYEAN+qLAHgz1ITE7Xlo4+0+f332SMCsBCrAAD4tdrduumcF1/UP/ft07APPlC9/v2dLgmoFAgAACqEoLAwtbr8co1dtEiXJyWp9cSJ8hhcZgrg/xAAAFQ4tTp10tDp03XFunVqPXGiAoJY0AQYRQAAUGHFtG2rodOn66pt29ThxhsVEBzsdElAhcEkQNiKSYC+ZeTrnZuaqtmjRys4IkIBQUEKrlpVHo/n+M59Ho/CoqMVGh39t/8bERuriNq1/fJhm75lixbdcYf2zpvndCmA32PcDHCpksJCpSxbZq6xx6PIuDhF1q2rKnXrqmqDBqraqJGiW7ZUdMuWqtakiQJDQqwtuBxqtGqlUXPnatfs2fr57rtZQgicAQEAgHFlZcpJSVFOSorSVq/+2x8HBAUpKj5eMW3bKjYhQbFduqh2166KqF3bJ+U1GT5cjYYOVdJLL2nlv/6louxsn9wXqEh4BQBb8QrAt4x8vbOSk/VWw4Y2V3SyKvXrq27v3qo/cKAaDBqk6BYtbL/n0V279P1VV2n/4sW23wuoSAgAsBUBwLf8PQD8VZX69dVo8GA1HTlSDQcPVlB4uC33KSst1ZoXXtDyRx9VcX6+LfcAKhpWAQBwTPa+fdr4zjv6esQIvR4bqznjxmn7zJkqKSiw9D6egAB1ueceTVi1SrEJCZb2DVRUBADYqszgp3lPJdvG1qeMfu38bKSlKDtb22fO1Jxx4/Rm/fpadOedOrJxo6X3iGnbVuOXL1en226ztF+gIiIAwFZGj3gNi4mxqZLKL7xmTUMhoCgnx8ZqvJN3+LCSXnpJ77drp88HDdKeuXMtCyyBISEaMHmyzv/oIwVHRlrSJ1AREQBgq/yMDEPX1+3Tx6ZKKj+jX7v89HSbKrFW8sKF+vL88/VBp07a9sknlgWBlhMm6NIVK3wyERHwRwQA2Cpz2zZD13e+445Kd5qdT3g8SrjzTkNNMgx+b5x2eP16fXvppfqoWzf99sMPlvQZ066dJiQmqvFFF1nSH1CREABgq9RTrBE/k/rnnKMejz5qUzWVV49HHzV8Sl7amjU2VWOvtNWrNWvwYH110UU6tnu31/2FREXp4i+/VOfbb7egOqDiCBwmTXK6CFRurSdONHR9g4EDVb1FCx1au1YFBl8huE21Jk00aNo0dbr1VsNtF999t/IOH7ahKt/I3L5dG/77X8njUZ2ePb06GdATEKD4YcMUUbu29s6bp7LSUgsrBfwT+wDAVgFBQbo2OVmRcXGm2qdv2aLsffssrqpyqFK/vmq0amWq7eH16/VBx44WV+Sc2M6dNfT99xXTtq3Xfe2dN09zxo1T4bFjFlRWsVVv3lzxw4apbt++qtGqlao2aKDgKlX88hwIJ5UWFakoO1tZyclK37JFB5Ys0Z65c/1+K2oCAGzX+6mn1P2hh5wuA3+y8NZbtW7qVKfLsFRQWJj6/Oc/x4fyvZxHcnjDBn110UXK+u03i6qrOAKCgtRi/Hh1vOUW1enZ0+lyKrSDK1dq7csva9snn6i0uNjpcv6GAADbhdeqpWt272bJlZ/ISUnRO02bqjgvz+lSbNHskks05J13FFK1qlf95KSk6Kvhw0951kFlFT9smM6ZPJmVERbL2LZNi26//fhyVj/CJEDYLu/QIa3817+cLgO/W/rgg5X24S9JOz7/XDO6dvV6E6HIOnU0dtEiNR0xwqLK/FdQeLgGTJ6skd99x8PfBtEtWmjkd99p6Hvv+dUHIUYA4BMBwcEav3Spanfr5nQprrb3++/1xbBhfrcLoB1CqlbVkHfeUbNLLvGqn7KSEi2+916tefFFiyrzL5FxcRrx7beK7dzZ6VJcIS0pSV9deKFyUlKcLoURAPhGaVGR5owdW6FnnVd0WcnJmnvFFa54+EtSYVaWvhk7VksffNCrWf2ewED1f+EFDfvgAwVFRFhYofMi69bV2MWLefj7UGznzhq3eLEi69Z1uhQCAHzn2N69+vL881WYleV0Ka6Tf+SIvhg2THmHDjldim+VlSnx6ac1Z9w4r197tLr8co1ftkzVmjSxqDhnhVStqtHz5ql6s2ZOl+I61Zo21eh587yep+ItAgB8KnXVKn0+aJBy09KcLsU1svft08wBA5S+aZPTpThmx+ef67OBA73+uavVsaMmJCYqftgwiypzznlvvqmYdu2cLsO1Ytq103lvvOFoDQQA+FzqqlX6uHt3pSxb5nQplV7ywoWa0b27jvz6q9OlOO7gypX6uGdPpW/e7FU/YTVqaMScOer79NMKDAmxqDrfajFunFqMG+d0Ga7XYvx4NR871rH7MwkQjgkIClKnW29Vz0mTFBIV5XQ5lUpBRoaWPfKI1r/+uspKSpwux6+ERkfros8+U4NBg7zuKy0pSfMmTqxQASsoLExX79zpF++gIWXv3693mzVTcX6+z+/NVsBwTFlpqVJWrNCGN95QSX6+olu0cPydWEWXvX+/Vj/3nL67/HLtX7zYNRP+jCjJz9fWGTMUWaeOYhMSvOorsk4dtfvnPxUUFqaU5cv9crOXv+pw0018+vcjIVFRyj10SAdXrvT5vRkBgN/wBAaqwaBBajR4sOJ69lSNVq0UXquW02X5tbxDh5S+ebNSli/X3vnzte+nn/jEb0CXe+5R32eekSfA+7ehmTt2aMl992nHF19YUJl9Jm7ebHoLadgjY+tWTXfge0IAgH/zeBRavbrTVfilgsxMPuFboMnFF+v8Dz9UcJUqlvR3YOlSLb7vPr+c41K7WzdN+OUXw+1yDhzQmpde0u5vvtGxPXsq9UZSZgSFhyuqUSM1vugiJdx5p6nXKzO6d1dqYqIN1Z0eAQCA69Xq1EnDZ81SVOPGlvWZvHChVj39tPZ+/71lfXqr+yOPqLfBXTmTFy7UnDFjlJ+eblNVlUtodLQumjlTDc4911C7ZY8+ql+efNKmqk6NVQAAXO/Q2rX6MCFBO7/80rI+GwwcqFHz5unytWvV8X/+R6HVqlnWt1l1evQwdP2xPXs0e8QIHv4GFGRkaPaoUTq2Z4+hdk4cvEQAAAAdf6Uye/Ro/XzXXSotKrKs31odO2rgtGm67sABDX3vPTUZPlxBYWGW9W9EtMH3zIlPP83GXSYUZmXpl3//21AbJ+Zl8AoAAP6iTs+euuCTT1S1YUNb+i/MytLuOXO057vvlPzjj8rev9+W+/zVTZmZhkYi3o6P17G9e22sqPKqUr++/pmcXO7rC7Oy9IqPl0MTAADgFMJq1NCgV1/1yZK5jK1blbxwoVJ/+UWpq1crfdMmW5YU3l5cLE9gYLmvnxISYuloiJt4AgN1e1GR5PGUr0FZmV4KDPTpxF4CAACcQfMxYzRw2jRFxMb67J7FeXk6vH69jmzapMzt25WxbZsyt2/X0V27VJSdbbrfO0pLy/9AkjQ5MNCrg5Tc7vaSEkNLTH399Q7y2Z0AoALa/tln2vfTT+r79NNqc/XVluwZcDZB4eGK69FDcaeYtFeUk6Os5GTlHjyo7H37lJ+eroKjR1WQmamCo0dV+Pt/l6Si7GyVFBVJZWV//G/ACYwAAEA5xXbpooFTpzoyY9sJjAB4x99HAFgFAADllLZ6tT7t00dzxo3T0Z07nS4H8AoBAAAMKCst1faZM/Vemzb66bbblJOS4nRJgCkEAAAwoaSwUGtffllvx8dr3j/+4fUxw4CvEQAAwAslhYXa/N57er9dO80eNUp7583jvTkqBAIAAFigrLRUO7/8Ul8MG6Z3mjbVL089pex9+5wuCzgtAgAAWOzYnj1a9sgjerNBA33UtavWTpminAMHnC4LOAnLAAHABzwBAYrr0UONhg5VoyFDFNe9u6Fd+ZzAMkDv+PsyQAIAADggNDpaDQYOVN2+fVWnRw/FdumiwNBQp8s6CQHAO/4eANgJEAAcUJCRoR2zZmnHrFmSpMCQEMUmJCi2a1fVbNdONdq0UUzbtgqrUcPhSlFZEQAAwA+UFBYqZcUKpaxYcdL/HhkXpxqtW6tqw4aKio9X1YYN//hPZFycQnx8ghwqDwIAAPixnIMHlXPw4Gn/PCA4WOExMQqLiVFYjRoKi4lRUFiYQqKi5AkMVEhUlAJ+/79d77/fh5XD3xEAAKACKy0qOmtIOKHrffcZOg0QlRvLAAEAcCECAAC4hNEZ5oFhYTZVUvkFhoYaOzq6rExlZb5dlEcAAACXKMzONnR99aZNbaqk8qverJmh6wuzsyUCAADADnmHDhm6vvnYsTZVUvkZ/drlpaXZVMnpEQAAwCUytmwxdH3n229XVHy8PcVUYlGNGinhzjsNtUk3+L2xAgEAAFzir3sMnE1IVJRGzplDCDAgqlEjjZgzx/D+DCnLl9tU0ekRAADAJfbOm2e4TY02bXTFunXq9fjjimnXTkFMDPyboLAwxbRrp56TJumK9esV07at4T7MfG+8xVkAAOAiEzduVI02bZwuA3+SsW2bprdqxSRAAIB91r36qtMl4C/WTZ3q84e/RAAAAFfZ+Oabyt63z+ky8Lvsffv06xtvOHJvAgAAuEhxfr4W3XWX02Xgdz/dcYeK8/MduTcBAABcZvvMmdr68cdOl+F6Wz/+WDs+/9yx+xMAAMCFfrjuOh3esMHpMlzr8IYN+uG66xytgQAAAC5UlJ2tL4YO1dGdO50uxXWO7typL4YNU5HBrZmtRgAAAJfKSUnRp337Km3NGqdLcY20pCR92q+fcg4ccLoUAgAAuFnOwYP6tE8frZ0yxelSKr3N77+vmf36KSclxelSJLEREADgd42GDtWAKVMU3aKF06VUKhlbt+qn2293ZLe/MyEAAAD+EBAUpBaXXqpOt9yiuB49nC6nQju4cqXWTp2qbR9/rNLiYqfL+RsCAADglKo3b674YcNUr18/Rbdqpar16yuk2pyN1gAAIABJREFUWjV5Anh7/GdlpaUqPHpUWfv2KWPLFu1fvFh75s5V5vbtTpd2RgQAAABciBgHAIALEQAAAHAhAgAAAC5EAAAAwIUIAAAAuBABAAAAFyIAAADgQgQAAABciAAAAIALEQAAAHAhAgAAAC5EAAAAwIUIAAAAuBABAAAAFyIAAADgQgQAAABciAAAAIALEQAAAHAhAgAAAC5EAAAAwIUIAAAAuBABAAAAFyIAAADgPmWesrKyMqerAAAAvsUIAAAALkQAAADAhQgAAAC4EAEAAAAXIgAAAOBCBAAAAFyIAAAAgAsRAAAAcCECAAAALkQAAADAhQgAAAC4EAEAAAAXIgAAAOBCBAAAAFyIAAAAgAsRAAAAcKEgpwsAvPGSx2NLv3eUldnSLwD4C0YAAABwIQIAAAAuRAAAAMCFmAMAAKg0ivPyVJKf/8f/HxgaqqCICAcr8l+WBgA7JmTV7tZNl65YIU+AtYMVdk0eOxMmlgHeceLf7Z95AgMVEhUlT0CAImJjFREbqyr16yu6ZUvVaN1asQkJqtakic/qcfrrYZeQqlX1P8eOnfEaJ//uQWFhCgwPV0iVKgqKiFCV+vVVrXFjVWvSRLW7dlVcjx4KiYpyrL7y8vsRgNTERG169121veYap0sB4HJlJSUqyMiQJOUfOaL0zZv/dk3VBg3U4Nxz1fySS9RwyBAFhoT4ukzYrDg/X8X5+X/8LGRs3arkP/25JyBANTt0ULPRo9V8zBjVaN3amULPokLMAVh8333KP3LE6TIA4KyykpO16d139dXw4XqjTh0tuf9+Ze/b53RZ8KGy0lIdWrtWyx97TO+1aaMZ3btr68cfq7S42OnSTlIhAkD+kSNa9uijTpcBP9Tl3nvVaMgQRdap43QpwN/kp6dr1f/7f3q7SRMtuvNOFWRmOl0SHJCamKjvJkzQu82aaeuMGZKfvA72lJVZV4md72Q8AQEav3y54rp3t6Q/5gBUPnmHDunw+vU6tG6dDm/YoMPr1yttzRpTffG98k8V/Z13eK1aOu+NN9R0xAhL+qvoX4/T8fc5AN6q26ePBr36qmq2b+9oHRViBEA6PqSy8OabVVZa6nQp8FPhtWqpwbnnKuGuuzTknXd02erVTpcEnCTv0CHNHjVKi+64Q2UlJU6XA4ccWLpUM7p1U9LkyY6OBlSYACBJqatWaeNbbzldBgCYV1ampMmTNWfsWBX/abka3KWkoECL7rhDc8aNc+znoEIFAEla8sADyjt82OkyAMArO774QvOuvJJRTZfb/tln+nzgQEeea4GTJk2aZFVnBUePKig0VPkZGSopKLCq25MU5+Wp8OhRNRk+3Kt+8jMy5AkMVP7hw7bOzAyvVUt1e/dW05Ej1WjoUNvug1Nb8fjjptr1tO6fBSxUeOyYgiIjVZSVpeLcXKfL8Vr6pk3yeDyqP2CAqfZF2dkKjoxUUXa2inJyrC3OQYGhoer24INnvKYgM1OBoaEqSE9XSWGhjyqzR/a+fdo7b55aXnqpgsLDfXZfSycB/qGsTJk7d+pQUpLS1qxRWlKSDq5cadkMWCsnBJYWF+vIxo1KTUxU6qpVSk1MND1xrFbHjqrZoYNqtm+vmr//98i4OK9rhHlmJwoxCdD/5aSk/G3S5+H1650uy7CAoCBdunKlYhMSvOonNzX1b1+PQ2vXWlSlb5VnEuAJZaWlytyx4/iz5vf/JP/4o80V2qNO7966ZP58n+1caE8AOIXF99yj1c8/b1l/sV26aMLKlfIEBlrW5wk8NCoPvpfuYvb7HdulS7muKzx6VPkZGSrIyLB06L5O794av3SpZf2dUFFnyhsJAKfii5+D4vx85Rw4YPkrnCYXX6yLv/xS8sH3zu93AjydtNWrteGNN9ThxhudLgVABXfZqlWGri8tKlLamjU6sGyZNr/3nteftFOWLVPyjz+qwbnnetWPJTwe3WHTvIRXo6P9ei8Eoz8HJQUFyti6VfsXL9au2bP12w8/eL26Y9fXX2v1c8+py733etVPeVS4SYB/tvShh5R36JDTZQBwmYDgYMX16KGEO+/U5UlJGv3996rWtKlXfa579VWLqvNf4TVrOl2CpQJDQ1WzQwd1vPlmjZo7V1fv3Kn2N9yggCDvPlsvffhhHVy50qIqT69CB4CCjAwtOctEEQCwW8PBg3XZqlWKHzbMdB97vv1WhVlZFlblfypbAPirqEaNdO5rr2n88uWq0aqV6X5Ki4q04KabbN8rokIHAEna+PbbSlm+3OkyALhcaPXqumjWLNOTk4vz8rT/558trsq/hFXyAHBC7a5dNX7FCq9e6aQlJWn9669bWNXfVfgAoLKy4zsEsqsWAIcFhYfrgo8/Nn0CYGX/MFPZRwD+LLRaNY2YPVv1+vc33cfKJ55QcV6ehVWdrOIHAP2elF57zekyAEBRjRur3fXXm2p7eMMGi6vxL24KANLxQDj8iy8UFR9vqn1uaqo2TZ9ubVF/UmFXAfzV0oceUrPRo113Klz6li1KWbZMaUlJOrprl47t3q2CzEwV5+cf3ySkShUFhYYqNDpaUfHxqtakiWp17Ki6ffocP6Paz5YJlZWWKnXVKv02f74OrVunjK1blXvwoIpyclRaVKSQqChVbdBANTt0UINzz1WTiy5SaHS002V7JXv/fu1btEgHV6xQ5vbtyty5U3mHD6skL0/F+fkKCg9XYFiYImJjVbVhQ1Vv2lS1u3dXnR49VKNNG6fLxym0vfpqrZs61XC7rL17bajGf4TFxDhdgs+F1aihodOna+aAAab2/V/z/PPqcMMNtvyurjQBoPDYMS17+GENfvttp0uxXdrq1dry4Yfa+sknyjlw4IzXFmRkqEBSzsGDSt+8+aQ/i6hdW83HjFHLCRNUt08fGys+u9zUVK1/7TVteP115aSknPa6vMOHlXf4sNKSkrRp+nQFhYWpzdVXq9sDD6hqw4Y+rNg7+enp2vLBB9r8/vtKPcvSo+K8PBXn5akgI0MZW7fqt/nzpd9HvKo3a6bmY8ao3XXXqVqTJr4oHeVQq1MnRcTGKjctzVC77LP8e67o3DYCcEK9/v3V9qqrtPGddwy3zdyxQykrV6pOz56W11VhNwI6JY9HYxYuVP1zzvGqG3/dPGbvvHn65d//tmWiUO1u3dT9oYeOH1Pqw1GBkoICrXnxRf3y1FMqys423U9QRIS6P/SQut5//0lLcPzte1mQkaHVzz+vtVOmWDrj2xMYqOaXXKLeTz2l6s2aWdZvReNP3++Z55xj+N9qcGSkbvbi38Ffmfp62LgPgK/408/BCVnJyXq3eXNT2+Qn3Hmn+r/wguU1VYo5AH8oK9PCW26xdW9/J+QcOKBvRo/WF8OG2TZLODUxUbNHjdLMc87520iBXY7t2aNPevfW0gcf9OrhL0nFubla9sgjmtm/v4756TDqzi+/1Htt2uiXp56yfLlXWUmJtn36qT5o314rHn+cSbF+ICI21nAbTgesvKo2aKAW48ebarvzq68srua4yhUAJB359Vetf+UVp8uwzNaPP9a7LVtqxxdf+OR++xcv1kcJCfr1jTdsvU/qqlX6qGtX0+cunE7K8uX6pFcvHVq3ztJ+vXFiTe/sUaOUc/Cgrfcqzs/XikmT9Pl55xkefoa1zKwE8OVBMPC9ttdcY6rd0V27zvq61wy/DwDBVaoYbrP8scds/0Vru7IyLX3wQX132WVefzo2qjg/Xz9cf71tyytTV63SrMGDlX/kiOV9S8cPifls4ECfjWScSWFWlr44/3yfr1LZ99NPmtm/v7L37fPpffF/zASwkKpVbagE/qJev36mRoYk6YANZ0X4fQC4fM0aBYaGGmpTcPSoltx/v00V+cbi++9X4tNPm5o1apV1r7yi+ddea+lhFzkHD+rrESNs3w+8ICNDX154oa33OJvivDx9ffHFjp1MlrF1qz4bOJDtsh1i5lWU21YxuY0nIEANBg0y1TYtKcniaipAAKjevLm63H234Xab339f+376yfqCfGDZI49o9bPPOl2GJGnT9On66bbbLOmrrLRU344fb8tQ1qkc273bJ/c5lbLSUn176aWO/wxm7tih2aNHm5p4BPOO7dmjzO3bDbeLadvWhmrgT2qb3CnSjt9nfh8AJKn7I48oqnFjY41OTAgsKrKnKJvsmDVLv/z7306XcZJ106Zpw3//630/U6dW+q1OT/jlySe16+uvnS5DknRgyRItfeghp8twla0zZphqV6tzZ4srgb+p2b69qXZHd+2yuJIKEgCCwsN1zosvGm53ZONGrTWxGYdTMrZt07yJEx0d9j+dn2691ashqJwDB7TskUcsrMh/7V+8WCueeMLpMk6S9NJLSl640OkyXKEgI0Orn3vOeEOPR81GjbK+IPiVqg0amGpnx7y2ChEAJKnpiBFqfNFFhtut+N//9dmQs1fKyvTj9derKCfHku5Cq1VTtSZNFFq9uiX9lRQW6odrrzW9xDLx6actXfoWXKWKgiIiLOvPKiWFhfrxhhu8njwZGBqqqg0bKrZLF0XFxysoLMyr/spKSyvlEll/U1JYqDnjxik/Pd1w23r9+pneMhYVh9lJgFY9G/6sQu0EOHDqVCUvWKDi3NxytynMytLi++7TsA8+sLEy7218913tW7TIdPug8HC1ueoqtZwwQbW7dDnp4Vicm6u0pCRtnTFDG995x9DX78/SkpK09uWXlXDnnYba5aSkeL2sMDIuTh1vuUXxF1ygao0b/xFsCjIzlZqYqO2ff67N771n68EZ5ZH04oterT6o1amTut5/v5oMH67gyMg//veSwkLt//lnbXj9dW3/7DNTfadv2qRf33hDHW66yXR9OL3ctDR9f/XV+u2HH4w39njU56mnrC/KjLIy0xvpnFUl2GTIW2Y/uBTbEAAqzAiAdPys5W4mZvdv+fBDvx7+LCks1MrHHzfdvk7PnrpywwYNeuUV1evX728/YEEREarbp48GTp2qiRs3ql6/fqbvlfif/xhelrjxrbe82uCk9cSJumr7dnV/+GHFdu580qhGaPXqajh4sM597TVdvWOHWowbZ/o+3irMytIqLyZvdr3/fk1ITFTLSy896eEvHV9T3vC883ThzJkaMWeO6fXiq559lk2CLJafnq6kl17S+23bas+335rqo9Vll6lu374WVwZ/ZHRV2wl2bBJVoUYApOO/JLd89JEytm411G7hLbfoirVrFRAcbFNl5m18+23Tu9fV699fo777rtypMio+XqPnz9fXI0Zo77x5hu+Xd+iQ1k6dqm4PPFCu68tKS/XrW28Zvs8JHW68UYNeeaVc2xNH1q2rCz75RI2GDNGC//kflRQWmr6vGetfecX03gYJd96pvk8/Xa5rG19wgS6aNUtfXXih4SWax3bv1s4vv1SzSy4xU2alVd4JVoXHjqng6FHlHzmitKQkpa1ereQFC7xaZRHbubPO5TRTOKDCBYDA0FANmDJFXwwdaqhd+qZNSpo8WV3uucemysxb/+qrptpFxMbqos8/NzykFBgaqgs//VQfdOhgKnhseO01db3vPnkCzj6AlJqYqGN79hi+hyTFdumiAVOmGD6boO211yq8Vi19M2aM71aBlJVpg8nXHLU6dlTfZ54x1CZ+2DB1uOkmrZs2zfD9Nn/wAQHgL95p2tSR+1Zr2lQXz55tasMzwFsV6hXACY2GDFGz0aMNt1v5xBPK3r/fhorMO/jLLzq8fr2ptr2eeML06VohUVHqb/JwpmN792rv99+X69pd33xj6h6SdM4LL5gesWly8cXq/eSTpu9t1L6ff9bRnTtNtR04daqpv2ePxx4zNZy4d948n+8uib+L695d45ctU5V69ZwuBS5VIQOAJJ3z0kuGU3NhVpYW+9kIwPZPPzXVLjIuTq3/8Q+v7t1s9GjTG4+UdyKamdcM0vFh0Xr9+5tqe4IvR3vMTsyL69HD9LvfiNhYNTfxSb44L0/7lywxdU94zxMQoI4336wxCxeanhEOWKHCBoCqDRqox6OPGm639eOPlbxggQ0VmbPb5KShjrfe6vXSMHk86nzHHaaa7vn227PuV1Ccl6dDa9ea6t+KmerleUVhlT3ffWeqXbtrr/Xqvg3OPddUu4MrV5b/4rIy3/2nkqvRurXGLFyogVOn+uUyVrhLhZsD8GcJd92lLR98oMMbNhhqt+Cmm3TF+vWmZ2NaJSs52fSSMas2DGk6cqR+vPFGwzPDc1JSdPjXX8+4q1Xa6tXm3sF7PGo6cqTxdg45tnu36eH/+PPP9+recSa3FTVyCuNLPgxSdp7H7qSoxo3V7YEH1O7aa+UJDHS6HEBSBR4BkKSAoCANnDbN8CSxjG3blPTSSzZVVX6piYmm2kU1bqwarVtbUkN4zZqq07Onqbapq1ad8c+PbNxoqt+Ytm0VXquWqbZOSF292lS76s2aqUr9+l7dO6J2bVPtskyuOoE5pYWFOrprlzJNBkXADhU6AEjHd89qNWGC4XYrnnjC9NI7q5gdHm8wcKClddQ32V/aWR58mTt2mOrXm30KnHDI5BbJNdq08freYTVqmGqXxTHBPpW9f79WPfOMprdsqa8vvljpW7Y4XRJQ8QOAJPV/4QXDW94W5+Zq8b332lRR+Rjdy+AEqz79nxBj8kGUsW3bGf/c7LC41X8/u53t63A6UY0aeX1vs8PJrAJwzq7Zs/VBhw5afM89bM0MR1XoOQAnRNSurZ6TJmmRwQlt22fO1J7vvvP6PaxZWcnJptpZ/YA021/2WerPSUkx1W9F2w892+Sn6bUvv6y1L79scTXlw26AziotKtLq55/XoXXrdOGnnyo0Otrpkk5SWedi4GSVYgRAkjrdcotqdepkuN1Pt9/u2FnpZvckqNqwoaV1mP0kerb680zuilfhAkBFOGzqL/jk6R9+++EHfT54sONnWMCdKsUIgHR8KHTQtGn6pG9fQ8uJMrdv1+rnn1d3B85LN3s6XkjVqpbWEWyyv8Ls7ONf69NMwjRzIpokhcfEmGrnlMJjx5wuAV5qPnZsua8tLSxUzsGDykpOtuSk0bTVq7Xgpps05N13ve4L/s/sB06vl32fqk/Le3RQnd691faqq7TxnXcMtfvlySfV6rLLfP7Js8Rk6rd629CAoCAFhYUZP2yirEzF+fmnPZimxOThFRVtfbTZvyf8x4UmN+Q6umuXds+Zo7VTppie9CpJm6ZPV5OLLza1wykqFrOnsQb95YAwK1SaVwAn9Hv2WcPb4xbn5ennu++2qaIz3NdkEgy24QFpNlScaejS7GE8Zk+6c4rZ7yMqvmpNmqjTrbdq4qZNOufFF706bGzpQw/57uwKOCY3Lc1Uu7+eEGqFShcAwmJi1Otf/zLcbsesWaZ35cOpmf1lFhgSYnElNmPClOsFBAer8x13aOScOaZ/UWds3aotH31kcWXwN2Ynf0fGxVlcSSUMAJLU/vrrFdejh+F2i26/3ZYzl08nyOROhEUmh5DO2GdOjql2Z/y0bnCDphPKKtgD1ZdbDsO/NRw8WIO9OP568/TpFlYDf2R059oTqjVpYnEllWwOwAmegAANmjZNM3r0MLTcKXPHDq157jkbKztZYHi4qcBRlJNj+hTAUykrKTE3C9njOePElMDgYFOvAUry8yvUPIDA0NBKPYubJWHGtBg/Xru//Vab33vPcNt9ixYpKzlZVRs0sKEy+IO0s+ygejpRjRtbXEklHQGQjp8l3/766w23W/H44zZUc2pmZ/NbvYmL6dUIVaqc8VO+2bMWKtrDtKLNWYD9ej72mAKCjH++Kist9avDymCtstJS/fbDD6baxnbubHE1lXQE4IQ+Tz2lHZ9/bmjShS/XR1epV09Zv/1muF32vn2mj/E9FTM1SDrrPvbBkZGmwkVhdrbCKtBSwLCYGFNLHns8+qh6PfGEDRXBadWaNlWjYcO0+5tvDLdNXbVKbbw86hv+KWXZMtOTAOv07m1xNZV4BECSQqOj1feZZ5wu47TMDvNZvY+42f7OVn+4ybPOze6s5xSzGzNVtL8njGk0ZIipdkZOakTFsvHtt021i4qPV5V69SyuppIHAElq849/qP455zhdxilVb9bMVLsMiwOA2f7OVn+EyQBwdNcuU+2cYnb/iIzt260tBH6lbp8+ptrlpqZaXAn8QU5KirZ+/LGptnYdj16pXwFIkjweDZw6VR8mJPjdGtvYhART7Q4sXWppHfsWLTLVLrZr1zP+uekHo8nDdZwS27mzzBx8nJqYqMKsLMt3doR/MLtsqyAz0+JK/EfqqlWa0a1bua69OSvL8k3PnLRi0iTT85uajxljcTXHVfoRAEmKaddOHW++2eky/ia2SxdT7Q5v2GB6LelfFR47pgNLlphqe7YAE92ypal+9//8s6l2Tonr3t1Uu5KCAv32/fcWVwN/EWZypU5lDgB5hw87XYIjUpYv169vvmmqbVR8vOra8P5fckkAkKReTzxhyzsUb0TFx5t+DbDr668tqWH3nDmmlupF1K6tmu3bn/Eas+fdH1yxwvS+BE6o1amTQqtVM9XW7C8F+D+zG1pV5pMa810YAAoyMzX3iitUVlpqqn3CXXeZ3lPlbFwTAEKqVlW/Z591uoy/ib/gAlPt1r78sukfqD9b8+KLptrFn3/+WTfAqdurl6lNckoKC7V95kxTdTkhIDhYjS+80FTbPXPnav/ixRZXBPgnt40AlBQUaM7YsabnNYXFxKjtNddYXNX/cU0AkKSWEyaowaBBTpdxkuaXXGKqXcbWrdr5xRde3fu3+fOVmphoqm156g6NjlZ0q1am+l/zwgteb7GbsmyZV+2N8OYQF1/vQAk4xewR4RVRUXa2Zo8aZXrdvyR1e/BBW84AOMFVAUCSBr36qukNauxQr18/RbdoYart4vvvNz1UXlJQoEV33mmqbZX69RV//vnluraxyRGOwxs2mF4yI0nHdu/WnPHjTbc3qsnFFyuyTh1TbdOSkrTo9tstrui4zO3blfj007b0DfuYPUjL37nlFcDhDRv0SZ8+2vPdd6b7qNG6tTrfdpuFVf2d6wJAdIsW6nzHHU6X8X88HrW/4QZTTY/u3Kl5V15pePOistJSzb/2Wh3ZaGbu+vGzFjyBgeW6ttmoUabuIUkLb7lFqSa2zdy/eLE+7d/fp+vsA4KDTX8fJWnDf/+rBTfdZNlGVBnbtmnexIma3rq1lj74oNKSkizpF8aY3SXSzMZSFUFlfwWQc/Cgfr7rLs3o2lWH16833Y8nIEADp03z6nTJ8nBdAJCOb9NpdomaHTrceKMiatc21XbHF1/oq4suUs7Bg+W6Pv/IEX1zySXa8uGHpu4XVqOGOhlIpXE9e5qe6Ficn69Zgwdr55dflu/63Fwtvu8+fTZggCOb7HS+/XavdjBc/9pr+mLIEB1at85U+5LCQm3/7DN9eeGFeq9NG21+//0/JpQlvfSS6bpgXkhUlKl2xyrYXhjlVdkCQFlpqTK3b9fGd97R7JEj9XajRlrz4otej+B0e+ghNRg40KIqT6/y7wNwCkEREer//PP6xuT7d6sFRUSo+0MP6SeTw8B7583Te61aqf0NN6jFpZeqVseOf5t8l75pk7Z9+qnWTZvm1T/CLvfea2jGuycgQB1uukk/3323qfsVZGZq9qhRiuvRQ60uv1yNhg5V1fr1/zgsKD89XYfWrtWeb7/VpunTHf0FE1q9uno8+qgWeTHClLxwoT5KSFDTkSPVdORINRoy5LThsCAjQ5k7dujw+vXav3ixds+Zc9q//7ZPPlHfZ56x5UhRnF5YdLSpjX1+ffttW7Z+La+XbJp17u8+OsveJn+Wn56unAMHVFJQYGkN9QcMUK9Jkyzt83Q8ZTadvZpz4IDS1qxRWlKSDiUlaf/ixaZ+Odfp1Us1O3RQzQ4dVKtDB8W0b296ydVffXnBBV69o/krb05NKy0u1sc9eliyDWhAUJAiatdWRO3ays/IUM7+/Za8U4xp21aXrVljeHlTwdGjeqdpU+VbOAEopGpVlRQU2PautF6/fqrXv7/q9eunOr17l3uzntLiYn3at68OrlxpWS1BEREKr1lTIVWrqjArS4VZWSrIyDDcT2U7e6Dw2DEd3rBBh9ev16F163R4wwbTEz/r9eun2l27qna3bqrdtevxUSsLHoLfXHKJdsyaZapttwcfVLcHHyz3z15BZuYfX48TXxMrfw59rbwbAZWVlOjIxo06uHKlUlas0MGVK02/3nRazfbtNXbRIoVGR/vkfpYGgGUPP/zHQ9/O7Syj4uOPh4L27dX7ySdN93N05069366dZTOwvT02NW3NGn3cs6ff7VgoHQ8V45YsUVyPHqbar37+eS2+5x6Lq/INT2CgYjt3Vt2+fXVOOZZNZmzbpo8SEvxuL4OI2Fhds3fvGY9w9nfLHn1URzZs0KH163Vs927b7hNavfofYaDPv/9tup8Vjz+uFV58mguKiFBsQoJiExI0YPLkv/35socf1qH163VkwwYd27vX9H380dkCwJIHHtDBFSuUunq15SekOiGqcWONX7JEkXXr+uyelgYAJ4aNvH3orpg0ybIjgK04N33dtGlaeMstFlRjrf4vvKAEk6sGpOOrDj5MSFD6pk0WVuV75f0e75g1S3PGjrVkrwYrDX7zTbW99lqnyzCtov2OObBkiT7t18+2OirzUP3ZAkBl+rvXbN9eI+bMMX1AnFmunAT4Z90efND0Mjw7dLz5Zr/7Bd164kSvHv6SFBgaqqHTp5s6I90bodWr+/R+JzQbPdqrT452STrFp0jYp26fPopq3NjpMuDHGg0dqnFLlvj84S8RABQYGqoBU6Y4XcZJznv9dbW64gqny5AkNbvkEg1+6y1L+qrdtasGvfKKJX2VR61OndTXwTXwXe+/36tXVHY4vGGDkhcscLoM9/B41OHGG52uAn4oICgBFrKKAAAEUElEQVRIPf/3fzVyzhzTq0W8rsGRu/qZRkOH2nbcohmewEANffddtb/+ekfraHPVVbpgxgxLP7W3u+6643tb2yyybl0N/+IL1TYwq9cO3R9+WANfftn29bzl1fbaa1W7nKexwRqd77hDNUzuiInKKTYhQeOWLlXPSZPKvaeKHQgAvxswZYqtWy4a5QkM1Lmvv65zX3/d5zsXBgQHa8DkyRryzju2PLj6P/+8uj/8sOX9nhBeq5YumT9fUfHxim7VytR5BFbqeMstGrNggaOHUdVo3Vojv/tOg998k+OHfSwwJETnvfmmX+1ACmdE1q2rwW+9pQmJiaZPEbUSAeB3VRs0sPWhZFb766/XxI0b1XDwYJ/cr07v3rp8zRpDm/2Y0fvJJzXsww8tH/qKadtWl65Y8cdJhMGRkaraqJGl9zCjbt++unLjRnW69VafJv7oFi103htv6Ir16xU/bJjP7ouT1e3TR8O//NKxoV44q1anTho6fbqu2b1bba+5xvEPJSf4RxV+IuHuu1WjdWuny/ibak2bavS8eRr+5Zeml+GdTc0OHXT+jBkat3ixYtq1s+Uef9Xqsst0xbp1aj52rNdrrj0BAep06626dMUKVWvS5KQ/izF5LLHVQqtV04ApU3TFunVqfeWVtr0WCAgOVtMRI3Tx119r4ubNavfPf/p88iX+Ln7YME3cuFGtrriC70cl5wkIUM0OHdTjscd0xbp1ujwpSa0nTjR9RLRdXL8M8K/2LVqkzwYONHUSndW1nE7K8uXaOmOGtn/2mXJSUkz3E1ajhpqNHn38lMSBA207c7o8Ulet0vpXXtG2Tz81tH7eExioZqNHq/tDD6lWp06nvGbxffdptUVHQVv5Pc7et09bP/5Y2z799PiZB170HVqtmhqcd54an3++Gg8frojYWMvq9CeV4XeMJOWmpSl5wQIlL1igw+vXKz89XflHjpzxDACWAZ7M6b97aHS0AkNCFBIVpSr16qla48aq1rSpYrt0UZ2ePR1bgWSEbTsBwgfKypS+ZYtSli9X2po1Orp7t47t3q38I0dUUlCggqNHFVyligJDQxVes6aqNmigak2aqGaHDqrbt69qtmvn6ASUUynOzdX+JUu0b+FCHdm0SZnbtys3LU3FOTkqKytTaPXqqlK37vG/Q58+ajpypMJr1XK6bK/lp6crZdkyHUxM1NGdO3Vszx7lpKSoOD9fxXl5ko4vaQwIClJkXJyqNmyoKvXrq2b79opNSFB0y5Z+M6wIoGIgAAAA4EJ8ZAAAwIUIAAAAuBABAAAAFyIAAADgQgQAAABciAAAAIALEQAAAHAhAgAAAC5EAAAAwIUIAAAAuBABAAAAFyIAAADgQgQAAABciAAAAIALEQAAAHAhAgAAAC5EAAAAwIUIAAAAuBABAAAAFyIAAADgQgQAAABciAAAAIALEQAAAHAhAgAAAC5EAAAAwIUIAAAAuND/B2eXSCjX9RKfAAAAAElFTkSuQmCC;" vertex="1" parent="1">
          <mxGeometry x="820" y="162.26999999999998" width="50" height="50" as="geometry" />
        </mxCell>
        <mxCell id="v9ebatE_qt70Te6h0S2r-22" style="edgeStyle=orthogonalEdgeStyle;rounded=0;orthogonalLoop=1;jettySize=auto;html=1;exitX=1;exitY=0.5;exitDx=0;exitDy=0;exitPerimeter=0;" edge="1" parent="1" source="v9ebatE_qt70Te6h0S2r-10">
          <mxGeometry relative="1" as="geometry">
            <mxPoint x="390" y="256" as="targetPoint" />
            <Array as="points">
              <mxPoint x="1140" y="147" />
              <mxPoint x="1140" y="256" />
              <mxPoint x="421" y="256" />
            </Array>
          </mxGeometry>
        </mxCell>
        <mxCell id="v9ebatE_qt70Te6h0S2r-10" value="" style="shape=cylinder3;whiteSpace=wrap;html=1;boundedLbl=1;backgroundOutline=1;size=15;" vertex="1" parent="1">
          <mxGeometry x="1060" y="122.26999999999998" width="60" height="50" as="geometry" />
        </mxCell>
        <mxCell id="v9ebatE_qt70Te6h0S2r-11" value="" style="html=1;strokeWidth=1;shadow=0;dashed=0;shape=mxgraph.ios7.misc.wifi;fillColor=#007AFF;strokeColor=none;buttonText=;strokeColor2=#222222;fontColor=#222222;fontSize=8;verticalLabelPosition=bottom;verticalAlign=top;align=center;sketch=0;" vertex="1" parent="1">
          <mxGeometry x="1010" y="112.26999999999998" width="30" height="30" as="geometry" />
        </mxCell>
        <mxCell id="v9ebatE_qt70Te6h0S2r-12" value="" style="endArrow=classic;html=1;rounded=0;" edge="1" parent="1">
          <mxGeometry width="50" height="50" relative="1" as="geometry">
            <mxPoint x="990" y="156.99999999999997" as="sourcePoint" />
            <mxPoint x="1060" y="156.99999999999997" as="targetPoint" />
          </mxGeometry>
        </mxCell>
        <mxCell id="v9ebatE_qt70Te6h0S2r-13" value="&lt;font color=&quot;#3399ff&quot;&gt;&lt;span style=&quot;font-size: 14px;&quot;&gt;&lt;b&gt;Customers&lt;/b&gt;&lt;/span&gt;&lt;/font&gt;" style="text;html=1;strokeColor=none;fillColor=none;align=center;verticalAlign=middle;whiteSpace=wrap;rounded=0;" vertex="1" parent="1">
          <mxGeometry x="640" y="60" width="111.27" height="30" as="geometry" />
        </mxCell>
        <mxCell id="v9ebatE_qt70Te6h0S2r-14" value="" style="shape=image;verticalLabelPosition=bottom;labelBackgroundColor=default;verticalAlign=top;aspect=fixed;imageAspect=0;image=data:image/png,iVBORw0KGgoAAAANSUhEUgAAAR0AAACxCAMAAADOHZloAAAAkFBMVEX3mB/////3kgD94cT3kQD3lhb3lhT82Lj4q1r3lAD3lAz//vz4r2P2jgD/+/b+8eT71LH+9uz96NP/+fL95c36wYf3nSv7yZf6xpH4qlL4p0n6voH5tGv+8ub+7t370qn4oDn5uHX7zZ/5tnD4rFb4ojz3nSX83sD82LX6u3z806z4oTz4pkT5tGX7yZT6wITozZkeAAAQj0lEQVR4nO1d6ULyOhCtIam20CKL4MqqoH54ff+3uwWbzEy60KSBWvX8k1poTpPZM/Eu/lAMr+kH+NY4LzvdeLRHHMfds/6uLc7EzmB8ffP4/DIRAeOcBf5mct97eO/0z/Pr1jg9O93xfz0/Yiz0hfAAwg8Z42z38Do4+SNY48TszKYvUcKLVwgRsmjzuR2d9jFscUp2ZrcbFopiZhRCFnxs4xM+iS1Oxs5g9cLCCsyk8Jm3Hp7qWaxxInZmS8aqzBpCEL+/PM3TWOMk7HSeucG0AQi2WZ3ieaxxAnaGO14iho+AsdU3MoWcs9PvcdMlpfHjXbt+Jms4Zif+ZPbzRvFzP3P7VNZwy86rZyVvdAj++T30u0t24kfugps9Am/s8MGs4ZCdsXAycVLwG3dPZg137Nw6mzhfYLvmHTBX7IzumFtyEuswaHx1OWJnKOqrqix407ahG3Zejd2GivQsnTyeNZyws3IscgDszsXzWcMFO9OTkeN54a5Jx8IBO66VlUbPfYOGYX12TkvOnp7mZk9tdk65rCQ9LgZqhbrszE9OTkJPY6K5JjudM5CTaK5HN4M1Rj12Zs4N5HzwqaPhGqIWO/HmNEZgDj1bVwM2Qi12nl065eUIG3FJ67Bze6Z1tYe/czZkA9Rg5zwSWYI1Ee+xZyc+JzcJeAPxDHt21ucTOgeIjcNhV4Q1O+PovOQka+vW5cArwZqdybmUOYCfPZFjy87qjPpKQpzdo7BkZ3BmofMFrlUhxE+d+e3y4+7+/uNmvj2BRWTJzrIRdsQEBTP6q6sJ25eU+UIcCsnYYv3quErKjp1z+Vc62Dx9gPj9ngd6oF/4jPVeXUaD7NjpnSIDUQmHsc/eCquDfBZM3QUTrdhpauokk2d1cTFallcHBWzqav5YsXNuQxAhvFiFR3+dTTrNsTM4q4NFISZV5q3gSyfLy4ad2+amTmWEExemow07QdNDrwLBHawuC3a2jclkM/D3JthpTp0bgs+PD8Y1O6OWTJ0E/PXs7Ly3hx2P1yyfN2fn+fyhC3sE9RwvY3ZGLVDnAL9e0MOYnbZorBSsVvmYMTtvrZo7CT119g8aszNperiG8HtnZKffCkMZo06mx5SdlomdBKJG+Y8pOzctEzsJmL3RY8rOfZusnS/49tU/puy0TuwkiKxNQkN2nlondjwUqz81O8M2smOfJTRk57WN7HjcdmkZsvNf+1RWAmZbV2fIzkMr2QltK6MM2XlsS1yQwL86Dzt37TN39phYpv8M2XlpJzvMMrtlyM6m6XHagVuGMX4HO8zSTzdkp23RnRThdGa1tgzZWbRT7ngh5/7zzavpAjNkp4UuuoIIGZt8jk0mkQk73c5D0yOsjZBv3qoLoersxNOJXc+h74aQ794r2j9V2Rl8sm8Z2hF+mCyYIPRNjHjBvGpBjWrsjN4qThuBUXyx5LaSr8xcSWTt3ePndD5f3a57m8ik9Q/zq+TYK7EzDyouKbG7QtDU/z91QfdHxB3cpI9woa5oGiFZINMhXiGD155Jlzq2OF7gU4GdwXPlSjj+REglwSB/qS7EvPg2jVIGr3iFhy7YW05x1+DGoOWEYOtjcZ/j7Lxm6oJLQO6cERLEAq7808aAtKxWHYSsXBwfKGx+NdsZTJ9QHFFfR9l5MyihDB+0LyfwoVT/irCDedNTQgxuQl5MVLKLdm0SvozK9+0cYSdemPwW01bymswDVExD6zLDJbpHSycG6sIItjyVF3V9mNgd7L5se0U5O4OJUbRLDxTQKDRKDVyTCwGukxjS5QiJzI66hx3Zf23k7vh+STKwlJ2ZZ0ROJvb/RHa4oXVHKaBTjt4DMc+VtLfCY9m7sVk9NSvW7WXszHwzrypbK0OvT9TnMaGAajrym2i+gbjGM7Q/7SXK/oaG1Q0jmMUtokrYmQWGLifL6BFa7BOCdUL09oYsSCKskKySYUn8DkaP0b6ptR9yD0+AS8O8Ei+SzcXsDEzJgbmhWKIiFqX7sd7WiiSIxA7UtBqp5QIcP/nwvxHKO3RNs25F7fsK2YmNN36CXFGCYUDZgfeL9TYyE/fo4HsmmY9x9mWBp1mEbBfjys8CegrZMe/ioHJqMeguoj6QWMZzX0tz4+1NAjoYSKGMipVobTD6X4udHPlGQhE7N+Yp4VDa5cNILSFi26ElhJWWZiV10YRAE+Uj/ZjDf2qaO4LIn0VCO7cPSQE7W/NNRqDPp5ESnFS5RkABUlpcs8eQxEbTKnU+EMN60T2DzsNDiz1SWZ1SxM7AIpYDNt1z+KxGQK1leAD0ua+FopZwDVSWfCJ/DRRo7ISf6tLMgh0hsj5pPjs7i4QwDD1CuUcSdmCwYxpcSqGncaewGmFayUmIZNdYYwfVeNmwk1f5ncuO1VZ8pV6SaQ1MTbHgQWIEBJLysuQ9SGkBy1Ioh/8VswO1t32rQppsK4k8dgY23x2+ydvnDMkLIgFQth8sISa3UcmV2Ve3INdE2ogh+Fg6O+L+8jrF1C4AninezWPHqtACamSS28GEoX1ofPUbIDSkyoqlRo6VWEbLSH0E7zdTpSeYhHV24Dg7hk5cikjZOAH5GRIKBTkSqwHIwqy+0mgqNqamFXSWgCl6irR1JkCVZccq3wmL4CARYXcCCZ+iIiz1mTRgLiNJnfLOIDCoFijSWVpk1gm0Ni1Zdq6tfhP0+cGCBRqI+kBSQy5fIbX/StmQc2lPQCmtCl/gOGLXfZcbTW9l2bErJAAP8zBsZHuQHwexLI19tVQ+lDGvxO1GqSywgSLk0D/lJHhqgprMGXYsq0pVhLN7YFeA+4hlvFio8UqlpWTLv0AuetkNAFlC8B2kQvLJc7240IPnsWMn6kBYpvHASNFAViqIZbnipGwZ+WpWdyf6l6IUj1bXfxM5zl4zfBKKzo7lHhp4oykZIFBJ+BQ8zpH8JOUrsXKU0kpje/Cg2LRhJJJ40S/up2IH3HxNZ8dyTyy0kkwlBJK/eDaiAHuqGuWSTFa0mlhp3S8wjLUTyWDsMVi9uCx/QO6Ozs6TXSc4FFtJB43kLw6f+h/q46+QhLIEEvNWTaw0cAMl6ktsNOWUuQ0fhIPzc9KxoFClxo5lAxCYKcqAZeo78WJFCvlLSSvXKyGLaUoLvoKaYH5OCqq77UWOVlgENo/GjqUFAUaUUnko+IBFWaBG9kWaYmSCQqhfKQtlCZFo0P6Cl5v/Hq0WNQ7uAiBfmbJjEzXaA3xptVUABa4w5UDaE8d/jwS2tw+iClRWxt8sytCNn2se3vU1mgJ2LBcWMu+VLYk0Lw6fgliOD+9ZivMv/0NeO6QswMvKugyF28w7RqntfMAbpOxYFk1CsgEFFWE+4Wa6yIs8/Jh8T4d1ppTW555PkL7r7IJhL0XlEw+1O0tBHICwYxMw3QOUC4pcQYaThE+pEa0W02HWKqvpkLKA8ou8lyb4cwE/73U7sILWIuxYmoIoSIUWETI6d2h0PvEs1Ws6+BtKVg3JOtOLoeQ38ck8t4Disi49qrcIYae2PseqF60hHKqDRb1/F0q2HP5Dyaq9koI3WKgrBGPPee0p6zYNV02xCDuWhjIMGL9l8U99L8leKVm7V1rSFOge/gMmoY/d/LI4TmIFPm4z9bU1S/KV6iDsWO6CgAqkcb5pg8OnEH7bZ7ulbEkDqb4MTzwi25Bayln43HvTNLxuAhhCWfSYnYGdLYX0OVmaKMeJJqV4UZ/eCTW/UomnJHkiv2BG7o7OhJC/0IRqvR0LyjHC7NjlObDb9hJhQAQMrw1IiK59ZQ6n0lx9VcKWKr+o1A9JcBLZqNl+S1ojmB1LSxllersU6nMcPgWvY8WoykILPllpOD9WBUw5HhfSELeGGGTZ6VgRTipGC9DFo1BTbcuU1k+jHGrBd0Nw+6sG18mZCvXkcuiMnbBKM3oUPgWx/MSVykotFNBzyBes3C0K72+st71Xrur67FTqWofCpyhaHPFUR8HikdbLGor5SNzAVxm9rF2Ps1FH9NwRyIRTfXa8Krt5sByAsM1OLkpV7KSE0lTlb0akQApMzGwlAV7jlrli+Yiu2KnY3QaFT8EBW8pppBwQJZQ6kfwvIpTR9Mips0Ah53mt/VLO2Cmp9sVAwgPE8krKFpVOVk7JTFX1EKFcOndwJnPlnB0rC1NLERQBFQqCGN9KlbWQ15TSipVTQYQyqsDM6YGNIs41V1aOVLaxd3At47Kn4QrmFRoLBORn6WiweyavKQqJe4ND4llPHFnnn7XYydNZNhVTuGKE+xrweXtokCouJu1F9FpUgENq5y59qAB9Y0Zpo5VVrxurn2Pv2PQSRAVBOTlmNBYU+dHLKLHdn7EPtOpADhoy2+0GYkcVfLNSxFl2RhbfKOBpc0wM9DKRyM80C7rNE9kptJIQVC+fqTNCpXG2Uc50UNIoJREMc/Mb98nMiX+gxAQKAAR6yBwZtplGQpqljO/VHxfN43ohDF+6bISdD2MDE4VH847gwOTBXM80C0LDRMlS/bYDBPI1tcnDUFlYvV61yq4g7JgbCRGIkHxnERYe6FjdbyXpQEavZTRThCyIVYSoY0iddetJHZYbOTWuGEShrPyJhwQPUkyajUQsCR4XX9uDOL3bCf/aQyZC/ok+r1kzlx91Nz6oEEuJ3AdCggd9uVb5SksL6bVsnV5ANN7l+t8m4P7uAbdHqTl1ILxNs32mhyGgoeT3acQiBkwQTSyTrSaaZ5I9qCtToRIPBlpeomarWsixUHZMN8VBFLRIZk3inP/QdmSRILBWFJsTp9FPYMtgWzOfBeKAshObiWWsYDItGvRfwqY4Kc6jpgDtpR3nva683TAIloEYBeQcaRUqZt0WGToLpeB9oUWEwqekAueJvhIfXSpwbkoDbrWbjSJZqbHTN9JaqKN8kfmFBQ+ET8nwNLWES26LcgvF2/XjZe0igwCsEL1usGCB5APZLcVJ5ry3SjY7auqXKK2iuczvcqdPvPLrCWSPmgw6OyYmj7jaXkoUen3hSv0PsgfRndue1jnm4RKuLQp/m99da5qq23nzHZQvB2juZuqVnw0mD2xqKSnZC/N2vqA7M7eG6Frpj0e75aozHs5mw/F2/nYf2W+tQSBtJDLsNHdioTkEIjJ0VLS86Zaxc/HZInrcgxpTWXZOsHOlPdDCB852r/0MUCcud+ejxU79H4JISz/l7im22XD9E4DjZ8XsNHO+d+PwMyfe5O/Wr1lZ1k6ITaZAs6APxusvlMxhtr9wUQ+Ved2a39Yhr393Yf+d30ZP7jlSxZ2t5r9pcYn8Q7ZKuqK188waK/hefrixrKNex7gvWksRLgoaVpZ2Y+x7v8Lw4b2i4r7yTp7dx58vfERUfODqsR657yb9g9uIcFLSRfhoB+H+/U8WzoIvy05QqNCbu3Lf8vaBTcq7l1fp6z5aRz9yeYXF7V8N2Lm4mF052en9rRCym6PH+VU9T2LY+xlHbaQQzL8pa8ptyE4yf5a+22YlzSHki3ml42xMzrEZzV+cJUaag8+CZdWTbAzPQJpNd26Sas1AhJytL6ufgmR8evzFaPs24Yz57ntunRJChIyz51uzQ9jM2Tkw1Jkv7xZe8nstAOeceYurh+ux8cmPduwc0I1Hs873x3g87I9iuyMxa7DzC/DHThn+2CnDHztl+GOnDH/slOGPnTL8D3orADjEWnnvAAAAAElFTkSuQmCC;" vertex="1" parent="1">
          <mxGeometry x="1065.85" y="82.26999999999998" width="48.31" height="30" as="geometry" />
        </mxCell>
        <mxCell id="v9ebatE_qt70Te6h0S2r-15" value="" style="endArrow=classic;html=1;rounded=0;entryX=0.5;entryY=1;entryDx=0;entryDy=0;" edge="1" parent="1" target="-4bqo_CRuHf7mj_BNsw4-14">
          <mxGeometry width="50" height="50" relative="1" as="geometry">
            <mxPoint x="385" y="400" as="sourcePoint" />
            <mxPoint x="440" y="350" as="targetPoint" />
          </mxGeometry>
        </mxCell>
        <mxCell id="v9ebatE_qt70Te6h0S2r-28" style="edgeStyle=orthogonalEdgeStyle;rounded=0;orthogonalLoop=1;jettySize=auto;html=1;exitX=1;exitY=0.5;exitDx=0;exitDy=0;entryX=0;entryY=0.5;entryDx=0;entryDy=0;" edge="1" parent="1" source="v9ebatE_qt70Te6h0S2r-17" target="v9ebatE_qt70Te6h0S2r-2">
          <mxGeometry relative="1" as="geometry" />
        </mxCell>
        <mxCell id="v9ebatE_qt70Te6h0S2r-17" value="" style="shape=image;verticalLabelPosition=bottom;labelBackgroundColor=default;verticalAlign=top;aspect=fixed;imageAspect=0;image=data:image/png,iVBORw0KGgoAAAANSUhEUgAAANsAAADmCAMAAABruQABAAAAnFBMVEUALVb39/f///8AE0kAK1UAGkwAI1AAKFMAJlKkrrzEzNX6+vnHzNMAIU8AHU0AH04AEEgAGEsADEYAEkgAAEQAB0UADUby8/SXorDd4eWxucN1hJfm6eyJlqbV2t9WaYJjdY5cboYxTW6Bjp8QNl28w8uUn61FW3cfP2NLYHtpeY7a3+apsr2zu8XO1NpBWHd5iZ0eP2QqSGoONFv6bQIrAAAOHElEQVR4nO2daXeyPBCGISSAUhBQxL11wVZrbWv//397wfZxYc1kgtL39P7yLOe0cJFkZpJMJor6/5Vy7xeoUX9sv1N/bL9Tf2y/U39sOFmJyFnHf9/gubWyfRNZk/3DqDWYLj/G4/HHcrpujaL9UP2mrPPxdbElWNYsWm+flSBwPY85nY6dqNNxGNO6fk9fbKejfVgjYB1sR6zd+OC7nqMbVMkXNfQOc4PVdnAErOE9pLNZRN0PNh2X2YVU14i60/UW04dQfvtJZYs74mS0NV3H5KG6kNHRnE1rKLn5JLLFYLuN5+lczZWVybqL9Uwmniw2i4SjR49BGyzVfI67GEyk0clhs8hsbHo4sB885s2jeMzKkAw2Yo3efVuwK2Zlup+DUEbj4dlIOFCkNNlZlLHxEE+HZSPh1GHSmuysTrBF0+HYSLj0HPlgR+nBE5IOw0bUNevURPZNt51grIo4m0V2BquRLJHtT1XxphNmI/tFt4ZxlhZTRsIdU5DNCse+XNtYJOo+DwU7phCbRd7MOgfatUx/KhZGi7CRcO7foDueRL3DTKTpBNhIZOo3JEtk9tcCow7MZqnjmzbaj7R3uDuAspHZS13Ouly6HUHhgGxkp93GPGZFgyWwX4LYLDIO7kSWyHsOQXAQNit8rzsQKZeugOwlgI0Mv25tH9MyfMig42cjD55xZ7RYvQE/HDcbGQV3MP1Z9T+44XjZyKB3b6ofaVteOE42sr6ngbwWe+S0lnxsZOrfm+hCbMMHx8XWLDRFcfjgeNjIulloMRxXt+RgI4PmjLV/YnMOg1LNRnZ4NKozzdWcTseJ/2CiOwaX8sbVcJVsJMKiGU6fPrXawzDZKQ2H7dZW6TvoMMCdVsJVsVkzDfeV9eBzMCQpDQcvATZ+C1pVcBVs1sRAfWG99zRLg33r9alno9ho8FABV9VuC8x0zeg9TfLJEk22PdR3o2xYbi3L2cgTZpLNDgVt9k+zg4eBM14Q7UYGrviTaTAtJ0s0RQXgdrknKGOz9ognG512NRohbR3T6bulM54SNiuk4mj6qmSkXWryiTCYNNiXDLkSNvIobsj0l5APjRD1gIAzlFCEjbTEB5u54kaL4V4Q3bJTMuQK2ayheIBMdc4O+a2QL8smX8GoEK6QjYh7tngUQNBiX4CYZ1A2KRpyRWxkIO56YusFFKL7K/pjUcMVsFlDxGB7h6IRskHYE/+tAK6AjWzEe2QPNNi+NemLs1GjwFbms1lv4s3mcIQjWU0RK9adgrlcPluoiFsuz6omyZGDsJX+LNec5LKRpXiILNZshAwQUXk8wnnZrIkm/BjqA7z2pVRM1Oy+5TVcHht5QgRbT2JohGwxodeKk83CuNIuV/SfpweEj1O8vAWGHDbyiIjvHFG02Jog2Cjlajdrj/A15lyc7QmzOsTW2YbLsiHcdvyIljjbDrMpSw2OdkM1m+JWrJCU6RXzYIVlp+AZNjLHzIM9QQ+QSEUtDFElYyrTbNYQ8/WoIo5GCCIYiuXt0nBpNvKBSUIzFhi2d9RypXFId8o0W4jK+sGYSULmuLQc98EqZbNaqAwS8agkESYy+X54KRs54Jb/78lG3dTqwjUbzgHEbNs7silOyg1cs5Exbm/FfMSwIcebYnyWsanIfK3YViGEs5Ox/OtV5is2KxKfuB1FKYYNsUT/Lfs6Z+iKDRWTHKUh4pIQuUMbf1qzmE3tY3+7+PSNkBlmAvetaxd3yWa9oSK6RA542fUsnGs96rpTXrKhjXBsKDfibJgp8Y/oVxGb1cEnfmiqMBvSjh0VXK7mXbBZe3yHV7Q3UTSsjT7KuZx+X7CRqYRzKOKdUkKXPD4+n+1Zxm8PBHYDEoVyck+1MJctdGUk7XY+xNiWcg4vaW0rh81qy+jwCg2E3Hco5eHxp71I8zqzkamcwyi20FwAGaSfdDngLtgwa3eX6gmsdb1Ky/Tu5I43U1KOfDzVAAs3Jb7UxX7ViQ2Tl5ASA5uTpbyzMGyXw4YPJk8KgA4cnX56IXtJMmxSPPc/ua8QtFf05OZCxnMOm5S44EfUBnjwiSnznM/Fjs65T8obzrEMM5PHW4iGy6zN6LzadWIL5R5tMxzO3KC9Lfl0lvaQZsPtA+SI+lzbVTv0VD+ts6E8sT1ICnrOcueVczn1SfIXVS6jrhObhBl9WrY+Kker5XS/vk2zSXUB/0TdRcna0H4hZeKR1tkJnNhkBaupBwWLAj/+tgjqOeJpHNLjTap7u3qUp42j1MBTozGTXGLorLODO7GhF6yLZXvBYdyKZsPJZPgatT4OgVdLJ/kW9cIUm/VS6yFgw2Ze343V95hsh5ZW95/zPvnur0acApYhd5ZiC7HLrlR3mKel5FV8sNQPeI6MNnX3abaq1ygVdfzP7WAUPaTULv+tWuoHRoPxwtOwR/9OQdeJDROWMGNaEBqX5jHl7iCH7bGJKwCgRSk2RMqk6RVvcLTLYqpe0SzvbeEj6LwUGyId1HsuW7RbFXewsiXoNuL0WIZNOGfeX5aQlW48la+HDVzRppPWbkHFhptVuMJUtXMwOQhGuGk20fHWr9xL/CgKQYLKZcy5WL/M2BIxO8nGVe9HJgWrqjzpGmOhl8qyifg3rtS0AjcQ8CyobEUmlVn/JhKXdHlWs15zFx85s6PeBWYLmbhEJJ5kfMccHvM+m8u3yBcKHPfIxJMC8wD6xfV6uQ3nlHuOs3bwIZeZBwjM37SK1ZCTshk51Obe8gcvm2bnb/B5N13xvt4wU0DP409Hj7rQ9zoNM/H1EkC6/DblhUEpbVBDkLNeAt41BWSSTFJOGHQeFboAl13nsqAnD0Aprtcn92xQdiw06yW7PgleV9YiyAtepsdTBtvtB0ZeOevK0ImAC0puutw9dHcgNKgF9zL7AdDkefMZ9oJnBw79STKGhUzdzD4ONMMcevTyHK9q0MQh4GnNnP03YCa0B81J2/2sLvTBJ61guzAX53Iu9rtBn0cDJ7h+V9XQ4ZnoMLa8/W5gngKcTU0qQlATnhEFY8vLUwDml8DZSFLFpgesIgFny8svUVVQCrsAGxn41UsQaLa8vCBgtCzCRrZCx6xgbPq5sS7Y1hBjIsQmJhBbfh4eLOpqKpuTmz+pgs5VNJWt+5CX96qSZ0Bk0lS2gnxl0IBrKFtRnjnoYF9D2a6O912dWQFkvjaUrehcB+g8TjPZ6KrwPE7EH1I2k62zLGJTVX4P10y2/tWhzOtzi/xlNhrJRmnxuUXAedNGsl13yfT5bm4P10i2VC0r0fPdTWQzXsrOd1t73glqE9nYoKzmAP9qVxPZ3FRdvHQdjB2ni2sgm56+ECJTv4TzvssGsvXTdW0zdWc4zw82j81YVNWdsYZ8t/E1j03L1MTL1nniC5gbx0azJfGy9blmXLO4xrHlVMTLqauWmzPRdDaaBcmrh8fVcE1j83Iqm+fWMeRouIax5TWbcP3JhrHx1p+MTWV1xNwsNuOFtyaqlc6ZyPtQoK18HFv1xMuPeNlUjmrHmAIzQFU73KtVyQo2VS1Jof4WrqofRNUZubQPqK+sWlGlOYEfUBdT+6ty1uUsc5utsJ55tR/omOM3wVolvJq01xzn/2jR3Q9Fdeg5zAm1PXe1WbaiV0RRrnyFs7fB+F1xuzx3O+UbkmI2lbS4lryo2UkOf9HFZrxuRfuJeCWkWNZkFu3W483B9N3k2BHfTLL4Ipniex8gqcLUMO0O01w/sFeLzfZj2tpF7dmwGjWcvLbbu9b0Y745KG7gesyxTdAVF1QvvNC1+L6OCTQp84Sp2w5jXkIa9DR79XJYvD8+zudPP5rPHx/fF4cXxen3Ar/f1Rjr2HpMJHR+Kii6GaH0npWdnKIf1IhlxtJ/lPw9/i90Zb+jOiW3ZpbdjzO/3d3qojK+it+//D6qatdyZ9Eg32tXs1mz5l20eK1+6f12pe1GWk27IPNaTroyL4BNFTsQcyuZh9KXr2BTrfd7X2tdLGoW3mjExxauGmtP3LL70TjYVOsVc7lLnfKLL9niZFPJg/zyKTLk5lz0AGVTyVszLiW/lsZxRXk1W+wJmufmPJ4LyjnYGnhZMtdVyVxsjYNjhVe+wdliOGk1FCXI42o1XrYErjEGxSuPtMBs8WyuKS3nctzcDWNTSVRLxSmokpt8eV+Zm00le7uu0kwANL/y1m4RNtWavNx7Im6wNj8ahC0OnDfyaouKyF4NAWggNtUiy8xx5htK2xQu1+HZkuCS3WvQJVYEhAZlU8lwcZ+puK5DhpoQm2pZH/dw4y6wPwqxJTM6WmM5u1yZ/gDYHwXZYnu5vW3TaQuQfcSwJUHK1+2WGnRNpNGE2VRLXfq3MZiG/zgRaTRxtrjpZs/9+pfAqPcZiTUahi125G+fqAKBHHLsgSpKhmFLOmaLsvroqK19hILdEc0Wd8xwrddFZ3e3E+HuKIHtm66Onul0x0McGZ4tplNbq65cm2kwNkW2mRy2xKpEmx5nfjqHdP+lpeLJ5LAldMOlocnY8jGYtn2QAabKYkvorGjuIQtCG8x/3oWSyOSxqQleOJozTbBzUp357wMJo+wsiWzqES8arwIGLLVLTcc157sYTCKZbDb12DmHraeV73X40nsMm/nmZr1XJYOpNbCpyfQ15ntbPiuuxuyCfB+qUMN2PNdcjHczlcjsiifVwZYo5iPqpN1aPh4o63Y9xhync5ST1M92PePleTyIhiGR317/VBfbUVZCGCMO99GoNZhOl8vldLpu7aKH2eSYl1gb1lG1sv2TZX1T/qQSHnWDx96E7U76Y/ud+mP7nfpj+536Y/ud+mP7nfpj+536P7P9BxCUMtFCAb4KAAAAAElFTkSuQmCC;" vertex="1" parent="1">
          <mxGeometry x="677.86" y="136.13" width="35.92" height="37.73" as="geometry" />
        </mxCell>
        <mxCell id="v9ebatE_qt70Te6h0S2r-21" style="edgeStyle=orthogonalEdgeStyle;rounded=0;orthogonalLoop=1;jettySize=auto;html=1;" edge="1" parent="1" source="v9ebatE_qt70Te6h0S2r-18">
          <mxGeometry relative="1" as="geometry">
            <mxPoint x="780" y="150" as="targetPoint" />
          </mxGeometry>
        </mxCell>
        <mxCell id="v9ebatE_qt70Te6h0S2r-18" value="" style="shape=image;verticalLabelPosition=bottom;labelBackgroundColor=default;verticalAlign=top;aspect=fixed;imageAspect=0;image=data:image/png,iVBORw0KGgoAAAANSUhEUgAAANsAAADmCAMAAABruQABAAAAnFBMVEUALVb39/f///8AE0kAK1UAGkwAI1AAKFMAJlKkrrzEzNX6+vnHzNMAIU8AHU0AH04AEEgAGEsADEYAEkgAAEQAB0UADUby8/SXorDd4eWxucN1hJfm6eyJlqbV2t9WaYJjdY5cboYxTW6Bjp8QNl28w8uUn61FW3cfP2NLYHtpeY7a3+apsr2zu8XO1NpBWHd5iZ0eP2QqSGoONFv6bQIrAAAOHElEQVR4nO2daXeyPBCGISSAUhBQxL11wVZrbWv//397wfZxYc1kgtL39P7yLOe0cJFkZpJMJor6/5Vy7xeoUX9sv1N/bL9Tf2y/U39sOFmJyFnHf9/gubWyfRNZk/3DqDWYLj/G4/HHcrpujaL9UP2mrPPxdbElWNYsWm+flSBwPY85nY6dqNNxGNO6fk9fbKejfVgjYB1sR6zd+OC7nqMbVMkXNfQOc4PVdnAErOE9pLNZRN0PNh2X2YVU14i60/UW04dQfvtJZYs74mS0NV3H5KG6kNHRnE1rKLn5JLLFYLuN5+lczZWVybqL9Uwmniw2i4SjR49BGyzVfI67GEyk0clhs8hsbHo4sB885s2jeMzKkAw2Yo3efVuwK2Zlup+DUEbj4dlIOFCkNNlZlLHxEE+HZSPh1GHSmuysTrBF0+HYSLj0HPlgR+nBE5IOw0bUNevURPZNt51grIo4m0V2BquRLJHtT1XxphNmI/tFt4ZxlhZTRsIdU5DNCse+XNtYJOo+DwU7phCbRd7MOgfatUx/KhZGi7CRcO7foDueRL3DTKTpBNhIZOo3JEtk9tcCow7MZqnjmzbaj7R3uDuAspHZS13Ouly6HUHhgGxkp93GPGZFgyWwX4LYLDIO7kSWyHsOQXAQNit8rzsQKZeugOwlgI0Mv25tH9MyfMig42cjD55xZ7RYvQE/HDcbGQV3MP1Z9T+44XjZyKB3b6ofaVteOE42sr6ngbwWe+S0lnxsZOrfm+hCbMMHx8XWLDRFcfjgeNjIulloMRxXt+RgI4PmjLV/YnMOg1LNRnZ4NKozzdWcTseJ/2CiOwaX8sbVcJVsJMKiGU6fPrXawzDZKQ2H7dZW6TvoMMCdVsJVsVkzDfeV9eBzMCQpDQcvATZ+C1pVcBVs1sRAfWG99zRLg33r9alno9ho8FABV9VuC8x0zeg9TfLJEk22PdR3o2xYbi3L2cgTZpLNDgVt9k+zg4eBM14Q7UYGrviTaTAtJ0s0RQXgdrknKGOz9ognG512NRohbR3T6bulM54SNiuk4mj6qmSkXWryiTCYNNiXDLkSNvIobsj0l5APjRD1gIAzlFCEjbTEB5u54kaL4V4Q3bJTMuQK2ayheIBMdc4O+a2QL8smX8GoEK6QjYh7tngUQNBiX4CYZ1A2KRpyRWxkIO56YusFFKL7K/pjUcMVsFlDxGB7h6IRskHYE/+tAK6AjWzEe2QPNNi+NemLs1GjwFbms1lv4s3mcIQjWU0RK9adgrlcPluoiFsuz6omyZGDsJX+LNec5LKRpXiILNZshAwQUXk8wnnZrIkm/BjqA7z2pVRM1Oy+5TVcHht5QgRbT2JohGwxodeKk83CuNIuV/SfpweEj1O8vAWGHDbyiIjvHFG02Jog2Cjlajdrj/A15lyc7QmzOsTW2YbLsiHcdvyIljjbDrMpSw2OdkM1m+JWrJCU6RXzYIVlp+AZNjLHzIM9QQ+QSEUtDFElYyrTbNYQ8/WoIo5GCCIYiuXt0nBpNvKBSUIzFhi2d9RypXFId8o0W4jK+sGYSULmuLQc98EqZbNaqAwS8agkESYy+X54KRs54Jb/78lG3dTqwjUbzgHEbNs7silOyg1cs5Exbm/FfMSwIcebYnyWsanIfK3YViGEs5Ox/OtV5is2KxKfuB1FKYYNsUT/Lfs6Z+iKDRWTHKUh4pIQuUMbf1qzmE3tY3+7+PSNkBlmAvetaxd3yWa9oSK6RA542fUsnGs96rpTXrKhjXBsKDfibJgp8Y/oVxGb1cEnfmiqMBvSjh0VXK7mXbBZe3yHV7Q3UTSsjT7KuZx+X7CRqYRzKOKdUkKXPD4+n+1Zxm8PBHYDEoVyck+1MJctdGUk7XY+xNiWcg4vaW0rh81qy+jwCg2E3Hco5eHxp71I8zqzkamcwyi20FwAGaSfdDngLtgwa3eX6gmsdb1Ky/Tu5I43U1KOfDzVAAs3Jb7UxX7ViQ2Tl5ASA5uTpbyzMGyXw4YPJk8KgA4cnX56IXtJMmxSPPc/ua8QtFf05OZCxnMOm5S44EfUBnjwiSnznM/Fjs65T8obzrEMM5PHW4iGy6zN6LzadWIL5R5tMxzO3KC9Lfl0lvaQZsPtA+SI+lzbVTv0VD+ts6E8sT1ICnrOcueVczn1SfIXVS6jrhObhBl9WrY+Kker5XS/vk2zSXUB/0TdRcna0H4hZeKR1tkJnNhkBaupBwWLAj/+tgjqOeJpHNLjTap7u3qUp42j1MBTozGTXGLorLODO7GhF6yLZXvBYdyKZsPJZPgatT4OgVdLJ/kW9cIUm/VS6yFgw2Ze343V95hsh5ZW95/zPvnur0acApYhd5ZiC7HLrlR3mKel5FV8sNQPeI6MNnX3abaq1ygVdfzP7WAUPaTULv+tWuoHRoPxwtOwR/9OQdeJDROWMGNaEBqX5jHl7iCH7bGJKwCgRSk2RMqk6RVvcLTLYqpe0SzvbeEj6LwUGyId1HsuW7RbFXewsiXoNuL0WIZNOGfeX5aQlW48la+HDVzRppPWbkHFhptVuMJUtXMwOQhGuGk20fHWr9xL/CgKQYLKZcy5WL/M2BIxO8nGVe9HJgWrqjzpGmOhl8qyifg3rtS0AjcQ8CyobEUmlVn/JhKXdHlWs15zFx85s6PeBWYLmbhEJJ5kfMccHvM+m8u3yBcKHPfIxJMC8wD6xfV6uQ3nlHuOs3bwIZeZBwjM37SK1ZCTshk51Obe8gcvm2bnb/B5N13xvt4wU0DP409Hj7rQ9zoNM/H1EkC6/DblhUEpbVBDkLNeAt41BWSSTFJOGHQeFboAl13nsqAnD0Aprtcn92xQdiw06yW7PgleV9YiyAtepsdTBtvtB0ZeOevK0ImAC0puutw9dHcgNKgF9zL7AdDkefMZ9oJnBw79STKGhUzdzD4ONMMcevTyHK9q0MQh4GnNnP03YCa0B81J2/2sLvTBJ61guzAX53Iu9rtBn0cDJ7h+V9XQ4ZnoMLa8/W5gngKcTU0qQlATnhEFY8vLUwDml8DZSFLFpgesIgFny8svUVVQCrsAGxn41UsQaLa8vCBgtCzCRrZCx6xgbPq5sS7Y1hBjIsQmJhBbfh4eLOpqKpuTmz+pgs5VNJWt+5CX96qSZ0Bk0lS2gnxl0IBrKFtRnjnoYF9D2a6O912dWQFkvjaUrehcB+g8TjPZ6KrwPE7EH1I2k62zLGJTVX4P10y2/tWhzOtzi/xlNhrJRmnxuUXAedNGsl13yfT5bm4P10i2VC0r0fPdTWQzXsrOd1t73glqE9nYoKzmAP9qVxPZ3FRdvHQdjB2ni2sgm56+ECJTv4TzvssGsvXTdW0zdWc4zw82j81YVNWdsYZ8t/E1j03L1MTL1nniC5gbx0azJfGy9blmXLO4xrHlVMTLqauWmzPRdDaaBcmrh8fVcE1j83Iqm+fWMeRouIax5TWbcP3JhrHx1p+MTWV1xNwsNuOFtyaqlc6ZyPtQoK18HFv1xMuPeNlUjmrHmAIzQFU73KtVyQo2VS1Jof4WrqofRNUZubQPqK+sWlGlOYEfUBdT+6ty1uUsc5utsJ55tR/omOM3wVolvJq01xzn/2jR3Q9Fdeg5zAm1PXe1WbaiV0RRrnyFs7fB+F1xuzx3O+UbkmI2lbS4lryo2UkOf9HFZrxuRfuJeCWkWNZkFu3W483B9N3k2BHfTLL4Ipniex8gqcLUMO0O01w/sFeLzfZj2tpF7dmwGjWcvLbbu9b0Y745KG7gesyxTdAVF1QvvNC1+L6OCTQp84Sp2w5jXkIa9DR79XJYvD8+zudPP5rPHx/fF4cXxen3Ar/f1Rjr2HpMJHR+Kii6GaH0npWdnKIf1IhlxtJ/lPw9/i90Zb+jOiW3ZpbdjzO/3d3qojK+it+//D6qatdyZ9Eg32tXs1mz5l20eK1+6f12pe1GWk27IPNaTroyL4BNFTsQcyuZh9KXr2BTrfd7X2tdLGoW3mjExxauGmtP3LL70TjYVOsVc7lLnfKLL9niZFPJg/zyKTLk5lz0AGVTyVszLiW/lsZxRXk1W+wJmufmPJ4LyjnYGnhZMtdVyVxsjYNjhVe+wdliOGk1FCXI42o1XrYErjEGxSuPtMBs8WyuKS3nctzcDWNTSVRLxSmokpt8eV+Zm00le7uu0kwANL/y1m4RNtWavNx7Im6wNj8ahC0OnDfyaouKyF4NAWggNtUiy8xx5htK2xQu1+HZkuCS3WvQJVYEhAZlU8lwcZ+puK5DhpoQm2pZH/dw4y6wPwqxJTM6WmM5u1yZ/gDYHwXZYnu5vW3TaQuQfcSwJUHK1+2WGnRNpNGE2VRLXfq3MZiG/zgRaTRxtrjpZs/9+pfAqPcZiTUahi125G+fqAKBHHLsgSpKhmFLOmaLsvroqK19hILdEc0Wd8xwrddFZ3e3E+HuKIHtm66Onul0x0McGZ4tplNbq65cm2kwNkW2mRy2xKpEmx5nfjqHdP+lpeLJ5LAldMOlocnY8jGYtn2QAabKYkvorGjuIQtCG8x/3oWSyOSxqQleOJozTbBzUp357wMJo+wsiWzqES8arwIGLLVLTcc157sYTCKZbDb12DmHraeV73X40nsMm/nmZr1XJYOpNbCpyfQ15ntbPiuuxuyCfB+qUMN2PNdcjHczlcjsiifVwZYo5iPqpN1aPh4o63Y9xhync5ST1M92PePleTyIhiGR317/VBfbUVZCGCMO99GoNZhOl8vldLpu7aKH2eSYl1gb1lG1sv2TZX1T/qQSHnWDx96E7U76Y/ud+mP7nfpj+536Y/ud+mP7nfpj+536P7P9BxCUMtFCAb4KAAAAAElFTkSuQmCC;" vertex="1" parent="1">
          <mxGeometry x="677.86" y="180" width="35.92" height="37.73" as="geometry" />
        </mxCell>
        <mxCell id="v9ebatE_qt70Te6h0S2r-23" value="Smart Card" style="text;html=1;strokeColor=none;fillColor=none;align=center;verticalAlign=middle;whiteSpace=wrap;rounded=0;" vertex="1" parent="1">
          <mxGeometry x="135" y="430" width="60" height="30" as="geometry" />
        </mxCell>
      </root>
    </mxGraphModel>
  </diagram>
</mxfile>
